<?xml version="1.0" standalone="no"?>
<!DOCTYPE svg PUBLIC "-//W3C//DTD SVG 20010904//EN"
 "http://www.w3.org/TR/2001/REC-SVG-20010904/DTD/svg10.dtd">
<svg version="1.0" xmlns="http://www.w3.org/2000/svg"
 width="329.000000pt" height="329.000000pt" viewBox="0 0 329.000000 329.000000"
 preserveAspectRatio="xMidYMid meet">
<metadata>
Created by potrace 1.11, written by Peter Selinger 2001-2013
</metadata>
<g transform="translate(0.000000,329.000000) scale(0.100000,-0.100000)"
fill="#000000" stroke="none">
<path d="M0 1645 l0 -1645 810 0 810 0 0 778 c0 427 3 820 6 872 l6 95 -146
178 c-136 165 -167 213 -132 205 16 -3 274 -313 285 -341 6 -15 34 14 144 150
128 156 152 193 127 193 -5 0 -69 -73 -142 -162 l-133 -163 -3 98 -3 98 -144
175 c-138 167 -162 204 -132 204 13 0 250 -282 277 -330 l16 -27 128 156 c71
86 128 161 127 166 -3 24 -27 2 -131 -125 -61 -74 -118 -142 -126 -150 -12
-12 -14 0 -14 92 l0 106 137 167 c76 92 140 171 141 176 2 5 -3 9 -11 9 -9 0
-71 -67 -139 -150 l-123 -149 -5 97 -5 97 -144 177 c-97 120 -141 183 -137
193 3 9 11 13 17 10 25 -16 268 -331 271 -351 2 -18 30 10 138 142 74 90 137
169 138 174 2 6 -3 10 -11 10 -7 0 -70 -68 -138 -151 l-124 -151 -3 102 -3
101 -109 137 c-61 75 -109 141 -107 146 9 27 33 7 111 -93 48 -61 91 -113 96
-116 6 -4 10 77 10 219 l0 226 -815 0 -815 0 0 -1645z m1506 827 c82 -101 124
-162 124 -178 0 -13 -2 -24 -4 -24 -2 0 -67 79 -146 176 -94 116 -140 180
-136 191 9 22 20 11 162 -165z m-626 -592 c115 -23 225 -71 333 -143 97 -65
251 -207 316 -290 l41 -54 0 -177 c0 -97 -3 -175 -7 -173 -5 3 -96 -5 -203
-18 -127 -15 -198 -20 -205 -14 -18 18 13 25 180 44 90 10 162 21 160 25 -2 4
-31 23 -65 44 l-61 38 -177 -22 c-97 -11 -186 -22 -197 -23 -12 -1 -20 4 -20
13 0 12 35 19 168 36 93 12 170 24 172 26 2 2 -27 22 -65 46 l-69 42 -165 -20
c-194 -24 -239 -25 -234 -7 3 8 63 19 176 32 95 11 172 22 172 25 0 3 -28 22
-62 43 l-61 38 -173 -21 c-204 -24 -224 -24 -224 -7 0 10 38 18 143 30 78 10
152 17 164 17 41 0 32 17 -32 58 l-65 41 -127 -14 c-160 -18 -173 -18 -173 -1
0 14 34 21 169 32 44 4 79 10 77 13 -2 3 -115 76 -250 160 -134 85 -243 158
-240 162 5 9 119 29 224 39 101 11 275 1 380 -20z"/>
<path d="M710 1758 c0 -30 72 -227 85 -232 11 -4 12 0 6 17 -5 12 -23 68 -40
125 -18 56 -36 102 -41 102 -6 0 -10 -6 -10 -12z"/>
<path d="M868 1745 c-10 -10 99 -327 115 -336 11 -7 -1 39 -40 158 -55 167
-64 188 -75 178z"/>
<path d="M1046 1632 c-7 -12 91 -319 105 -328 6 -3 12 -4 14 -3 4 4 -100 328
-108 335 -3 3 -8 1 -11 -4z"/>
<path d="M1231 1503 c1 -33 104 -317 116 -320 6 -3 -14 72 -45 166 -51 155
-73 202 -71 154z"/>
<path d="M1400 1413 c0 -4 23 -78 51 -163 45 -135 74 -198 85 -187 8 7 -113
351 -124 355 -7 2 -12 0 -12 -5z"/>
<path d="M1876 3263 c94 -143 171 -310 206 -450 19 -75 23 -114 22 -263 -1
-188 -14 -289 -60 -447 -67 -231 -180 -400 -308 -459 l-56 -25 0 -212 0 -211
49 75 c67 101 171 220 264 300 183 159 452 244 749 237 l128 -3 -226 -199
c-124 -109 -224 -199 -222 -200 2 -2 57 1 123 6 112 7 152 2 131 -19 -6 -6
-159 -19 -271 -22 -22 -1 -47 -17 -90 -57 l-60 -55 178 7 c155 6 177 5 177 -9
0 -12 -25 -16 -147 -22 -273 -12 -247 -6 -311 -64 l-57 -51 184 7 c155 5 183
4 179 -8 -5 -15 -112 -26 -298 -28 l-105 -2 -65 -60 -65 -60 60 5 c82 8 295
10 302 3 17 -18 -28 -25 -204 -32 l-197 -7 -56 -49 c-31 -27 -59 -49 -62 -49
-3 0 8 77 24 171 27 162 29 195 9 173 -7 -7 -61 -318 -61 -350 0 -6 29 -7 78
-2 136 12 314 10 310 -4 -5 -15 -122 -25 -294 -27 -168 -2 -154 36 -154 -424
l0 -377 805 0 805 0 0 1645 0 1645 -716 0 -716 0 18 -27z"/>
<path d="M1722 2939 c-51 -62 -92 -120 -92 -130 0 -11 2 -19 4 -19 4 0 159
187 185 223 8 12 10 22 4 28 -6 6 -44 -32 -101 -102z"/>
<path d="M2426 1639 c-5 -16 -36 -222 -36 -240 0 -10 3 -10 11 -2 16 16 50
235 38 247 -5 6 -10 4 -13 -5z"/>
<path d="M2275 1588 c-8 -24 -56 -341 -52 -345 13 -12 27 40 46 172 13 83 24
155 26 162 6 17 -14 28 -20 11z"/>
<path d="M2116 1438 c-3 -13 -15 -84 -26 -158 -11 -74 -23 -146 -26 -160 -5
-22 -4 -23 10 -10 10 10 24 72 41 175 29 185 28 175 15 175 -5 0 -12 -10 -14
-22z"/>
<path d="M1950 1306 c0 -2 -11 -76 -25 -163 -29 -183 -29 -191 -14 -176 7 7
22 78 35 160 27 167 28 183 14 183 -5 0 -10 -2 -10 -4z"/>
</g>
</svg>
