<svg xmlns="http://www.w3.org/2000/svg" viewBox="4628.987 -444.012 21.184 28.245">
  <defs>
    <style>
      .cls-1 {
        fill: #cb0000;
      }

      .cls-2 {
        fill: #fff;
      }

      .cls-3 {
        fill: #b10707;
      }
    </style>
  </defs>
  <g id="drop" transform="translate(4015 -819)">
    <path id="Path_874" data-name="Path 874" class="cls-1" d="M56.187,18.44c0-5.649-9.709-16.682-10.5-17.565h0S35,12.614,35,18.44A10.623,10.623,0,0,0,45.6,29.032a5.034,5.034,0,0,0,1.147-.088.324.324,0,0,0,.265-.088c.265,0,.53-.088.794-.088.088,0,.177-.088.353-.088.265-.088.53-.088.794-.177.088,0,.177-.088.265-.088l.794-.265a.308.308,0,0,0,.177-.088,3.578,3.578,0,0,0,.794-.441c.088,0,.088-.088.177-.088L51.95,27a.086.086,0,0,0,.088-.088c.265-.177.53-.441.794-.618h0A11.079,11.079,0,0,0,56.187,18.44Z" transform="translate(578.984 374.202)"/>
    <path id="Path_875" data-name="Path 875" class="cls-2" d="M168.031,140.014a1.765,1.765,0,1,0,1.765,1.765A1.771,1.771,0,0,0,168.031,140.014Z" transform="translate(460.961 249.097)"/>
    <path id="Path_876" data-name="Path 876" class="cls-3" d="M46.479,27.363A10.623,10.623,0,0,1,35.887,16.771c0-4.855,7.238-13.77,9.8-16.682L45.6,0S35,11.828,35,17.653A10.623,10.623,0,0,0,45.6,28.245a10.786,10.786,0,0,0,7.944-3.531A11.061,11.061,0,0,1,46.479,27.363Z" transform="translate(578.983 374.988)"/>
  </g>
</svg>
