<svg xmlns="http://www.w3.org/2000/svg" viewBox="4054 -674 49.343 51.004"><defs><style>.a{fill:#fff;}</style></defs><g transform="translate(4015 -819)"><path class="a" d="M27.764,31.1H12.7l6.287,16.843h20.52L44.014,31.1Z" transform="translate(34.603 148.061)"/><g transform="translate(39 145)"><path class="a" d="M33.1,40.85V32.428c0-3.8,1.661-5.931,4.033-8.3a19.187,19.187,0,0,0,17.911-19.1A2.684,2.684,0,0,0,52.315,2.3a19.27,19.27,0,0,0-19.1,17.911,19.129,19.129,0,0,0-2.847,3.321,19.13,19.13,0,0,0-2.847-3.321A19.167,19.167,0,0,0,8.428,2.419,2.684,2.684,0,0,0,5.7,5.147a19.27,19.27,0,0,0,17.911,19.1c2.372,2.372,4.033,4.626,4.033,8.3v8.422h0" transform="translate(-5.7 -2.3)"/></g><path class="a" d="M0,0H36.3V6.168H0Z" transform="translate(45.524 174.535)"/></g></svg>