<svg xmlns="http://www.w3.org/2000/svg" viewBox="4054 -298 49.581 47.569"><defs><style>.a{fill:#fff;}</style></defs><g transform="translate(4015 -819)"><path class="a" d="M28.482,16.936a71.393,71.393,0,0,0-14.827-6.524c-.474-.237-.83.119-.949.593a.971.971,0,0,0,.474,1.186A80.108,80.108,0,0,1,27.889,18.6c.119.119.119.119.237.119a.738.738,0,0,0,.712-.474A.983.983,0,0,0,28.482,16.936Z" transform="translate(32.224 519.726)"/><path class="a" d="M31.112,24.733c.237,0,.119,0,.237-.119,4.745-3.2,9.489-4.745,14.708-6.524.593-.237.593-.712.474-1.186s-.356-.83-.949-.593a62.969,62.969,0,0,0-14.708,6.642A1.212,1.212,0,0,0,30.4,24.14.717.717,0,0,0,31.112,24.733Z" transform="translate(35.525 520.824)"/><path class="a" d="M28.467,28.847A46.881,46.881,0,0,0,13.759,22.2a.694.694,0,0,0-.949.593c-.119.474-.119.949.474,1.186,5.575,1.542,9.608,2.965,14.708,6.524.119.119.119.119.237.119a.553.553,0,0,0,.593-.593A.961.961,0,0,0,28.467,28.847Z" transform="translate(32.24 521.93)"/><path class="a" d="M28.467,22.947A65.248,65.248,0,0,0,13.759,16.3a.694.694,0,0,0-.949.593c-.119.474-.119.949.474,1.186,5.219,1.779,9.964,3.321,14.708,6.524.119.119.119.119.237.119a.717.717,0,0,0,.712-.593A.971.971,0,0,0,28.467,22.947Z" transform="translate(32.24 520.831)"/><path class="a" d="M28.467,34.746c-4.982-3.44-9.015-5.575-14.708-6.642-.593-.119-.83.237-.949.712s-.119.949.474,1.068a32.5,32.5,0,0,1,14.471,6.524c.119.119.119.119.237.119a.738.738,0,0,0,.712-.474C28.941,35.576,29.06,35.1,28.467,34.746Z" transform="translate(32.24 523.029)"/><path class="a" d="M45.574,28.2c-5.693,1.068-9.726,3.2-14.708,6.642a1,1,0,0,0-.356,1.186.666.666,0,0,0,.712.474c.237,0,.119,0,.237-.119,4.982-3.677,8.777-5.456,14.471-6.524.593-.119.593-.593.474-1.068C46.4,28.323,46.167,28.086,45.574,28.2Z" transform="translate(35.534 523.046)"/><path class="a" d="M45.583,22.312a42.085,42.085,0,0,0-14.708,6.642A1.212,1.212,0,0,0,30.4,30.14a.617.617,0,0,0,.593.593c.237,0,.119,0,.237-.119,5.1-3.558,9.133-4.982,14.708-6.524.593-.119.593-.712.474-1.186C46.413,22.43,46.176,22.075,45.583,22.312Z" transform="translate(35.525 521.941)"/><path class="a" d="M31.13,18.715c.237,0,.237,0,.237-.119a80.108,80.108,0,0,1,14.708-6.405c.474-.237.593-.593.474-1.186-.119-.474-.356-.83-.949-.593a74.255,74.255,0,0,0-14.827,6.524,1.212,1.212,0,0,0-.474,1.186A.94.94,0,0,0,31.13,18.715Z" transform="translate(35.507 519.726)"/><path class="a" d="M57.281,7.327,55.146,4.361h0L54.078,2.819h0a132.1,132.1,0,0,0-12.336,5.1L32.49,11.834,23.238,7.8A102.555,102.555,0,0,0,10.9,2.7h0L9.716,4.243h0L7.7,7.327V48.249l3.914-.949a21.375,21.375,0,0,1,5.456-.593c4.151,0,12.929,2.372,15.42,3.558,2.254-1.068,11.031-3.558,15.42-3.558a28.448,28.448,0,0,1,5.456.593l3.914.949ZM53.959,43.5A29.535,29.535,0,0,0,32.49,47.418v.119A29.867,29.867,0,0,0,10.9,43.5V4.48c0,.237,9.371,3.558,21.469,9.252h0C44.589,8.038,53.959,4.717,53.959,4.48Z" transform="translate(31.3 518.304)"/></g></svg>