<svg xmlns="http://www.w3.org/2000/svg" viewBox="4054 -112 49.106 49.106"><defs><style>.a{fill:#fff;}</style></defs><g transform="translate(4015 -819)"><path class="a" d="M7.829,0A7.829,7.829,0,1,1,0,7.829,7.829,7.829,0,0,1,7.829,0Z" transform="translate(54.569 725.081) rotate(-9.218)"/><path class="a" d="M54.515,22.253l-3.44-.593a16.487,16.487,0,0,0-1.423-3.321l2.016-2.847a3.065,3.065,0,0,0-.356-3.914L48.347,8.493a2.97,2.97,0,0,0-2.135-.949,3.53,3.53,0,0,0-1.779.593l-2.847,2.016a17.511,17.511,0,0,0-3.44-1.423l-.593-3.44A3.046,3.046,0,0,0,34.588,2.8h-4.27a2.953,2.953,0,0,0-2.965,2.491l-.593,3.44a16.487,16.487,0,0,0-3.321,1.423L20.592,8.138a4.067,4.067,0,0,0-1.9-.474,2.97,2.97,0,0,0-2.135.949L13.475,11.7a3.065,3.065,0,0,0-.356,3.914l2.016,2.847a19.993,19.993,0,0,0-1.423,3.321l-3.321.593A3.046,3.046,0,0,0,7.9,25.337v4.27a2.953,2.953,0,0,0,2.491,2.965l3.44.593a16.487,16.487,0,0,0,1.423,3.321l-2.016,2.847a3.065,3.065,0,0,0,.356,3.914l3.084,3.084a2.97,2.97,0,0,0,2.135.949,3.53,3.53,0,0,0,1.779-.593l2.847-2.016a18.178,18.178,0,0,0,3.2,1.3l.593,3.44A3.046,3.046,0,0,0,30.2,51.906h4.389a2.953,2.953,0,0,0,2.965-2.491l.593-3.44a16.487,16.487,0,0,0,3.321-1.423l2.847,2.016a3.2,3.2,0,0,0,1.779.593,2.97,2.97,0,0,0,2.135-.949l3.084-3.084a3.065,3.065,0,0,0,.356-3.914l-2.016-2.847a19.993,19.993,0,0,0,1.423-3.321l3.44-.593a3.046,3.046,0,0,0,2.491-2.965v-4.27A2.953,2.953,0,0,0,54.515,22.253Zm.712,8.066L50.6,32.1l-2.254,4.863,2.728,4.152-4.745,4.863-4.863-2.254-4.033,1.423-1.9,5.456H29.251l-1.186-5.219-4.033-2.254-4.745,2.965-5.219-4.033.83-2.61,1.3-2.491-1.3-4.745-4.745-1.3L8.968,28.421l.949-4.27h1.3l3.558-1.3L16.2,18.22l-2.491-4.982,4.863-4.27,4.033,2.61,5.219-2.135,1.9-5.219H35.3L37.079,9.68l4.389,2.254,4.389-2.965,4.863,4.27L48.466,18.1l2.254,4.863,4.389,1.3v6.049Z" transform="translate(31.1 704.2)"/><path class="a" d="M49.118,18.28l2.3-5L46.454,8.9l-4.48,2.925-4.48-2.315L35.678,3.9h-5.69L28.051,9.262l-5.327,2.194L18.607,8.774l-4.964,4.387,2.543,5.118-1.453,4.753L11.1,24.373H9.769L8.8,28.76l1.211,2.559,4.843,1.34,1.332,4.874-1.332,2.559-.848,2.681,5.327,4.143,4.843-3.047,4.117,2.315L29.5,51.548H35.92l1.937-5.606,4.116-1.462L46.938,46.8l4.843-5L49,37.656l2.179-5L55.9,30.831V24.738l-4.48-1.462Zm5.933,7.312v4.387h0a.261.261,0,0,1-.242.244l-4.359.731a1.288,1.288,0,0,0-1.09,1.1,14,14,0,0,1-1.816,4.387,1.507,1.507,0,0,0,.121,1.584l2.543,3.656a.229.229,0,0,1,0,.366l-3.148,3.168c-.121.122-.121.122-.242.122H46.7l-3.632-2.559a1.481,1.481,0,0,0-1.574-.122,15.093,15.093,0,0,1-4.359,1.828,1.436,1.436,0,0,0-1.09,1.1l-.726,4.387a.261.261,0,0,1-.242.244H30.714a.261.261,0,0,1-.242-.244l-.848-4.387a1.288,1.288,0,0,0-1.09-1.1,16.635,16.635,0,0,1-4.359-1.828,1.713,1.713,0,0,0-.726-.244,2.233,2.233,0,0,0-.848.244L18.97,45.333h-.121a.374.374,0,0,1-.242-.122l-3.148-3.168a.229.229,0,0,1,0-.366L18,38.021a1.507,1.507,0,0,0,.121-1.584,14,14,0,0,1-1.816-4.387,1.643,1.643,0,0,0-1.09-1.1l-4.48-.731a.261.261,0,0,1-.242-.244V25.591a.261.261,0,0,1,.242-.244l4.359-.609a1.288,1.288,0,0,0,1.09-1.1A14,14,0,0,1,18,19.255a1.507,1.507,0,0,0-.121-1.584l-2.664-3.656a.229.229,0,0,1,0-.366l3.148-3.168a.933.933,0,0,1,.363-.122h.121l3.632,2.559a1.481,1.481,0,0,0,1.574.122,13.811,13.811,0,0,1,4.359-1.828,1.643,1.643,0,0,0,1.09-1.1l.726-4.509a.261.261,0,0,1,.242-.244h4.359a.261.261,0,0,1,.242.244L35.8,9.993a1.288,1.288,0,0,0,1.09,1.1,14.477,14.477,0,0,1,4.48,1.828,1.481,1.481,0,0,0,1.574-.122l3.632-2.559H46.7a.374.374,0,0,1,.242.122l3.148,3.168a.229.229,0,0,1,0,.366l-2.543,3.656a1.507,1.507,0,0,0-.121,1.584,15.3,15.3,0,0,1,1.816,4.387,1.436,1.436,0,0,0,1.09,1.1l4.359.731C54.929,25.348,55.05,25.469,55.05,25.591Z" transform="translate(30.685 703.819)"/><path class="a" d="M56.732,25.963l-4.58-.763a1.349,1.349,0,0,1-1.145-1.145,14.562,14.562,0,0,0-1.908-4.58,1.564,1.564,0,0,1,.127-1.654L51.9,14a.239.239,0,0,0,0-.382l-3.308-3.308c-.127-.127-.127-.127-.254-.127h-.127L44.393,12.86a1.564,1.564,0,0,1-1.654.127,16.651,16.651,0,0,0-4.707-1.908,1.5,1.5,0,0,1-1.145-1.145l-.763-4.58A.274.274,0,0,0,35.87,5.1H31.29a.274.274,0,0,0-.254.254l-.89,4.707A1.349,1.349,0,0,1,29,11.206a14.562,14.562,0,0,0-4.58,1.908,1.564,1.564,0,0,1-1.654-.127L18.95,10.316h-.127a.394.394,0,0,0-.254.127L15.261,13.75a.239.239,0,0,0,0,.382l2.8,3.816a1.564,1.564,0,0,1,.127,1.654,15.915,15.915,0,0,0-1.908,4.58,1.5,1.5,0,0,1-1.145,1.145l-4.58.763a.274.274,0,0,0-.254.254v4.58a.274.274,0,0,0,.254.254l4.707.763a1.349,1.349,0,0,1,1.145,1.145,14.562,14.562,0,0,0,1.908,4.58,1.564,1.564,0,0,1-.127,1.654l-2.671,3.816a.239.239,0,0,0,0,.382l3.308,3.308a.125.125,0,0,0,.127.127h.127l3.816-2.8a1.839,1.839,0,0,1,.89-.254,1.808,1.808,0,0,1,.763.254,24.713,24.713,0,0,0,4.58,1.908,1.72,1.72,0,0,1,1.145,1.145l.763,4.58a.274.274,0,0,0,.254.254h4.58a.274.274,0,0,0,.254-.254l.763-4.58a1.349,1.349,0,0,1,1.145-1.145,14.562,14.562,0,0,0,4.58-1.908,1.564,1.564,0,0,1,1.654.127l3.816,2.671h.127a.394.394,0,0,0,.254-.127l3.308-3.308a.239.239,0,0,0,0-.382L49.1,39.32a1.564,1.564,0,0,1-.127-1.654,15.915,15.915,0,0,0,1.908-4.58,1.72,1.72,0,0,1,1.145-1.145l4.58-.763a.274.274,0,0,0,.254-.254h0v-4.58C56.987,26.09,56.86,25.963,56.732,25.963ZM33.58,39.956A11.322,11.322,0,1,1,44.9,28.634,11.347,11.347,0,0,1,33.58,39.956Z" transform="translate(29.947 703.017)"/></g></svg>