<svg xmlns="http://www.w3.org/2000/svg" viewBox="4054 -484 49.554 47.208"><defs><style>.a{fill:#fff;}</style></defs><g transform="translate(4015 -819)"><path class="a" d="M53.844,26.941l-5.456-9.608a2.955,2.955,0,0,0-2.965-1.542,2.909,2.909,0,0,0-2.491,2.135L36.526,37.973,24.427,5.116A3.022,3.022,0,0,0,21.581,3.1a3.188,3.188,0,0,0-2.847,2.135L10.431,26.7s-4.745,6.642,0,9.489c1.423.83,4.151,1.186,4.982-2.254l6.405-18.5,12.1,32.856a3.073,3.073,0,0,0,2.847,2.016h.119a3.188,3.188,0,0,0,2.847-2.135l7-21.944,5.693,9.964a2.935,2.935,0,0,0,5.456-.712C57.521,33.109,53.844,26.941,53.844,26.941Z" transform="translate(30.678 331.9)"/></g></svg>