<svg xmlns="http://www.w3.org/2000/svg" viewBox="4789.99 -445.01 31.997 31.997">
  <defs>
    <style>
      .cls-1 {
        fill: #cb0000;
      }

      .cls-2 {
        fill: #b10707;
      }
    </style>
  </defs>
  <g id="contrast" transform="translate(4015 -819)">
    <ellipse id="Ellipse_3" data-name="Ellipse 3" class="cls-1" cx="9.199" cy="9.199" rx="9.199" ry="9.199" transform="translate(781.789 380.79)"/>
    <g id="Group_385" data-name="Group 385" transform="translate(774.99 373.99)">
      <path id="Path_865" data-name="Path 865" class="cls-2" d="M198.625,118.664a15.015,15.015,0,0,1,.72,4.04c.24,5.559-3.52,10.479-8.4,12.639a9.2,9.2,0,0,0,7.679-16.678Z" transform="translate(-178.267 -110.785)"/>
      <path id="Path_866" data-name="Path 866" class="cls-1" d="M221.821,0a1.349,1.349,0,0,0-1.36,1.36V3.6a1.36,1.36,0,1,0,2.72,0V1.36A1.349,1.349,0,0,0,221.821,0Z" transform="translate(-205.822)"/>
      <path id="Path_867" data-name="Path 867" class="cls-1" d="M221.821,407.191a1.349,1.349,0,0,0-1.36,1.36v2.24a1.36,1.36,0,0,0,2.72,0v-2.24A1.349,1.349,0,0,0,221.821,407.191Z" transform="translate(-205.822 -380.154)"/>
      <path id="Path_868" data-name="Path 868" class="cls-1" d="M412.15,221.821a1.349,1.349,0,0,0-1.36-1.36h-2.24a1.36,1.36,0,1,0,0,2.72h2.24A1.349,1.349,0,0,0,412.15,221.821Z" transform="translate(-380.153 -205.822)"/>
      <path id="Path_869" data-name="Path 869" class="cls-1" d="M4.96,221.821a1.349,1.349,0,0,0-1.36-1.36H1.36a1.36,1.36,0,1,0,0,2.72H3.6A1.349,1.349,0,0,0,4.96,221.821Z" transform="translate(0 -205.822)"/>
      <path id="Path_870" data-name="Path 870" class="cls-1" d="M356.436,64.992a1.376,1.376,0,0,0-1.92,0l-1.6,1.6a1.358,1.358,0,1,0,1.92,1.92l1.6-1.6A1.376,1.376,0,0,0,356.436,64.992Z" transform="translate(-329.119 -60.312)"/>
      <path id="Path_871" data-name="Path 871" class="cls-1" d="M68.511,352.917a1.376,1.376,0,0,0-1.92,0l-1.6,1.6a1.358,1.358,0,0,0,1.92,1.92l1.6-1.6A1.376,1.376,0,0,0,68.511,352.917Z" transform="translate(-60.312 -329.119)"/>
      <path id="Path_872" data-name="Path 872" class="cls-1" d="M356.436,356.436a1.376,1.376,0,0,0,0-1.92l-1.6-1.6a1.358,1.358,0,1,0-1.92,1.92l1.6,1.6A1.376,1.376,0,0,0,356.436,356.436Z" transform="translate(-329.119 -329.119)"/>
      <path id="Path_873" data-name="Path 873" class="cls-1" d="M68.511,68.511a1.376,1.376,0,0,0,0-1.92l-1.6-1.6a1.358,1.358,0,0,0-1.92,1.92l1.6,1.6A1.376,1.376,0,0,0,68.511,68.511Z" transform="translate(-60.312 -60.312)"/>
    </g>
  </g>
</svg>
