<svg xmlns="http://www.w3.org/2000/svg" viewBox="4326.703 -194 13.004 22.17">
  <defs>
    <style>
      .cls-1 {
        fill: #efc75e;
      }

      .cls-2 {
        fill: #b7b7b7;
      }

      .cls-3 {
        fill: #f2f1ef;
      }

      .cls-4 {
        fill: #b10707;
      }

      .cls-5 {
        fill: #cb0000;
      }
    </style>
  </defs>
  <g id="thermometer" transform="translate(4015 -819)">
    <path id="Path_877" data-name="Path 877" class="cls-1" d="M63.015,69v0Z" transform="translate(254.361 577.738)"/>
    <path id="Path_878" data-name="Path 878" class="cls-2" d="M182.049,129.969H169.665c-.186,0-.31.084-.31.209v.418c0,.125.124.209.31.209h12.385c.186,0,.31-.084.31-.209v-.418C182.359,130.073,182.235,129.969,182.049,129.969Zm0,2.926H169.665c-.186,0-.31.084-.31.209v.418c0,.125.124.209.31.209h12.385c.186,0,.31-.084.31-.209V133.1C182.359,133,182.235,132.9,182.049,132.9Zm0,3.135H169.665c-.186,0-.31.084-.31.209v.418c0,.125.124.209.31.209h12.385c.186,0,.31-.084.31-.209v-.418C182.359,136.135,182.235,136.031,182.049,136.031Z" transform="translate(142.348 500.057)"/>
    <path id="Path_880" data-name="Path 880" class="cls-3" d="M171.339,63.616V53.771a2.645,2.645,0,0,1,5.289,0v9.845a2.077,2.077,0,0,0,.705,1.463,4.191,4.191,0,0,1,1.278,3.01,4.633,4.633,0,0,1-9.255.042,4.219,4.219,0,0,1,1.3-3.052A2.241,2.241,0,0,0,171.339,63.616Z" transform="translate(144.235 574.646)"/>
    <path id="Path_881" data-name="Path 881" class="cls-4" d="M192.6,150.178a3.751,3.751,0,0,1-7.492,0,3.523,3.523,0,0,1,1.983-3.135v-9.2h3.526v9.2A3.523,3.523,0,0,1,192.6,150.178Z" transform="translate(129.364 492.598)"/>
    <path id="Path_882" data-name="Path 882" class="cls-5" d="M253.824,147.043v-9.2h-1.763v15.886a3.651,3.651,0,0,0,3.746-3.553A3.523,3.523,0,0,0,253.824,147.043Z" transform="translate(66.157 492.598)"/>
    <path id="Path_883" data-name="Path 883" class="cls-5" d="M222.318,126.031c.97,0,1.763.272,1.763.627s-.793.627-1.763.627-1.763-.272-1.763-.627C220.555,126.324,221.348,126.031,222.318,126.031Z" transform="translate(95.9 503.786)"/>
  </g>
</svg>
