<?xml version="1.0" encoding="utf-8"?>
<!-- Generator: Adobe Illustrator 21.1.0, SVG Export Plug-In . SVG Version: 6.00 Build 0)  -->
<svg version="1.1" id="Layer_1" xmlns="http://www.w3.org/2000/svg" xmlns:xlink="http://www.w3.org/1999/xlink" x="0px" y="0px"
	 viewBox="0 0 336.3 80.7" style="enable-background:new 0 0 336.3 80.7;" xml:space="preserve">
<style type="text/css">
	.st0{enable-background:new    ;}
	.st1{fill:#FFFFFF;}
</style>
<g class="st0">
	<path class="st1" d="M37.7,45.1h19.4v24.5c-7.1,3.1-14.2,4.6-21.2,4.6c-9.6,0-17.2-2.8-23-8.4c-5.7-5.6-8.6-12.5-8.6-20.7
		c0-8.6,3-15.8,8.9-21.6c5.9-5.7,13.4-8.6,22.3-8.6c3.3,0,6.4,0.4,9.3,1.1c2.9,0.7,6.6,2,11.1,3.9v8.5c-6.9-4-13.8-6-20.6-6
		c-6.3,0-11.7,2.2-16,6.5c-4.3,4.3-6.5,9.6-6.5,15.9c0,6.6,2.2,11.9,6.5,16.1c4.3,4.2,9.9,6.3,16.7,6.3c3.3,0,7.3-0.8,11.9-2.3
		l0.8-0.2V52.4H37.7V45.1z"/>
	<path class="st1" d="M115.2,15.7h7.9v57.9h-7.1L77.2,29v44.6h-7.8V15.7h6.7l39,45V15.7z"/>
	<path class="st1" d="M163.9,14.9c8.9,0,16.4,2.8,22.3,8.5c5.9,5.7,8.9,12.8,8.9,21.3c0,8.5-3,15.6-9,21.2c-6,5.6-13.6,8.4-22.7,8.4
		c-8.7,0-16-2.8-21.8-8.4s-8.7-12.6-8.7-21c0-8.6,2.9-15.8,8.8-21.5C147.5,17.7,154.9,14.9,163.9,14.9z M164.2,22.7
		c-6.6,0-12.1,2.1-16.3,6.2c-4.3,4.1-6.4,9.4-6.4,15.9c0,6.2,2.1,11.4,6.4,15.6c4.3,4.1,9.6,6.2,16.1,6.2c6.5,0,11.8-2.1,16.2-6.3
		s6.5-9.5,6.5-15.8c0-6.1-2.2-11.3-6.5-15.5C175.8,24.8,170.5,22.7,164.2,22.7z"/>
	<path class="st1" d="M251.3,15.7h7.7v57.9h-8.3v-45L233,50.9h-1.5l-18-22.4v45h-8.3V15.7h7.8l19.2,23.8L251.3,15.7z"/>
	<path class="st1" d="M271.6,15.7h32.8v7.4h-24.5v17.7h23.7v7.4h-23.7v18h25.3v7.4h-33.6V15.7z"/>
</g>
<g>
	<path class="st1" d="M312.2,17.7h-3v-2.1h8.6v2.1h-3.1v9.1h-2.5V17.7z"/>
	<path class="st1" d="M328.5,22.5c-0.1-1.3-0.1-3-0.1-4.6h-0.1c-0.3,1.4-0.8,3-1.2,4.3l-1.4,4.4h-2l-1.2-4.3c-0.4-1.3-0.7-2.9-1-4.4
		l0,0c-0.1,1.5-0.1,3.2-0.2,4.6l-0.2,4.3h-2.3l0.7-11.2h3.4l1.1,3.7c0.3,1.3,0.7,2.7,0.9,4h0.1c0.3-1.3,0.7-2.8,1.1-4l1.2-3.7h3.3
		l0.6,11.2h-2.5L328.5,22.5z"/>
</g>
</svg>
