<?xml version="1.0" encoding="utf-8"?>
<!-- Generator: Adobe Illustrator 22.0.1, SVG Export Plug-In . SVG Version: 6.00 Build 0)  -->
<svg version="1.1" id="Layer_1" xmlns="http://www.w3.org/2000/svg" xmlns:xlink="http://www.w3.org/1999/xlink" x="0px" y="0px"
	 viewBox="0 0 552.2 1344.5" style="enable-background:new 0 0 552.2 1344.5;" xml:space="preserve">
<style type="text/css">
	.st0{enable-background:new    ;}
	.st1{fill:#757676;}
	.st2{fill:#D2D3D4;}
	.st3{fill:#8D8E8E;}
	.st4{fill:#8A8A8B;}
	.st5{fill:#8B3C27;}
	.st6{fill:#943D29;}
	.st7{fill:#A4402D;}
	.st8{clip-path:url(#SVGID_2_);enable-background:new    ;}
	.st9{fill:#9A3E2B;}
	.st10{clip-path:url(#SVGID_4_);enable-background:new    ;}
	.st11{clip-path:url(#SVGID_6_);enable-background:new    ;}
	.st12{clip-path:url(#SVGID_8_);enable-background:new    ;}
	.st13{clip-path:url(#SVGID_10_);enable-background:new    ;}
	.st14{clip-path:url(#SVGID_12_);enable-background:new    ;}
	.st15{fill:#81908A;}
	.st16{fill:#7E8D87;}
	.st17{fill:#7B8B84;}
	.st18{fill:#788881;}
	.st19{fill:#75867E;}
	.st20{clip-path:url(#SVGID_14_);enable-background:new    ;}
	.st21{fill:#9C9C77;}
	.st22{fill:#989975;}
	.st23{fill:#959672;}
	.st24{clip-path:url(#SVGID_16_);enable-background:new    ;}
	.st25{clip-path:url(#SVGID_18_);enable-background:new    ;}
	.st26{clip-path:url(#SVGID_20_);enable-background:new    ;}
	.st27{clip-path:url(#SVGID_22_);enable-background:new    ;}
	.st28{clip-path:url(#SVGID_24_);enable-background:new    ;}
	.st29{clip-path:url(#SVGID_26_);enable-background:new    ;}
	.st30{clip-path:url(#SVGID_28_);enable-background:new    ;}
	.st31{clip-path:url(#SVGID_30_);enable-background:new    ;}
	.st32{clip-path:url(#SVGID_32_);enable-background:new    ;}
	.st33{fill:#933D29;}
	.st34{fill:#963E2A;}
	.st35{fill:#9E3F2B;}
	.st36{clip-path:url(#SVGID_34_);enable-background:new    ;}
	.st37{clip-path:url(#SVGID_36_);enable-background:new    ;}
	.st38{clip-path:url(#SVGID_38_);enable-background:new    ;}
	.st39{fill:#1A778E;}
	.st40{clip-path:url(#SVGID_40_);enable-background:new    ;}
	.st41{clip-path:url(#SVGID_42_);enable-background:new    ;}
	.st42{fill:#8F3C28;}
	.st43{clip-path:url(#SVGID_44_);enable-background:new    ;}
	.st44{fill:#9EABA0;}
	.st45{fill:#A2AEA4;}
	.st46{fill:#A6B2A8;}
	.st47{fill:#AAB5AC;}
	.st48{clip-path:url(#SVGID_46_);enable-background:new    ;}
	.st49{fill:#1A7282;}
	.st50{clip-path:url(#SVGID_48_);enable-background:new    ;}
	.st51{clip-path:url(#SVGID_50_);enable-background:new    ;}
	.st52{clip-path:url(#SVGID_52_);enable-background:new    ;}
	.st53{fill:#1F87A8;}
	.st54{fill:#28A6DA;}
	.st55{fill:#1C7C97;}
	.st56{clip-path:url(#SVGID_54_);enable-background:new    ;}
	.st57{fill:#F5F7F6;}
	.st58{clip-path:url(#SVGID_56_);enable-background:new    ;}
	.st59{clip-path:url(#SVGID_58_);enable-background:new    ;}
	.st60{fill:#DE4A3A;}
	.st61{clip-path:url(#SVGID_60_);enable-background:new    ;}
	.st62{fill:#1D7F9C;}
	.st63{fill:#1C7D99;}
	.st64{fill:#1B7B95;}
	.st65{fill:#1B7992;}
	.st66{fill:#1F8199;}
	.st67{fill:#289EC6;}
	.st68{clip-path:url(#SVGID_62_);enable-background:new    ;}
	.st69{clip-path:url(#SVGID_64_);enable-background:new    ;}
	.st70{clip-path:url(#SVGID_66_);enable-background:new    ;}
	.st71{fill:#A4A27D;}
	.st72{fill:#A09F7A;}
	.st73{clip-path:url(#SVGID_68_);enable-background:new    ;}
	.st74{clip-path:url(#SVGID_70_);enable-background:new    ;}
	.st75{clip-path:url(#SVGID_72_);enable-background:new    ;}
	.st76{clip-path:url(#SVGID_74_);enable-background:new    ;}
	.st77{clip-path:url(#SVGID_76_);enable-background:new    ;}
	.st78{clip-path:url(#SVGID_78_);enable-background:new    ;}
	.st79{fill:#E7D7AD;}
	.st80{clip-path:url(#SVGID_80_);enable-background:new    ;}
	.st81{clip-path:url(#SVGID_82_);enable-background:new    ;}
	.st82{fill:#B6BDC0;}
	.st83{clip-path:url(#SVGID_84_);enable-background:new    ;}
	.st84{clip-path:url(#SVGID_86_);enable-background:new    ;}
	.st85{clip-path:url(#SVGID_88_);enable-background:new    ;}
	.st86{clip-path:url(#SVGID_90_);enable-background:new    ;}
	.st87{fill:#C78F66;}
	.st88{fill:#C58E65;}
	.st89{fill:#C38D64;}
	.st90{fill:#F0AD7B;}
	.st91{clip-path:url(#SVGID_92_);enable-background:new    ;}
	.st92{fill:#C99167;}
</style>
<g>
	<g>
		<g class="st0">
			<g>
				<polygon class="st1" points="227.3,1304 212,1302.4 190.7,1268.5 206,1270 				"/>
			</g>
			<g>
				<polygon class="st2" points="251.6,1010.7 247.3,1267.1 227.3,1304 206,1270 210.3,1013.6 				"/>
			</g>
			<g>
				<polygon class="st3" points="206,1270 190.7,1268.5 195,1012 210.3,1013.6 				"/>
			</g>
			<g>
				<polygon class="st4" points="210.3,1013.6 195,1012 236.3,1009.1 251.6,1010.7 				"/>
			</g>
		</g>
		<g class="st0">
			<g>
				<polygon class="st1" points="351.3,1295.3 336,1293.8 314.7,1259.8 330,1261.4 				"/>
			</g>
			<g>
				<polygon class="st2" points="375.7,1002 371.4,1258.5 351.3,1295.3 330,1261.4 334.3,1004.9 				"/>
			</g>
			<g>
				<polygon class="st3" points="330,1261.4 314.7,1259.8 319,1003.3 334.3,1004.9 				"/>
			</g>
			<g>
				<polygon class="st4" points="334.3,1004.9 319,1003.3 360.4,1000.5 375.7,1002 				"/>
			</g>
		</g>
	</g>
	<g id="Element_1_">
		<g class="st0">
			<g>
				<path class="st5" d="M375.9,927.3c-0.1,1.5-0.2,3.1-0.3,4.6C375.7,930.4,375.8,928.9,375.9,927.3z"/>
			</g>
			<g>
				<path class="st5" d="M376,926.2c0,0.4-0.1,0.7-0.1,1.1C375.9,927,376,926.6,376,926.2z"/>
			</g>
			<g>
				<path class="st5" d="M376.8,917.3c-0.1,1.4-0.3,2.7-0.4,4.1C376.5,920.1,376.6,918.7,376.8,917.3z"/>
			</g>
			<g>
				<path class="st5" d="M376.8,916.7c0,0.2,0,0.4-0.1,0.6C376.8,917.1,376.8,916.9,376.8,916.7z"/>
			</g>
			<g>
				<polygon class="st6" points="455.1,965 376.3,953 376.3,953 455.1,965 				"/>
			</g>
			<g>
				<polygon class="st7" points="455.1,965 376.3,953 376.3,953 455.1,965 				"/>
			</g>
			<g class="st0">
				<defs>
					<path id="SVGID_1_" class="st0" d="M372.7,954.7c1.3-0.6,2.5-1.2,3.6-1.7l78.8,12.1c-1.1,0.6-2.3,1.1-3.6,1.7
						C425.2,962.7,399,958.7,372.7,954.7z"/>
				</defs>
				<clipPath id="SVGID_2_">
					<use xlink:href="#SVGID_1_"  style="overflow:visible;"/>
				</clipPath>
				<g class="st8">
					<path class="st9" d="M426,977.8l-78.8-12.1c12-4.8,21.9-9.3,29.1-12.7l78.8,12.1C448,968.5,438.1,973,426,977.8"/>
				</g>
			</g>
			<g class="st0">
				<defs>
					<path id="SVGID_3_" class="st0" d="M454.5,944l-78.8-12.1c0.1-1.5,0.2-3,0.3-4.6l78.8,12.1C454.6,940.9,454.6,942.5,454.5,944z
						"/>
				</defs>
				<clipPath id="SVGID_4_">
					<use xlink:href="#SVGID_3_"  style="overflow:visible;"/>
				</clipPath>
				<g class="st10">
					<path class="st9" d="M454.5,944l-78.8-12.1c0.1-1.5,0.2-3,0.3-4.6l78.8,12.1C454.6,940.9,454.6,942.5,454.5,944"/>
				</g>
			</g>
			<g class="st0">
				<defs>
					<path id="SVGID_5_" class="st0" d="M454.8,939.4l-78.8-12.1c0-0.4,0.1-0.7,0.1-1.1l78.8,12.1
						C454.8,938.7,454.8,939,454.8,939.4z"/>
				</defs>
				<clipPath id="SVGID_6_">
					<use xlink:href="#SVGID_5_"  style="overflow:visible;"/>
				</clipPath>
				<g class="st11">
					<path class="st9" d="M454.8,939.4l-78.8-12.1c0-0.4,0.1-0.7,0.1-1.1l78.8,12.1C454.8,938.7,454.8,939,454.8,939.4"/>
				</g>
			</g>
			<g class="st0">
				<defs>
					<path id="SVGID_7_" class="st0" d="M377,915.3c26.3,4,52.6,8,78.8,12.1c-0.1,0.5-0.1,1-0.1,1.4l-78.8-12.1
						C376.9,916.3,376.9,915.8,377,915.3z"/>
				</defs>
				<clipPath id="SVGID_8_">
					<use xlink:href="#SVGID_7_"  style="overflow:visible;"/>
				</clipPath>
				<g class="st12">
					<path class="st9" d="M455.7,928.8l-78.8-12.1c0-0.5,0.1-1,0.1-1.4l78.8,12.1C455.8,927.9,455.7,928.3,455.7,928.8"/>
				</g>
			</g>
			<g class="st0">
				<defs>
					<path id="SVGID_9_" class="st0" d="M337.7,701.5c2.6-14,4.5-27.8,5.9-41l78.8,12.1c-1.4,13.2-3.3,26.9-5.9,41
						C390.3,709.6,364,705.5,337.7,701.5z"/>
				</defs>
				<clipPath id="SVGID_10_">
					<use xlink:href="#SVGID_9_"  style="overflow:visible;"/>
				</clipPath>
				<g class="st13">
					<path class="st9" d="M416,716.4l-78.8-12.1c2.9-15,5-29.7,6.4-43.7l78.8,12.1C421,686.7,418.9,701.4,416,716.4"/>
				</g>
			</g>
			<g class="st0">
				<defs>
					<path id="SVGID_11_" class="st0" d="M418.6,564.3l-78.8-12.1c5.4-23.2-4.5-92.6-10-93.4l78.8,12.1
						C414.1,471.6,423.9,541.1,418.6,564.3z"/>
				</defs>
				<clipPath id="SVGID_12_">
					<use xlink:href="#SVGID_11_"  style="overflow:visible;"/>
				</clipPath>
				<g class="st14">
					<path class="st15" d="M418.6,564.3l-78.8-12.1c0.1-0.5,0.2-1,0.3-1.5l78.8,12.1C418.8,563.3,418.7,563.8,418.6,564.3"/>
					<path class="st16" d="M418.9,562.8L340,550.7c1-5.1,1.3-11.9,1.2-19.6l78.8,12.1C420.2,550.9,419.8,557.7,418.9,562.8"/>
					<path class="st17" d="M420.1,543.2l-78.8-12.1c-0.2-17.6-2.7-39.7-5.6-54.8l78.8,12.1C417.4,503.5,419.9,525.5,420.1,543.2"/>
					<path class="st18" d="M414.5,488.4l-78.8-12.1c-1.3-6.5-2.6-11.7-3.8-14.7l78.8,12.1C411.9,476.7,413.2,481.9,414.5,488.4"/>
					<path class="st19" d="M410.6,473.7l-78.8-12.1c-0.7-1.7-1.4-2.8-2-2.8l78.8,12.1C409.2,470.9,409.9,471.9,410.6,473.7"/>
				</g>
			</g>
			<g class="st0">
				<defs>
					<path id="SVGID_13_" class="st0" d="M325.3,458.6c1.5-0.1,3-0.1,4.4,0.1l78.8,12.1c-1.5-0.2-2.9-0.2-4.4-0.1
						c-1.9,0.1-3.8,0.4-5.9,0.8c0,0-0.1,0-0.1,0c-26.3-4-52.6-8-78.8-12.1c0,0,0.1,0,0.1,0C321.5,459.1,323.4,458.8,325.3,458.6z"/>
				</defs>
				<clipPath id="SVGID_14_">
					<use xlink:href="#SVGID_13_"  style="overflow:visible;"/>
				</clipPath>
				<g class="st20">
					<path class="st21" d="M395.4,471.9l-78.8-12.1c1-0.1,2-0.3,2.9-0.4c1-0.2,2.1-0.3,3.1-0.5l78.8,12.1c-1,0.1-2,0.3-3.1,0.5
						C397.3,471.6,396.4,471.8,395.4,471.9"/>
					<path class="st22" d="M401.4,471l-78.8-12.1c0.9-0.1,1.9-0.2,2.8-0.3c1.5-0.1,2.9-0.1,4.3,0.1l78.8,12.1
						c-1.4-0.2-2.9-0.2-4.3-0.1C403.3,470.8,402.3,470.9,401.4,471"/>
					<path class="st23" d="M408.5,470.8l-78.8-12.1c0,0,0.1,0,0.1,0L408.5,470.8C408.6,470.8,408.5,470.8,408.5,470.8"/>
				</g>
			</g>
			<g class="st0">
				<defs>
					<path id="SVGID_15_" class="st0" d="M319.4,459.4c0.2,0,0.4,0.1,0.6,0.1c0.3,0.1,0.8,0.1,1.2,0.2c0.2,0,0.4,0.1,0.6,0.1
						c0.8,0.1,1.7,0.3,2.5,0.4c1.6,0.2,3.2,0.5,4.8,0.7c23.1,3.5,46.1,7.1,69.2,10.6c-0.4,0.1-0.9,0.1-1.3,0.2
						c-26.3-4-52.6-8-78.8-12.1C318.5,459.5,318.9,459.5,319.4,459.4z"/>
				</defs>
				<clipPath id="SVGID_16_">
					<use xlink:href="#SVGID_15_"  style="overflow:visible;"/>
				</clipPath>
				<g class="st24">
					<path class="st21" d="M395.4,471.9l-78.8-12.1c1-0.1,2-0.3,2.9-0.4c1-0.2,2.1-0.3,3.1-0.5l78.8,12.1c-1,0.1-2,0.3-3.1,0.5
						C397.3,471.6,396.4,471.8,395.4,471.9"/>
				</g>
			</g>
			<g class="st0">
				<defs>
					<path id="SVGID_17_" class="st0" d="M318.1,459.6c0.1,0,0.3,0.1,0.5,0.1c0.7,0.1,1.4,0.2,2,0.3c0.5,0.1,1.1,0.2,1.6,0.2
						c1.4,0.2,2.8,0.4,4.1,0.6c23.5,3.6,47,7.2,70.6,10.8c-0.1,0-0.2,0-0.2,0c-26.3-4-52.6-8-78.8-12.1
						C317.9,459.6,318,459.6,318.1,459.6z"/>
				</defs>
				<clipPath id="SVGID_18_">
					<use xlink:href="#SVGID_17_"  style="overflow:visible;"/>
				</clipPath>
				<g class="st25">
					<path class="st21" d="M395.4,471.9l-78.8-12.1c1-0.1,2-0.3,2.9-0.4c1-0.2,2.1-0.3,3.1-0.5l78.8,12.1c-1,0.1-2,0.3-3.1,0.5
						C397.3,471.6,396.4,471.8,395.4,471.9"/>
				</g>
			</g>
			<g class="st0">
				<defs>
					<path id="SVGID_19_" class="st0" d="M317.8,459.6c0.3,0,0.6,0.1,0.8,0.1c0.8,0.1,1.5,0.2,2.3,0.3c0.1,0,0.3,0,0.5,0.1
						c1.2,0.2,2.4,0.4,3.5,0.5c23.9,3.7,47.8,7.3,71.8,11c-0.5,0.1-0.9,0.1-1.4,0.2c-26.3-4-52.6-8-78.8-12.1
						C316.9,459.8,317.4,459.7,317.8,459.6z"/>
				</defs>
				<clipPath id="SVGID_20_">
					<use xlink:href="#SVGID_19_"  style="overflow:visible;"/>
				</clipPath>
				<g class="st26">
					<path class="st22" d="M385.2,472.1L306.4,460c2.3,0.3,4.6,0.3,6.7,0.2c1.2-0.1,2.3-0.2,3.4-0.4l78.8,12.1
						c-1.1,0.2-2.3,0.3-3.4,0.4C389.8,472.4,387.6,472.4,385.2,472.1"/>
					<path class="st21" d="M395.4,471.9l-78.8-12.1c1-0.1,2-0.3,2.9-0.4c1-0.2,2.1-0.3,3.1-0.5l78.8,12.1c-1,0.1-2,0.3-3.1,0.5
						C397.3,471.6,396.4,471.8,395.4,471.9"/>
				</g>
			</g>
			<g class="st0">
				<defs>
					<path id="SVGID_21_" class="st0" d="M316.4,459.8c0.1,0,0.2,0,0.3,0c0.7,0.1,1.4,0.2,2.1,0.3c0.8,0.1,1.6,0.2,2.3,0.4
						c24.7,3.8,49.5,7.6,74.2,11.4c-0.1,0-0.1,0-0.2,0c-26.3-4-52.6-8-78.8-12.1C316.3,459.9,316.4,459.9,316.4,459.8z"/>
				</defs>
				<clipPath id="SVGID_22_">
					<use xlink:href="#SVGID_21_"  style="overflow:visible;"/>
				</clipPath>
				<g class="st27">
					<path class="st22" d="M385.2,472.1L306.4,460c2.3,0.3,4.6,0.3,6.7,0.2c1.2-0.1,2.3-0.2,3.4-0.4l78.8,12.1
						c-1.1,0.2-2.3,0.3-3.4,0.4C389.8,472.4,387.6,472.4,385.2,472.1"/>
				</g>
			</g>
			<g class="st0">
				<defs>
					<path id="SVGID_23_" class="st0" d="M316.3,459.9c0.2,0,0.5,0.1,0.7,0.1c0.8,0.1,1.5,0.2,2.3,0.3c1,0.2,2,0.3,3,0.5
						c24.3,3.7,48.6,7.4,72.9,11.2c-0.5,0.1-1,0.1-1.5,0.2c-26.3-4-52.6-8-78.8-12.1C315.3,460,315.8,459.9,316.3,459.9z"/>
				</defs>
				<clipPath id="SVGID_24_">
					<use xlink:href="#SVGID_23_"  style="overflow:visible;"/>
				</clipPath>
				<g class="st28">
					<path class="st22" d="M385.2,472.1L306.4,460c2.3,0.3,4.6,0.3,6.7,0.2c1.2-0.1,2.3-0.2,3.4-0.4l78.8,12.1
						c-1.1,0.2-2.3,0.3-3.4,0.4C389.8,472.4,387.6,472.4,385.2,472.1"/>
				</g>
			</g>
			<g class="st0">
				<defs>
					<path id="SVGID_25_" class="st0" d="M314.8,460c0.2,0,0.4,0.1,0.6,0.1c0.1,0,0.3,0,0.4,0.1c0.1,0,0.2,0,0.2,0
						c0.1,0,0.3,0,0.4,0.1c0.6,0.1,1.1,0.2,1.7,0.3c25.1,3.9,50.3,7.7,75.4,11.6c0,0-0.1,0-0.1,0c-26.3-4-52.6-8-78.8-12.1
						C314.7,460.1,314.8,460.1,314.8,460z"/>
				</defs>
				<clipPath id="SVGID_26_">
					<use xlink:href="#SVGID_25_"  style="overflow:visible;"/>
				</clipPath>
				<g class="st29">
					<path class="st22" d="M385.2,472.1L306.4,460c2.3,0.3,4.6,0.3,6.7,0.2c1.2-0.1,2.3-0.2,3.4-0.4l78.8,12.1
						c-1.1,0.2-2.3,0.3-3.4,0.4C389.8,472.4,387.6,472.4,385.2,472.1"/>
				</g>
			</g>
			<g class="st0">
				<defs>
					<path id="SVGID_27_" class="st0" d="M314.7,460.1c0.2,0,0.4,0.1,0.6,0.1c0.2,0,0.4,0.1,0.6,0.1c0.4,0.1,0.9,0.1,1.3,0.2
						c0.8,0.1,1.6,0.3,2.5,0.4c24.6,3.8,49.3,7.5,73.9,11.3c-0.5,0.1-1,0.1-1.5,0.1c-26.3-4-52.6-8-78.8-12.1
						C313.7,460.2,314.2,460.1,314.7,460.1z"/>
				</defs>
				<clipPath id="SVGID_28_">
					<use xlink:href="#SVGID_27_"  style="overflow:visible;"/>
				</clipPath>
				<g class="st30">
					<path class="st22" d="M385.2,472.1L306.4,460c2.3,0.3,4.6,0.3,6.7,0.2c1.2-0.1,2.3-0.2,3.4-0.4l78.8,12.1
						c-1.1,0.2-2.3,0.3-3.4,0.4C389.8,472.4,387.6,472.4,385.2,472.1"/>
				</g>
			</g>
			<g class="st0">
				<defs>
					<path id="SVGID_29_" class="st0" d="M313.1,460.2c0.2,0,0.3,0,0.5,0.1c0.1,0,0.2,0,0.3,0c0,0,0.1,0,0.2,0c0.1,0,0.2,0,0.3,0.1
						c0.1,0,0.2,0,0.3,0.1c0.1,0,0.2,0,0.3,0.1c0.2,0,0.4,0.1,0.6,0.1c25.4,3.9,50.9,7.8,76.3,11.7c0,0,0,0-0.1,0c0,0,0,0,0,0
						c-26.2-4-52.4-8-78.7-12c26.2,4,52.4,8,78.7,12c-2.2,0.2-4.6,0.1-7.1-0.2L306,460C308.5,460.3,310.8,460.4,313.1,460.2
						C313.1,460.2,313.1,460.2,313.1,460.2z"/>
				</defs>
				<clipPath id="SVGID_30_">
					<use xlink:href="#SVGID_29_"  style="overflow:visible;"/>
				</clipPath>
				<g class="st31">
					<path class="st23" d="M384.8,472L306,460c0.1,0,0.3,0,0.4,0.1l78.8,12.1C385.1,472.1,385,472.1,384.8,472"/>
					<path class="st22" d="M385.2,472.1L306.4,460c2.3,0.3,4.6,0.3,6.7,0.2c1.2-0.1,2.3-0.2,3.4-0.4l78.8,12.1
						c-1.1,0.2-2.3,0.3-3.4,0.4C389.8,472.4,387.6,472.4,385.2,472.1"/>
				</g>
			</g>
			<g class="st0">
				<defs>
					<path id="SVGID_31_" class="st0" d="M337.7,701.5c26.3,4,52.6,8,78.8,12.1c-0.4,2.1-0.8,4.2-1.2,6.2
						c-11.6,57.9-63.5,167.8-105.1,171c-26.3-4-52.6-8-78.8-12.1c41.5-3.3,93.5-113.1,105.1-171
						C336.9,705.7,337.3,703.6,337.7,701.5z"/>
				</defs>
				<clipPath id="SVGID_32_">
					<use xlink:href="#SVGID_31_"  style="overflow:visible;"/>
				</clipPath>
				<g class="st32">
					<path class="st33" d="M306.1,890.7l-78.8-12.1c1.4,0.2,2.7,0.3,4,0.2c0.6,0,1.1-0.1,1.7-0.2l78.8,12.1
						c-0.6,0.1-1.1,0.1-1.7,0.2C308.8,891,307.4,890.9,306.1,890.7"/>
					<path class="st34" d="M311.8,890.7l-78.8-12.1c2.4-0.3,4.8-1,7.2-2l78.8,12.1C316.6,889.7,314.2,890.4,311.8,890.7"/>
					<path class="st9" d="M319,888.7l-78.8-12.1c3.5-1.4,7.1-3.5,10.7-6.1l78.8,12.1C326.1,885.2,322.5,887.3,319,888.7"/>
					<path class="st35" d="M329.7,882.6l-78.8-12.1c36.9-27.1,75.8-113.6,85.6-162.8c0.2-1.2,0.5-2.3,0.7-3.5l78.8,12.1
						c-0.2,1.2-0.4,2.3-0.7,3.5C405.5,769,366.6,855.5,329.7,882.6"/>
					<path class="st9" d="M416,716.4l-78.8-12.1c2.9-15,5-29.7,6.4-43.7l78.8,12.1C421,686.7,418.9,701.4,416,716.4"/>
				</g>
			</g>
			<g class="st0">
				<defs>
					<path id="SVGID_33_" class="st0" d="M231.2,878.8c0.1,0,0.1,0,0.2,0c26.3,4,52.6,8,78.8,12.1c-0.1,0-0.1,0-0.2,0
						c-1.3,0.1-2.6,0-4-0.2l-78.8-12.1C228.6,878.8,229.9,878.9,231.2,878.8z"/>
				</defs>
				<clipPath id="SVGID_34_">
					<use xlink:href="#SVGID_33_"  style="overflow:visible;"/>
				</clipPath>
				<g class="st36">
					<path class="st33" d="M306.1,890.7l-78.8-12.1c1.4,0.2,2.7,0.3,4,0.2c0.6,0,1.1-0.1,1.7-0.2l78.8,12.1
						c-0.6,0.1-1.1,0.1-1.7,0.2C308.8,891,307.4,890.9,306.1,890.7"/>
				</g>
			</g>
			<g class="st0">
				<defs>
					<path id="SVGID_35_" class="st0" d="M384.8,472L306,460c-7.5-1.1-16.2-5.6-26.9-18.3l78.8,12.1
						C368.6,466.5,377.3,470.9,384.8,472z"/>
				</defs>
				<clipPath id="SVGID_36_">
					<use xlink:href="#SVGID_35_"  style="overflow:visible;"/>
				</clipPath>
				<g class="st37">
					<path class="st19" d="M384.8,472L306,460c-7.5-1.1-16.2-5.6-26.9-18.3l78.8,12.1C368.6,466.5,377.3,470.9,384.8,472"/>
				</g>
			</g>
			<g class="st0">
				<defs>
					<path id="SVGID_37_" class="st0" d="M268.5,377.4l78.8,12.1c28.4,4.4,56.1,15.5,81.2,33.5c0.9,0.7,1.9,1.4,2.8,2.1L352.5,413
						c-1-0.7-1.9-1.4-2.8-2.1C324.5,392.9,296.9,381.7,268.5,377.4z"/>
				</defs>
				<clipPath id="SVGID_38_">
					<use xlink:href="#SVGID_37_"  style="overflow:visible;"/>
				</clipPath>
				<g class="st38">
					<path class="st39" d="M431.3,425.1L352.5,413c-1-0.7-1.9-1.4-2.8-2.1c-25.1-18.1-52.7-29.2-81.2-33.5l78.8,12.1
						c28.4,4.4,56.1,15.5,81.2,33.5C429.4,423.7,430.3,424.3,431.3,425.1"/>
				</g>
			</g>
			<g class="st0">
				<defs>
					<path id="SVGID_39_" class="st0" d="M296.2,691.7l-78.8-12.1c2.2,0.3,4.4,0.5,6.5,0.3c37.7-3,108.4-95.9,115.8-127.8l78.8,12.1
						C411.2,596.1,340.4,689,302.7,692C300.6,692.2,298.5,692.1,296.2,691.7z"/>
				</defs>
				<clipPath id="SVGID_40_">
					<use xlink:href="#SVGID_39_"  style="overflow:visible;"/>
				</clipPath>
				<g class="st40">
					<path class="st19" d="M296.2,691.7l-78.8-12.1c0.1,0,0.3,0,0.4,0.1l78.8,12.1C296.5,691.8,296.4,691.7,296.2,691.7"/>
					<path class="st18" d="M296.7,691.8l-78.8-12.1c2.1,0.3,4.1,0.4,6.1,0.2c0.6,0,1.2-0.1,1.8-0.2l78.8,12.1
						c-0.6,0.1-1.2,0.2-1.8,0.2C300.8,692.2,298.7,692.1,296.7,691.8"/>
					<path class="st17" d="M304.5,691.8l-78.8-12.1c2.7-0.4,5.5-1.2,8.4-2.4l78.8,12.1C310,690.6,307.2,691.4,304.5,691.8"/>
					<path class="st16" d="M312.9,689.5l-78.8-12.1c5.7-2.3,11.7-5.9,18.1-10.5l78.8,12.1C324.6,683.6,318.5,687.2,312.9,689.5"/>
					<path class="st15" d="M331,678.9l-78.8-12.1c37.2-27.3,81.8-89.7,87.6-114.7l78.8,12.1C412.8,589.2,368.1,651.6,331,678.9"/>
				</g>
			</g>
			<g class="st0">
				<defs>
					<path id="SVGID_41_" class="st0" d="M372.7,954.7c0.5-0.1,1.2,0.2,1.7,0.3c3.7,0.6,7.4,1.1,11.2,1.7c0.6,0.1,1.4,0.2,1.9,0.3
						c4.9,0.8,9.9,1.5,14.8,2.3c16.4,2.5,32.8,5,49.2,7.5c-25.7,12.1-78.6,33.6-139.2,38.5c-1.3,0.1-2.6,0.2-3.9,0.3
						c-35.5,2.5-68.1-0.1-94.8-4.1l-78.8-12.1c26.7,4.1,59.3,6.6,94.8,4.1c1.3-0.1,2.6-0.2,3.9-0.3
						C294.1,988.3,347,966.8,372.7,954.7z"/>
				</defs>
				<clipPath id="SVGID_42_">
					<use xlink:href="#SVGID_41_"  style="overflow:visible;"/>
				</clipPath>
				<g class="st41">
					<path class="st42" d="M213.7,1001.4l-78.8-12.1c2.2,0.3,4.5,0.7,6.8,1l78.8,12.1C218.2,1002,215.9,1001.7,213.7,1001.4"/>
					<path class="st33" d="M220.5,1002.4l-78.8-12.1c25.3,3.5,55.4,5.4,87.9,3.1c1.3-0.1,2.6-0.2,3.9-0.3c6.3-0.5,12.5-1.2,18.5-2
						l78.8,12.1c-6.1,0.8-12.3,1.5-18.5,2c-1.3,0.1-2.6,0.2-3.9,0.3C275.9,1007.8,245.9,1005.8,220.5,1002.4"/>
					<path class="st34" d="M330.8,1003.2L252,991.1c37.3-5.1,70.7-15.8,95.2-25.5l78.8,12.1C401.5,987.4,368.2,998.1,330.8,1003.2"
						/>
					<path class="st9" d="M426,977.8l-78.8-12.1c12-4.8,21.9-9.3,29.1-12.7l78.8,12.1C448,968.5,438.1,973,426,977.8"/>
				</g>
			</g>
			<g class="st0">
				<defs>
					<path id="SVGID_43_" class="st0" d="M242.7,967.1L163.8,955c22.3,3.4,45.2,5.5,64.4,4.2c1.7-0.1,3.3-0.3,4.9-0.4
						c45.6-4.8,116-32.1,143.9-43.4l78.8,12.1C428,938.7,357.6,966,312,970.8c-1.6,0.2-3.2,0.3-4.9,0.4
						C287.9,972.6,264.9,970.5,242.7,967.1z"/>
				</defs>
				<clipPath id="SVGID_44_">
					<use xlink:href="#SVGID_43_"  style="overflow:visible;"/>
				</clipPath>
				<g class="st43">
					<path class="st44" d="M242.7,967.1L163.8,955c2.5,0.4,5.1,0.8,7.6,1.1l78.8,12.1C247.8,967.8,245.2,967.5,242.7,967.1"/>
					<path class="st45" d="M250.3,968.2l-78.8-12.1c19.8,2.7,39.8,4.2,56.7,3c1.7-0.1,3.3-0.3,4.9-0.4c1.8-0.2,3.5-0.4,5.4-0.7
						l78.8,12.1c-1.8,0.2-3.6,0.5-5.4,0.7c-1.6,0.2-3.2,0.3-4.9,0.4C290.1,972.4,270.1,970.9,250.3,968.2"/>
					<path class="st46" d="M317.3,970.1l-78.8-12.1c40.2-5.5,96.3-26,127.4-38.3l78.8,12.1C413.7,944.1,357.5,964.6,317.3,970.1"/>
					<path class="st47" d="M444.7,931.8l-78.8-12.1c4.2-1.6,7.9-3.1,11.1-4.4l78.8,12.1C452.6,928.7,448.9,930.2,444.7,931.8"/>
				</g>
			</g>
			<g class="st0">
				<defs>
					<path id="SVGID_45_" class="st0" d="M236.1,152.5l78.8,12.1c8.1,1.2,16,4.4,23.2,9.5c0.2,0.2,0.5,0.3,0.7,0.5L260,162.5
						c-0.3-0.2-0.5-0.4-0.7-0.5C252.1,156.9,244.2,153.7,236.1,152.5z"/>
				</defs>
				<clipPath id="SVGID_46_">
					<use xlink:href="#SVGID_45_"  style="overflow:visible;"/>
				</clipPath>
				<g class="st48">
					<path class="st49" d="M338.9,174.5L260,162.5c-0.3-0.2-0.5-0.4-0.7-0.5c-7.2-5.1-15.1-8.2-23.2-9.5l78.8,12.1
						c8.1,1.2,16,4.4,23.2,9.5C338.4,174.2,338.6,174.4,338.9,174.5"/>
				</g>
			</g>
			<g class="st0">
				<defs>
					<path id="SVGID_47_" class="st0" d="M168.4,992l-78.8-12.1c0.1-1.1,0.3-2.1,0.4-3.2l78.8,12.1
						C168.7,989.9,168.5,990.9,168.4,992z"/>
				</defs>
				<clipPath id="SVGID_48_">
					<use xlink:href="#SVGID_47_"  style="overflow:visible;"/>
				</clipPath>
				<g class="st50">
					<path class="st47" d="M168.4,992l-78.8-12.1c0.1-1.1,0.3-2.1,0.4-3.2l78.8,12.1C168.7,989.9,168.5,990.9,168.4,992"/>
				</g>
			</g>
			<g class="st0">
				<defs>
					<path id="SVGID_49_" class="st0" d="M168.5,990.9l-78.8-12.1c0.1-0.7,0.2-1.4,0.3-2.2l78.8,12.1
						C168.7,989.5,168.6,990.2,168.5,990.9z"/>
				</defs>
				<clipPath id="SVGID_50_">
					<use xlink:href="#SVGID_49_"  style="overflow:visible;"/>
				</clipPath>
				<g class="st51">
					<path class="st9" d="M168.5,990.9l-78.8-12.1c0.1-0.7,0.2-1.4,0.3-2.2l78.8,12.1C168.7,989.5,168.6,990.2,168.5,990.9"/>
				</g>
			</g>
			<g>
				<path class="st5" d="M168.5,990.9c0.1-0.7,0.2-1.4,0.3-2.2C168.7,989.5,168.6,990.2,168.5,990.9z"/>
			</g>
			<g class="st0">
				<defs>
					<path id="SVGID_51_" class="st0" d="M227.9,375.7c13.6-0.9,27.2-0.4,40.6,1.6l78.8,12.1c-13.4-2.1-27-2.6-40.6-1.6
						c-16.2,1.1-32.5,4.4-48.3,9.8c-24.2-3.7-48.3-7.4-72.5-11.1c-1.1-0.2-2.3-0.3-3.4-0.5c-0.1,0-0.3,0-0.4-0.1
						c-0.3,0-0.6-0.1-0.9-0.1c-0.4-0.1-0.8-0.1-1.2-0.2c-0.1,0-0.3-0.1-0.4-0.1C195.5,380.1,211.7,376.9,227.9,375.7z"/>
				</defs>
				<clipPath id="SVGID_52_">
					<use xlink:href="#SVGID_51_"  style="overflow:visible;"/>
				</clipPath>
				<g class="st52">
					<path class="st17" d="M248.9,401.1L170,389c15-5.9,30.3-9.9,45.6-12l78.8,12.1C279.1,391.2,263.8,395.2,248.9,401.1"/>
					<path class="st18" d="M294.5,389.1L215.7,377c4.1-0.6,8.1-1,12.2-1.3c12.6-0.9,25.3-0.5,37.8,1.2l78.8,12.1
						c-12.5-1.7-25.2-2.1-37.8-1.2C302.7,388.1,298.6,388.5,294.5,389.1"/>
					<path class="st19" d="M344.6,389.1L265.7,377c0.9,0.1,1.8,0.3,2.8,0.4l78.8,12.1C346.4,389.3,345.5,389.2,344.6,389.1"/>
				</g>
			</g>
			<g>
				<polygon class="st53" points="301.7,76.1 222.9,64 222.9,63.9 301.7,76 				"/>
			</g>
			<g>
				<polygon class="st54" points="301.7,76 306.1,87.8 301.7,76.1 				"/>
			</g>
			<g>
				<polygon class="st55" points="306.1,87.8 227.3,75.7 222.9,64 301.7,76.1 				"/>
			</g>
			<g class="st0">
				<defs>
					<path id="SVGID_53_" class="st0" d="M242.7,967.1L163.8,955c-30.1-4.6-59-11.7-75.1-15.9l78.8,12.1
						C183.7,955.4,212.5,962.5,242.7,967.1z"/>
				</defs>
				<clipPath id="SVGID_54_">
					<use xlink:href="#SVGID_53_"  style="overflow:visible;"/>
				</clipPath>
				<g class="st56">
					<path class="st42" d="M242.7,967.1L163.8,955c-30.1-4.6-59-11.7-75.1-15.9l78.8,12.1C183.7,955.4,212.5,962.5,242.7,967.1"/>
				</g>
			</g>
			<g>
				<path class="st57" d="M455.8,927.4c-0.6,5.8-1.1,11.3-1.3,16.6c-0.3,8.7-0.1,15,0.7,21.1c-24.1,11.7-79.2,35.1-142.8,40.2
					c-1.3,0.1-2.6,0.2-3.9,0.3c-59.7,4.2-111.1-5.9-140.1-13.5c0.1-1.1,0.3-2.1,0.4-3.2c0.5-5.1,0.5-5.6,0.5-6.1
					c0.5-9.9-0.3-20.3-1.8-31.5c28.1,7.4,94.5,23.2,139.5,20.1c1.7-0.1,3.3-0.3,4.9-0.4C357.6,966,428,938.7,455.8,927.4z"/>
			</g>
			<g class="st0">
				<defs>
					<path id="SVGID_55_" class="st0" d="M168.8,988.8l-78.8-12.1c0.5-5.1,0.5-5.6,0.5-6.1c0.5-9.9-0.3-20.3-1.8-31.5l78.8,12.1
						c1.4,11.3,2.3,21.7,1.8,31.5C169.3,983.2,169.2,983.7,168.8,988.8z"/>
				</defs>
				<clipPath id="SVGID_56_">
					<use xlink:href="#SVGID_55_"  style="overflow:visible;"/>
				</clipPath>
				<g class="st58">
					<path class="st47" d="M168.8,988.8l-78.8-12.1c0.5-5.1,0.5-5.6,0.5-6.1c0.1-2.4,0.2-4.9,0.2-7.4l78.8,12.1c0,2.5,0,4.9-0.2,7.4
						C169.3,983.2,169.2,983.7,168.8,988.8"/>
					<path class="st46" d="M169.5,975.3l-78.8-12.1c-0.1-7.7-0.8-15.7-1.9-24.2l78.8,12.1C168.6,959.6,169.4,967.6,169.5,975.3"/>
				</g>
			</g>
			<g class="st0">
				<defs>
					<path id="SVGID_57_" class="st0" d="M191.6,1058.9l-78.8-12.1c-40-6.1-28.1-27.4-23.1-68l78.8,12.1
						C163.5,1031.5,151.7,1052.8,191.6,1058.9z"/>
				</defs>
				<clipPath id="SVGID_58_">
					<use xlink:href="#SVGID_57_"  style="overflow:visible;"/>
				</clipPath>
				<g class="st59">
					<path class="st42" d="M191.6,1058.9l-78.8-12.1c-15.9-2.4-23.6-7.3-26.8-14.7l78.8,12.1C168,1051.6,175.7,1056.5,191.6,1058.9"
						/>
					<path class="st33" d="M164.8,1044.2L86,1032.1c-0.6-1.4-1-2.9-1.4-4.5l78.8,12.1C163.8,1041.3,164.2,1042.8,164.8,1044.2"/>
					<path class="st34" d="M163.5,1039.6l-78.8-12.1c-0.4-1.9-0.5-4-0.6-6.2l78.8,12.1C163,1035.7,163.1,1037.7,163.5,1039.6"/>
					<path class="st9" d="M162.9,1033.5l-78.8-12.1c-0.1-10.7,3.4-24.8,5.6-42.5l78.8,12.1C166.3,1008.7,162.8,1022.8,162.9,1033.5"
						/>
				</g>
			</g>
			<g>
				<path class="st60" d="M455.1,965c8.6,64,36.5,76.8-142.3,91.1c-8.9,0.7-17.2,1.3-25.1,1.9c-148.7,10.4-126.6-7.5-119.2-67.1
					c0,0.4-0.1,0.7-0.1,1.1c29,7.7,80.4,17.7,140.1,13.5c1.3-0.1,2.6-0.2,3.9-0.3C375.9,1000.1,431,976.7,455.1,965z"/>
			</g>
			<g class="st0">
				<defs>
					<path id="SVGID_59_" class="st0" d="M236.1,152.5l78.8,12.1c-3.9-0.6-7.9-0.8-11.8-0.5c-12.5,0.9-24.9,6.1-35.6,15.4
						l-78.8-12.1c10.7-9.4,23.2-14.6,35.6-15.4C228.2,151.7,232.2,151.9,236.1,152.5z"/>
				</defs>
				<clipPath id="SVGID_60_">
					<use xlink:href="#SVGID_59_"  style="overflow:visible;"/>
				</clipPath>
				<g class="st61">
					<path class="st62" d="M267.5,179.5l-78.8-12.1c1.5-1.3,3.1-2.6,4.7-3.7l78.8,12.1C270.5,176.9,269,178.2,267.5,179.5"/>
					<path class="st63" d="M272.1,175.7l-78.8-12.1c4.5-3.3,9.2-5.9,14.1-7.8l78.8,12.1C281.4,169.8,276.6,172.5,272.1,175.7"/>
					<path class="st64" d="M286.2,167.9l-78.8-12.1c4.4-1.7,8.8-2.9,13.3-3.5l78.8,12.1C295,165,290.6,166.2,286.2,167.9"/>
					<path class="st65" d="M299.5,164.4l-78.8-12.1c1.2-0.2,2.4-0.3,3.6-0.4c3.7-0.3,7.4-0.1,11,0.4l78.8,12.1
						c-3.7-0.5-7.3-0.6-11-0.4C301.9,164.1,300.7,164.3,299.5,164.4"/>
					<path class="st39" d="M314.1,164.4l-78.8-12.1c0.3,0,0.5,0.1,0.8,0.1l78.8,12.1C314.7,164.5,314.4,164.5,314.1,164.4"/>
				</g>
			</g>
			<g>
				<polygon class="st66" points="266.5,180.3 187.7,168.2 222.8,63.9 301.7,76 				"/>
			</g>
			<g>
				<path class="st67" d="M301.7,76l4.5,11.8l32.7,86.8c-0.3-0.2-0.5-0.4-0.7-0.5c-10.6-7.5-22.8-10.8-35-10
					c-12.5,0.9-24.9,6.1-35.6,15.4c-0.3,0.3-0.6,0.6-0.9,0.8L301.7,76z"/>
			</g>
			<g class="st0">
				<defs>
					<path id="SVGID_61_" class="st0" d="M122.7,576.2c26.3,4,52.6,8,78.8,12.1c8.2,33.4,59,97.9,94.9,103.4l-78.8-12.1
						C181.7,674.1,130.9,609.6,122.7,576.2z"/>
				</defs>
				<clipPath id="SVGID_62_">
					<use xlink:href="#SVGID_61_"  style="overflow:visible;"/>
				</clipPath>
				<g class="st68">
					<path class="st23" d="M296.4,691.7l-78.8-12.1c-32.1-4.9-76.3-57.3-91-92.1l78.8,12.1C220.1,634.4,264.3,686.8,296.4,691.7"/>
					<path class="st22" d="M205.4,599.6l-78.8-12.1c-2.1-4.9-3.6-9.4-4.3-13.5l78.8,12.1C201.8,590.1,203.3,594.7,205.4,599.6"/>
				</g>
			</g>
			<g class="st0">
				<defs>
					<path id="SVGID_63_" class="st0" d="M121.3,564.7c26.3,4,52.6,8,78.8,12.1c0.2,3.6,0.4,6.6,0.8,8.8c0.2,0.9,0.4,1.8,0.6,2.8
						c-26.3-4-52.6-8-78.8-12.1c-0.2-1-0.4-1.9-0.6-2.8C121.7,571.3,121.4,568.3,121.3,564.7z"/>
				</defs>
				<clipPath id="SVGID_64_">
					<use xlink:href="#SVGID_63_"  style="overflow:visible;"/>
				</clipPath>
				<g class="st69">
					<path class="st22" d="M205.4,599.6l-78.8-12.1c-2.1-4.9-3.6-9.4-4.3-13.5l78.8,12.1C201.8,590.1,203.3,594.7,205.4,599.6"/>
					<path class="st21" d="M201.1,586.1l-78.8-12.1c0-0.2-0.1-0.4-0.1-0.6c-0.6-3.6-1-9.4-1-16.4l78.8,12.1c0.1,7,0.4,12.9,1,16.4
						C201,585.7,201,585.9,201.1,586.1"/>
				</g>
			</g>
			<g class="st0">
				<defs>
					<path id="SVGID_65_" class="st0" d="M208.1,464.1c23.4-1.6,46.9-4.1,71-22.4l78.8,12.1c-24.2,18.3-47.6,20.8-71,22.4
						c-1.3,0.1-2.7,0.2-4,0.3c-1.2,0.1-2.3,0.2-3.5,0.2c-24,1.7-47.9,4.1-72.6,23.4c-19.4-3-38.8-5.9-58.2-8.9
						c-3.7-0.6-7.4-1.1-11.1-1.7c-0.4-0.1-1-0.2-1.4-0.2c-0.8-0.1-2-0.3-2.8-0.4c-0.8-0.1-1.9-0.3-2.7-0.4c-0.8-0.1-1.8-0.3-2.6-0.4
						c24.7-19.2,48.7-21.7,72.6-23.4c1.2-0.1,2.3-0.2,3.5-0.2C205.4,464.3,206.8,464.2,208.1,464.1z"/>
				</defs>
				<clipPath id="SVGID_66_">
					<use xlink:href="#SVGID_65_"  style="overflow:visible;"/>
				</clipPath>
				<g class="st70">
					<path class="st71" d="M203.9,506l-78.8-12.1c0.5-2.7,1.1-4.5,1.6-4.9c1.3-1.1,2.7-2.1,4-3.1l78.8,12.1c-1.3,1-2.7,2-4,3.1
						C205,501.5,204.4,503.3,203.9,506"/>
					<path class="st72" d="M209.6,498l-78.8-12.1c7.6-5.5,15.1-9.5,22.5-12.5l78.8,12.1C224.6,488.5,217.1,492.5,209.6,498"/>
					<path class="st21" d="M232.1,485.5l-78.8-12.1c9.4-3.7,18.7-5.7,27.9-7l78.8,12.1C250.7,479.8,241.4,481.8,232.1,485.5"/>
					<path class="st22" d="M260,478.5l-78.8-12.1c6.5-0.9,13-1.4,19.4-1.8c1.2-0.1,2.3-0.2,3.5-0.2c1.3-0.1,2.7-0.2,4-0.3
						c6.3-0.4,12.6-0.9,19-1.8l78.8,12.1c-6.3,0.9-12.7,1.4-19,1.8c-1.3,0.1-2.7,0.2-4,0.3c-1.2,0.1-2.3,0.2-3.5,0.2
						C273,477.2,266.5,477.7,260,478.5"/>
					<path class="st21" d="M305.9,474.4l-78.8-12.1c9.3-1.3,18.6-3.3,28-7l78.8,12.1C324.5,471.1,315.2,473.1,305.9,474.4"/>
					<path class="st72" d="M333.9,467.4L255,455.3c7.5-3,15-7,22.6-12.5l78.8,12.1C348.9,460.4,341.3,464.5,333.9,467.4"/>
					<path class="st71" d="M356.5,454.9l-78.8-12.1c0.5-0.4,1-0.7,1.5-1.1l78.8,12.1C357.5,454.1,357,454.5,356.5,454.9"/>
				</g>
			</g>
			<g class="st0">
				<defs>
					<path id="SVGID_67_" class="st0" d="M128,488c26.3,4,52.6,8,78.8,12.1c-0.4,0.3-0.9,0.7-1.3,1c-0.4,0.4-0.9,1.6-1.3,3.6
						c-26.3-4-52.6-8-78.8-12.1c0.4-2,0.9-3.2,1.3-3.6C127.1,488.7,127.5,488.3,128,488z"/>
				</defs>
				<clipPath id="SVGID_68_">
					<use xlink:href="#SVGID_67_"  style="overflow:visible;"/>
				</clipPath>
				<g class="st73">
					<path class="st71" d="M203.9,506l-78.8-12.1c0.5-2.7,1.1-4.5,1.6-4.9c1.3-1.1,2.7-2.1,4-3.1l78.8,12.1c-1.3,1-2.7,2-4,3.1
						C205,501.5,204.4,503.3,203.9,506"/>
				</g>
			</g>
			<g class="st0">
				<defs>
					<path id="SVGID_69_" class="st0" d="M125.4,492.6c26.3,4,52.6,8,78.8,12.1c0,0.1,0,0.2-0.1,0.2c-26.3-4-52.6-8-78.8-12.1
						C125.3,492.7,125.3,492.7,125.4,492.6z"/>
				</defs>
				<clipPath id="SVGID_70_">
					<use xlink:href="#SVGID_69_"  style="overflow:visible;"/>
				</clipPath>
				<g class="st74">
					<path class="st71" d="M203.9,506l-78.8-12.1c0.5-2.7,1.1-4.5,1.6-4.9c1.3-1.1,2.7-2.1,4-3.1l78.8,12.1c-1.3,1-2.7,2-4,3.1
						C205,501.5,204.4,503.3,203.9,506"/>
				</g>
			</g>
			<g class="st0">
				<defs>
					<path id="SVGID_71_" class="st0" d="M125.2,493.3c0-0.2,0.1-0.3,0.1-0.5c26.3,4,52.6,8,78.8,12.1c0,0.1-0.1,0.3-0.1,0.5
						C177.8,501.3,151.5,497.3,125.2,493.3z"/>
				</defs>
				<clipPath id="SVGID_72_">
					<use xlink:href="#SVGID_71_"  style="overflow:visible;"/>
				</clipPath>
				<g class="st75">
					<path class="st71" d="M203.9,506l-78.8-12.1c0.5-2.7,1.1-4.5,1.6-4.9c1.3-1.1,2.7-2.1,4-3.1l78.8,12.1c-1.3,1-2.7,2-4,3.1
						C205,501.5,204.4,503.3,203.9,506"/>
				</g>
			</g>
			<g class="st0">
				<defs>
					<path id="SVGID_73_" class="st0" d="M306.4,890.6l-78.8-12.1c-34.7-5.3-84.5-94.8-94.4-117.1c-7.3-16.5-14.8-45.5-19.8-76.8
						c-7-44-9.1-92.5,0.9-116.6c0.6-1.4,1.2-2.7,1.9-4l78.8,12.1c-0.7,1.2-1.3,2.6-1.9,4c-10,24.1-7.9,72.6-0.9,116.6
						c5,31.3,12.4,60.3,19.8,76.8C221.9,795.8,271.7,885.3,306.4,890.6z"/>
				</defs>
				<clipPath id="SVGID_74_">
					<use xlink:href="#SVGID_73_"  style="overflow:visible;"/>
				</clipPath>
				<g class="st76">
					<path class="st19" d="M306.4,890.6l-78.8-12.1c-34.7-5.3-84.5-94.8-94.4-117.1c-0.3-0.7-0.6-1.4-0.9-2.2l78.8,12.1
						c0.3,0.8,0.6,1.5,0.9,2.2C221.9,795.8,271.7,885.3,306.4,890.6"/>
					<path class="st18" d="M211.1,771.4l-78.8-12.1c-5.7-13.5-11.3-34.2-15.8-57.3l78.8,12.1C199.8,737.2,205.4,757.9,211.1,771.4"
						/>
					<path class="st17" d="M195.3,714L116.4,702c-1.1-5.6-2.1-11.4-3-17.2c-3.5-21.7-5.7-44.5-5.9-64.9l78.8,12.1
						c0.2,20.4,2.5,43.2,5.9,64.9C193.2,702.6,194.2,708.4,195.3,714"/>
					<path class="st16" d="M186.3,631.9l-78.8-12.1c-0.1-13.9,0.7-26.8,2.7-37.4l78.8,12.1C187,605.1,186.1,618,186.3,631.9"/>
					<path class="st15" d="M189,594.5l-78.8-12.1c1-5.4,2.4-10.2,4.1-14.3c0.6-1.4,1.2-2.7,1.9-4l78.8,12.1c-0.7,1.2-1.3,2.6-1.9,4
						C191.4,584.3,190,589.1,189,594.5"/>
				</g>
			</g>
			<g class="st0">
				<defs>
					<path id="SVGID_75_" class="st0" d="M113.4,684.7c21.8,3.4,57.2,8.8,78.8,12.1c-22.1,41-33.2,99.3-32.4,176.8
						c0.3,30.8,5,55.8,7.7,77.5l-78.8-12.1c-2.7-21.7-7.4-46.7-7.7-77.5C80.2,784.1,91.3,725.7,113.4,684.7z"/>
				</defs>
				<clipPath id="SVGID_76_">
					<use xlink:href="#SVGID_75_"  style="overflow:visible;"/>
				</clipPath>
				<g class="st77">
					<path class="st34" d="M167.6,951.1l-78.8-12.1c-2.7-21.7-7.4-46.7-7.7-77.4l78.8,12.1C160.2,904.5,164.8,929.4,167.6,951.1"/>
					<path class="st9" d="M159.8,873.8L81,861.7c0-0.1,0-0.1,0-0.2c-0.4-39.9,2.3-74.7,8.1-104.7l78.8,12.1
						c-5.8,30-8.5,64.8-8.1,104.7C159.8,873.7,159.8,873.7,159.8,873.8"/>
					<path class="st35" d="M167.9,768.9l-78.8-12.1c5.4-28.3,13.6-52.2,24.3-72.1l78.8,12.1C181.5,716.7,173.4,740.6,167.9,768.9"/>
				</g>
			</g>
			<g>
				<path class="st60" d="M307.1,971.2c-45,3.1-111.4-12.7-139.5-20.1c-2.7-21.7-7.4-46.7-7.7-77.5c-0.8-77.5,10.3-135.8,32.4-176.8
					c5,31.3,12.4,60.3,19.8,76.8c10.3,23.1,63.8,119.1,98,117.3c41.6-2.9,93.7-113,105.3-171c3.2-16.2,5.5-32.1,7.1-47.2
					c25.2,37.2,38.6,95.5,39.4,176.9c0.3,31.1-4,57-6.2,79.3c0-0.5,0.1-1,0.1-1.4C428,938.7,357.6,966,312,970.8
					C310.4,971,308.7,971.1,307.1,971.2z"/>
			</g>
			<g class="st0">
				<defs>
					<path id="SVGID_77_" class="st0" d="M125.2,493.3c26.3,4,52.6,8,78.8,12.1c-2.6,12.9-4.9,51.3-3.9,71.4
						c-26.3-4-52.6-8-78.8-12.1C120.3,544.6,122.6,506.2,125.2,493.3z"/>
				</defs>
				<clipPath id="SVGID_78_">
					<use xlink:href="#SVGID_77_"  style="overflow:visible;"/>
				</clipPath>
				<g class="st78">
					<path class="st21" d="M201.1,586.1l-78.8-12.1c0-0.2-0.1-0.4-0.1-0.6c-0.6-3.6-1-9.4-1-16.4l78.8,12.1c0.1,7,0.4,12.9,1,16.4
						C201,585.7,201,585.9,201.1,586.1"/>
					<path class="st72" d="M199.9,569.1L121.1,557c-0.2-20.6,1.7-51.1,4-63.1l78.8,12.1C201.6,517.9,199.7,548.5,199.9,569.1"/>
					<path class="st71" d="M203.9,506l-78.8-12.1c0.5-2.7,1.1-4.5,1.6-4.9c1.3-1.1,2.7-2.1,4-3.1l78.8,12.1c-1.3,1-2.7,2-4,3.1
						C205,501.5,204.4,503.3,203.9,506"/>
				</g>
			</g>
			<g>
				<path class="st79" d="M408.6,470.8c5.5,0.8,15.3,70.3,10,93.4C411.2,596.1,340.4,689,303,692c-36.8,2.6-95.9-72.1-102.1-106.5
					c-3-16.4,0.9-81.4,4.6-84.4c25.1-20.2,49.5-22.7,73.9-24.4c1.2-0.1,2.3-0.2,3.5-0.2c1.3-0.1,2.7-0.2,4-0.3
					c23.4-1.6,46.9-4.1,71-22.4c14.2,16.9,25,19.1,34,18.5c2.2-0.2,4.3-0.5,6.4-0.8c2-0.3,4-0.6,5.9-0.8
					C405.7,470.6,407.1,470.6,408.6,470.8z"/>
			</g>
			<g class="st0">
				<defs>
					<path id="SVGID_79_" class="st0" d="M195,576.2l-78.8-12.1c-0.8-8-1.2-18.4-2.7-28.2c-2-12.5-5.9-24.1-15.2-28.2
						c-13.7-6.1-9.4-38.5,2.7-74.9l78.8,12.1c-12.1,36.5-16.4,68.9-2.7,74.9c9.3,4.1,13.2,15.7,15.2,28.2
						C193.8,557.8,194.2,568.2,195,576.2z"/>
				</defs>
				<clipPath id="SVGID_80_">
					<use xlink:href="#SVGID_79_"  style="overflow:visible;"/>
				</clipPath>
				<g class="st80">
					<path class="st17" d="M195,576.2l-78.8-12.1c-0.8-8-1.2-18.4-2.7-28.2c-0.2-1.3-0.4-2.5-0.6-3.7l78.8,12.1
						c0.2,1.2,0.5,2.5,0.6,3.7C193.8,557.8,194.2,568.2,195,576.2"/>
					<path class="st18" d="M191.7,544.3l-78.8-12.1c-0.8-4.2-1.9-8.2-3.4-11.8l78.8,12.1C189.8,536.1,190.8,540.1,191.7,544.3"/>
					<path class="st19" d="M188.3,532.5l-78.8-12.1c-2.4-5.8-6-10.4-11.2-12.7c-2.8-1.3-4.9-3.6-6.3-6.9l78.8,12.1
						c1.4,3.3,3.4,5.7,6.3,6.9C182.3,522.1,185.8,526.7,188.3,532.5"/>
					<path class="st18" d="M170.8,512.9L92,500.8c-0.6-1.5-1.1-3.2-1.5-5l78.8,12.1C169.7,509.7,170.2,511.4,170.8,512.9"/>
					<path class="st17" d="M169.4,507.9l-78.8-12.1c-0.5-2.5-0.7-5.3-0.8-8.4l78.8,12.1C168.6,502.6,168.9,505.4,169.4,507.9"/>
					<path class="st16" d="M168.6,499.5l-78.8-12.1c-0.1-6.2,0.8-13.6,2.3-21.7l78.8,12.1C169.4,485.9,168.5,493.2,168.6,499.5"/>
					<path class="st15" d="M170.9,477.8l-78.8-12.1c1.9-10.1,5-21.3,8.9-32.9l78.8,12.1C176,456.5,172.9,467.7,170.9,477.8"/>
				</g>
			</g>
			<g class="st0">
				<defs>
					<path id="SVGID_81_" class="st0" d="M114.3,568.1c-0.6-6.3-1-12.7-1.1-19.2L192,561c0.1,6.5,0.4,12.9,1.1,19.2
						c-23.2-3.6-46.4-7.1-69.6-10.7l-9.1-1.4C114.3,568.1,114.3,568.1,114.3,568.1z"/>
				</defs>
				<clipPath id="SVGID_82_">
					<use xlink:href="#SVGID_81_"  style="overflow:visible;"/>
				</clipPath>
				<g class="st81">
					<path class="st21" d="M193.1,580.2l-78.8-12.1c-0.6-6.2-1-12.6-1.1-19.1l78.8,12.1C192.1,567.6,192.5,573.9,193.1,580.2"/>
					<path class="st72" d="M192,561.1L113.2,549c0,0,0-0.1,0-0.1L192,561.1C192,561,192,561.1,192,561.1"/>
				</g>
			</g>
			<g>
				<path class="st82" d="M428.5,423c10.8,40.1,3.3,75.8,3,77.7c-3.9,15.6-6.1,44.3-8.3,60.1c1.3,12.5,5,57.1-0.7,111.8
					c-1.6,15.1-3.8,31-7.1,47.2c-11.6,58-63.7,168.1-104.8,171c-34.7,1.8-88.2-94.2-98.5-117.3c-7.3-16.5-14.8-45.5-19.8-76.8
					c-7-44-9.1-92.5,0.9-116.6c0.6-1.4,1.2-2.7,1.9-4c-0.8-8-1.2-18.4-2.7-28.2c-2-12.5-5.9-24.1-15.2-28.2
					c-13.7-6.1-9.4-38.5,2.7-74.9c37.9-34.7,82.4-53.9,126.9-57C349.1,384.8,391.5,396.4,428.5,423z M418.6,564.3
					c5.4-23.2-4.5-92.6-10-93.4c-1.5-0.2-2.9-0.2-4.4-0.1c-1.9,0.1-3.8,0.4-5.9,0.8c-2,0.3-4.2,0.7-6.4,0.8c-9,0.6-19.8-1.6-34-18.5
					c-24.2,18.3-47.6,20.8-71,22.4c-1.3,0.1-2.7,0.2-4,0.3c-1.2,0.1-2.3,0.2-3.5,0.2c-24.4,1.7-48.8,4.2-73.9,24.4
					c-3.7,3-7.5,67.9-4.6,84.4c6.2,34.4,65.2,109.1,101.8,106.5C340.4,689,411.2,596.1,418.6,564.3"/>
			</g>
			<g>
				<path class="st79" d="M192,561c0-4.4,0-8.7,0.3-13c1.5,9.8,1.9,20.2,2.7,28.2c-0.7,1.2-1.3,2.6-1.9,4
					C192.5,573.9,192.1,567.5,192,561z"/>
			</g>
			<g class="st0">
				<defs>
					<path id="SVGID_83_" class="st0" d="M192,561l-78.8-12.1c0-4.4,0-8.7,0.3-13l78.8,12.1C192.1,552.3,192,556.6,192,561z"/>
				</defs>
				<clipPath id="SVGID_84_">
					<use xlink:href="#SVGID_83_"  style="overflow:visible;"/>
				</clipPath>
				<g class="st83">
					<path class="st72" d="M192,561l-78.8-12.1c0-4.4,0-8.7,0.3-13l78.8,12.1C192.1,552.3,192,556.6,192,561"/>
				</g>
			</g>
			<g class="st0">
				<defs>
					<path id="SVGID_85_" class="st0" d="M179.6,385.5c0.2,0,0.5,0.1,0.8,0.1c0.6,0.1,1.1,0.2,1.7,0.3c0.3,0,0.6,0.1,0.9,0.1
						c1.1,0.2,2.2,0.3,3.4,0.5c24,3.7,48.1,7.4,72.1,11c-22.3,7.5-43.9,19.2-64.1,35c-14.9-2.3-29.7-4.6-44.6-6.8
						c-9.9-1.5-19.8-3-29.7-4.6c-1.4-0.2-3.2-0.7-4.5-0.7C135.6,404.7,157.3,393.1,179.6,385.5z"/>
				</defs>
				<clipPath id="SVGID_86_">
					<use xlink:href="#SVGID_85_"  style="overflow:visible;"/>
				</clipPath>
				<g class="st84">
					<path class="st15" d="M179.8,444.9L101,432.8c6.6-6.1,13.5-11.7,20.5-16.8l78.8,12.1C193.3,433.2,186.5,438.8,179.8,444.9"/>
					<path class="st16" d="M200.3,428.1L121.4,416c15.5-11.4,31.8-20.4,48.6-27l78.8,12.1C232.1,407.7,215.8,416.7,200.3,428.1"/>
					<path class="st17" d="M248.9,401.1L170,389c15-5.9,30.3-9.9,45.6-12l78.8,12.1C279.1,391.2,263.8,395.2,248.9,401.1"/>
				</g>
			</g>
			<g class="st0">
				<defs>
					<path id="SVGID_87_" class="st0" d="M101,432.8c4.7-4.3,9.6-8.4,14.5-12.3c26.3,4,52.6,8,78.8,12.1c-4.9,3.9-9.8,8-14.5,12.3
						C156.2,441.2,124.6,436.4,101,432.8z"/>
				</defs>
				<clipPath id="SVGID_88_">
					<use xlink:href="#SVGID_87_"  style="overflow:visible;"/>
				</clipPath>
				<g class="st85">
					<path class="st15" d="M179.8,444.9L101,432.8c6.6-6.1,13.5-11.7,20.5-16.8l78.8,12.1C193.3,433.2,186.5,438.8,179.8,444.9"/>
				</g>
			</g>
			<g>
				<path class="st54" d="M338.1,174l93.2,251.1c-1-0.7-1.9-1.4-2.8-2.1c-36.9-26.6-79.4-38.1-121.7-35.2
					c-44.5,3.1-89,22.3-126.9,57l87.6-265.4c10.7-9.4,23.2-14.6,35.6-15.4C315.3,163.2,327.5,166.5,338.1,174z"/>
			</g>
			<g>
				<polygon class="st53" points="179.8,444.9 101,432.8 188.6,167.4 267.5,179.5 				"/>
			</g>
		</g>
	</g>
	<g>
		<g class="st0">
			<g class="st0">
				<defs>
					<path id="SVGID_89_" class="st0" d="M321.3,549l16.4,8.9c-5.9-3.2-14.7-4.6-24.5-3.2l-16.4-8.9
						C306.6,544.5,315.4,545.8,321.3,549z"/>
				</defs>
				<clipPath id="SVGID_90_">
					<use xlink:href="#SVGID_89_"  style="overflow:visible;"/>
				</clipPath>
				<g class="st86">
					<path class="st87" d="M313.2,554.8l-16.4-8.9c4.2-0.6,8.1-0.7,11.8-0.4l16.4,8.9C321.3,554.1,317.4,554.2,313.2,554.8"/>
					<path class="st88" d="M325,554.4l-16.4-8.9c3.9,0.4,7.5,1.2,10.5,2.5l16.4,8.9C332.5,555.6,328.9,554.8,325,554.4"/>
					<path class="st89" d="M335.5,556.9l-16.4-8.9c0.8,0.3,1.5,0.7,2.2,1.1l16.4,8.9C337,557.6,336.3,557.2,335.5,556.9"/>
				</g>
			</g>
			<g>
				<path class="st90" d="M313.2,554.8c17.9-2.5,32.4,4,32.4,14.7c0.1,10.8-14.6,21.7-32.7,24.4c-0.2,0-0.3,0-0.5,0.1
					c-17.9,2.5-32.4-4-32.4-14.7c-0.1-10.8,14.6-21.7,32.7-24.4C312.9,554.8,313.1,554.8,313.2,554.8z"/>
			</g>
			<g class="st0">
				<defs>
					<path id="SVGID_91_" class="st0" d="M288,590.7l-16.4-8.9c-4.9-2.7-7.9-6.7-7.9-11.5c-0.1-10.8,14.6-21.7,32.7-24.4
						c0.2,0,0.3,0,0.5-0.1l16.4,8.9c-0.2,0-0.3,0-0.5,0.1c-18.1,2.7-32.8,13.7-32.7,24.4C280.1,584.1,283,588.1,288,590.7z"/>
				</defs>
				<clipPath id="SVGID_92_">
					<use xlink:href="#SVGID_91_"  style="overflow:visible;"/>
				</clipPath>
				<g class="st91">
					<path class="st89" d="M288,590.7l-16.4-8.9c-4.8-2.6-7.8-6.5-7.9-11.3l16.4,8.9C280.2,584.2,283.1,588.1,288,590.7"/>
					<path class="st88" d="M280,579.5l-16.4-8.9c0-0.1,0-0.2,0-0.2c0-0.9,0.1-1.9,0.3-2.8l16.4,8.9c-0.2,0.9-0.3,1.9-0.3,2.8
						C280,579.3,280,579.4,280,579.5"/>
					<path class="st87" d="M280.3,576.5l-16.4-8.9c0.3-1.1,0.7-2.3,1.2-3.4l16.4,8.9C281,574.2,280.6,575.3,280.3,576.5"/>
					<path class="st92" d="M281.5,573.1l-16.4-8.9c3.9-7.9,14.7-14.9,27.9-17.7l16.4,8.9C296.3,558.2,285.4,565.2,281.5,573.1"/>
					<path class="st87" d="M309.5,555.4l-16.4-8.9c1.1-0.2,2.2-0.4,3.3-0.6c0.2,0,0.3,0,0.5-0.1l16.4,8.9c-0.2,0-0.3,0-0.5,0.1
						C311.6,555,310.5,555.2,309.5,555.4"/>
				</g>
			</g>
		</g>
	</g>
</g>
</svg>
