<?xml version="1.0" encoding="utf-8"?>
<!-- Generator: Adobe Illustrator 21.1.0, SVG Export Plug-In . SVG Version: 6.00 Build 0)  -->
<svg version="1.1" id="Layer_1" xmlns="http://www.w3.org/2000/svg" xmlns:xlink="http://www.w3.org/1999/xlink" x="0px" y="0px"
	 viewBox="0 0 1916.9 974.3" style="enable-background:new 0 0 1916.9 974.3;" xml:space="preserve">
<style type="text/css">
	.st0{clip-path:url(#SVGID_2_);fill:url(#SVGID_3_);}
	.st1{clip-path:url(#SVGID_5_);}
	.st2{fill:#6D943E;}
	.st3{fill:#8DC641;}
	.st4{fill:#959F39;}
	.st5{fill:#ACBB40;}
	.st6{fill:#74512A;}
	.st7{fill:#A07644;}
	.st8{fill:none;}
	.st9{fill:#E6E7E7;}
	.st10{fill:#E64D3C;}
	.st11{fill:#FFFFFF;}
	.st12{fill:#F0DDB4;}
	.st13{fill:#F3B07D;}
	.st14{fill:#BDC3C7;}
	.st15{fill:#2AAAE2;}
	.st16{clip-path:url(#SVGID_7_);fill:#E6E7E7;}
	.st17{clip-path:url(#SVGID_9_);fill:#E6E7E7;}
	.st18{clip-path:url(#SVGID_11_);fill:#E6E7E7;}
	.st19{clip-path:url(#SVGID_13_);fill:#E6E7E7;}
	.st20{clip-path:url(#SVGID_15_);fill:#E6E7E7;}
</style>
<g>
	<g>
		<defs>
			<rect id="SVGID_1_" x="-3.2" y="-1.2" width="1933.2" height="976"/>
		</defs>
		<clipPath id="SVGID_2_">
			<use xlink:href="#SVGID_1_"  style="overflow:visible;"/>
		</clipPath>
		
			<linearGradient id="SVGID_3_" gradientUnits="userSpaceOnUse" x1="963.4" y1="47.2" x2="963.4" y2="975.2" gradientTransform="matrix(1 0 0 -1 0 974)">
			<stop  offset="0" style="stop-color:#33C0D0"/>
			<stop  offset="1" style="stop-color:#8D9BCE"/>
		</linearGradient>
		<rect x="-3.2" y="-1.2" class="st0" width="1933.2" height="928"/>
	</g>
	<g>
		<defs>
			<rect id="SVGID_4_" x="-3.2" y="-1.2" width="1945.2" height="976"/>
		</defs>
		<clipPath id="SVGID_5_">
			<use xlink:href="#SVGID_4_"  style="overflow:visible;"/>
		</clipPath>
		<g class="st1">
			<g>
				<g>
					<rect x="1125.9" y="439.4" class="st2" width="13" height="420.4"/>
				</g>
				<g>
					<rect x="1132.4" y="439.4" class="st3" width="7.4" height="420.4"/>
				</g>
				<g>
					<path class="st3" d="M1132.3,216.8c0,0-63.1,55.8-63.1,124.6s28.3,124.6,63.1,124.6s63.1-55.8,63.1-124.6
						S1132.3,216.8,1132.3,216.8z"/>
					<g>
						<path class="st4" d="M1170.6,400.6c-0.9-0.8-2.3-0.6-3,0.3l-37.8,45.8l3.4,2.9l37.9-45.9c0.7-0.9,0.6-2.2-0.3-3L1170.6,400.6z
							"/>
					</g>
					<g>
						<path class="st4" d="M1165.8,304.9l-36.1,43.1l2.9,3.2l36.5-43.6c0.7-0.9,0.6-2.3-0.3-3C1167.9,303.9,1166.5,304,1165.8,304.9
							z"/>
					</g>
					<g>
						<path class="st4" d="M1165.8,336.9l-36.1,43.1l3.3,2.7l36.1-43.1c0.7-0.9,0.6-2.3-0.3-3C1167.9,335.8,1166.5,336,1165.8,336.9
							z"/>
					</g>
					<g>
						<path class="st4" d="M1165.8,371l-36.1,43.1l3.3,2.7l36.1-43.1c0.7-0.9,0.6-2.3-0.3-3C1167.9,369.9,1166.5,370.1,1165.8,371z"
							/>
					</g>
					<g>
						<path class="st4" d="M1155.8,282.6l-26.1,31.3l2.8,3.3l26.6-31.9c0.7-0.9,0.6-2.3-0.3-3C1158,281.6,1156.7,281.7,1155.8,282.6
							z"/>
					</g>
					<path class="st2" d="M1069.2,341c0,68.8,27.4,124.9,64,125l-1-249.2C1130.2,218.7,1069.2,273.4,1069.2,341z"/>
					<g>
						<path class="st5" d="M1095.9,302.3c-0.9,0.7-1,2.1-0.3,3l37.3,45.7v-6.7l-33.9-41.7C1098.2,301.6,1096.9,301.5,1095.9,302.3z"
							/>
					</g>
					<g>
						<path class="st5" d="M1098.9,334.5c-0.7-0.9-2.1-1-3-0.3s-1,2.1-0.3,3l37.4,45.5l-0.1-6.6L1098.9,334.5z"/>
					</g>
					<g>
						<path class="st5" d="M1095.9,368.6c-0.9,0.7-1,2.1-0.3,3l37.5,45.1v-6.8l-34.1-41.1C1098.2,367.9,1096.9,367.8,1095.9,368.6z"
							/>
					</g>
					<g>
						<path class="st5" d="M1108.8,280.2c-0.7-0.9-2.1-1-3-0.3s-1,2.1-0.3,3l27.3,34v-6.7L1108.8,280.2z"/>
					</g>
					<g>
						<path class="st5" d="M1098.9,401.2c-0.7-0.9-2.1-1-3-0.3s-1,2.1-0.3,3l37.6,45.5v-7.1L1098.9,401.2z"/>
					</g>
				</g>
				<g>
					<path class="st3" d="M1066.3,481.4c-49.5-31-118.1-11.9-118.1-11.9s11.7,69.4,61.2,100.5c49.5,31,102.4,36.4,118.1,11.9
						C1143.2,557.4,1115.7,512.4,1066.3,481.4z"/>
					<g>
						<path class="st4" d="M1097.8,525.4l-0.2,0.1c-1,0.3-1.5,1.3-1.2,2.3l15.9,47.2l3.6-1.2l-15.9-47.2
							C1099.7,525.6,1098.7,525.1,1097.8,525.4z"/>
					</g>
					<g>
						<path class="st4" d="M1027.8,483.5c-0.9,0.3-1.5,1.3-1.1,2.3l14.8,44.7l3.6-0.6l-14.9-45.2
							C1029.7,483.7,1028.7,483.2,1027.8,483.5z"/>
					</g>
					<g>
						<path class="st4" d="M1050.8,497.9c-0.9,0.3-1.5,1.3-1.1,2.3l14.8,44.7l3.4-1.1l-14.8-44.7
							C1052.7,498.1,1051.7,497.6,1050.8,497.9z"/>
					</g>
					<g>
						<path class="st4" d="M1075.3,513.3c-0.9,0.3-1.5,1.3-1.1,2.3l14.8,44.7l3.4-1.1l-14.8-44.7
							C1077.3,513.5,1076.2,513,1075.3,513.3z"/>
					</g>
					<g>
						<path class="st4" d="M1007.2,480.3c-0.9,0.3-1.5,1.3-1.1,2.3l10.7,32.5l3.6-0.5l-10.9-33.1
							C1009.2,480.5,1008.2,480,1007.2,480.3z"/>
					</g>
					<path class="st2" d="M1009,569.7c49.4,31,102.2,37.1,118.8,11.4L948.2,469.4C948.6,471.8,960.4,539.2,1009,569.7z"/>
					<g>
						<path class="st5" d="M994.8,531.5c-1,0.1-1.7,1-1.6,2c0.1,1,1,1.7,2,1.6l49.6-5.6l-4.9-3L994.8,531.5z"/>
					</g>
					<g>
						<path class="st5" d="M1017.9,546c-1,0.1-1.7,1-1.6,2c0.1,1,1,1.7,2,1.6l49.5-5.8l-4.8-2.9L1017.9,546z"/>
					</g>
					<g>
						<path class="st5" d="M1042.5,561.4c-1,0.1-1.7,1-1.6,2s1,1.7,2,1.6l49.3-6l-4.9-3.1L1042.5,561.4z"/>
					</g>
					<g>
						<path class="st5" d="M983.2,514.6c-1,0.1-1.7,1-1.6,2c0.1,1,1,1.7,2,1.6l36.8-3.8l-4.9-3L983.2,514.6z"/>
					</g>
					<g>
						<path class="st5" d="M1065.8,576c-1,0.1-1.7,1-1.6,2s1,1.7,2,1.6l49.7-5.9l-5.2-3.2L1065.8,576z"/>
					</g>
				</g>
				<g>
					<path class="st3" d="M1186.6,552c-44,38.6-63.8,87.5-44.3,109.3c19.6,21.7,71.1,8,115.1-30.6c44-38.6,44.3-109.3,44.3-109.3
						S1230.6,513.4,1186.6,552z"/>
					<g>
						<path class="st4" d="M1162.7,600.7h-0.2c-1-0.1-1.9,0.5-2,1.5l-8.1,49.3l3.8,0.6l8.1-49.3
							C1164.5,601.7,1163.7,600.8,1162.7,600.7z"/>
					</g>
					<g>
						<path class="st4" d="M1225.1,548c-1-0.2-1.9,0.5-2.1,1.5l-7.4,47.2h3.6l7.4-46.7C1226.8,549,1226.1,548.1,1225.1,548z"/>
					</g>
					<g>
						<path class="st4" d="M1204.7,565.9c-1-0.2-1.9,0.5-2.1,1.5l-7.4,46.7l3.6,0.6l7.4-46.7C1206.3,567,1205.6,566,1204.7,565.9z"
							/>
					</g>
					<g>
						<path class="st4" d="M1182.8,585c-1-0.2-1.9,0.5-2.1,1.5l-7.4,46.7l3.6,0.6l7.4-46.7C1184.5,586.1,1183.8,585.2,1182.8,585z"
							/>
					</g>
					<g>
						<path class="st4" d="M1244.9,541.6c-1-0.2-1.9,0.5-2.1,1.5l-5.5,34.6l3.7-0.1l5.4-33.9
							C1246.5,542.7,1245.9,541.7,1244.9,541.6z"/>
					</g>
					<path class="st2" d="M1257.7,630.5c43.3-37.9,44.1-106.7,44.1-109.1l-160,139.2C1162.4,683.4,1213.7,669,1257.7,630.5z"/>
					<g>
						<path class="st5" d="M1265.6,590.4l-45.7,2.2l-4.3,3.8l50.1-2.4c1,0,1.8-0.9,1.7-1.9S1266.6,590.3,1265.6,590.4z"/>
					</g>
					<g>
						<path class="st5" d="M1245.1,608.3l-45.7,2.1l-4.3,3.7l50-2.2c1,0,1.8-0.9,1.7-1.9C1247,609,1246.1,608.3,1245.1,608.3z"/>
					</g>
					<g>
						<path class="st5" d="M1223.2,627.5l-45.5,1.7l-4.4,3.8l49.9-1.9c1,0,1.8-0.9,1.7-1.9C1225,628.3,1224.2,627.5,1223.2,627.5z"
							/>
					</g>
					<g>
						<path class="st5" d="M1274.3,571.7l-32.6,1.9l-4.4,3.7l37.1-2.1c1,0,1.8-0.9,1.7-1.9C1276.2,572.4,1275.3,571.6,1274.3,571.7z
							"/>
					</g>
					<g>
						<path class="st5" d="M1202.4,645.7l-45.5,1.7l-4.6,4l50.3-2.1c1,0,1.8-0.9,1.7-1.9C1204.3,646.5,1203.5,645.7,1202.4,645.7z"
							/>
					</g>
				</g>
			</g>
			<path class="st6" d="M980.4,824.8c47.1-10.4,91.2,7.3,98.5,39.4c7.3,32.1-25.1,66.6-72.2,76.9c-47.1,10.4-91.2-7.3-98.5-39.4
				S933.3,835.2,980.4,824.8z"/>
			<path class="st7" d="M1046.9,857.2c-47.5,0-86,30.8-86,68.7c0,38,38.5,68.6,86,68.7c81.4,0.2,94.8-20,94.8-58
				C1141.7,898.8,1094.4,857.2,1046.9,857.2z"/>
			<ellipse class="st6" cx="793.6" cy="895" rx="86" ry="74.7"/>
			<ellipse class="st6" cx="895.5" cy="891.5" rx="86.2" ry="72.2"/>
			<ellipse class="st7" cx="780.7" cy="934.2" rx="91.6" ry="65.4"/>
			<path class="st7" d="M917.6,876.6c-36.1,7.9-61.1,32.8-55.9,55.7c5.2,22.9,38.5,35.1,74.5,27.2c36.1-7.9,61.1-32.8,55.9-55.7
				C987,880.9,953.7,868.7,917.6,876.6z"/>
			<path class="st7" d="M942,908.6c-28.9,6.3-49,26.2-45,44.3c4.1,18.2,30.8,27.8,59.7,21.5s49-26.2,45-44.3
				C997.7,911.9,970.9,902.3,942,908.6z"/>
			
				<ellipse transform="matrix(1.493316e-03 -1 1 1.493316e-03 -56.6263 1893.6141)" class="st7" cx="919.9" cy="975.2" rx="33.7" ry="103.7"/>
			<path class="st6" d="M699.6,908.5c-3,0-5.5,2.4-5.5,5.4s2.4,5.4,5.5,5.4s5.5-2.4,5.5-5.4C705.1,911,702.6,908.5,699.6,908.5z"/>
			<path class="st6" d="M740.1,907c-3,0-5.5,2.4-5.5,5.4s2.4,5.4,5.5,5.4c3,0,5.5-2.4,5.5-5.4S743.2,907,740.1,907z"/>
			<path class="st6" d="M949.4,965.1c-3,0-5.5,2.4-5.5,5.4s2.4,5.4,5.5,5.4s5.5-2.4,5.5-5.4C954.8,967.5,952.4,965.1,949.4,965.1z"
				/>
			<path class="st6" d="M1048.9,938.8c-3,0-5.5,2.4-5.5,5.4s2.4,5.4,5.5,5.4c3,0,5.5-2.4,5.5-5.4
				C1054.4,941.2,1052,938.8,1048.9,938.8z"/>
			<ellipse class="st6" cx="1102.2" cy="941.5" rx="5.5" ry="5.4"/>
			<ellipse class="st6" cx="863.3" cy="951.9" rx="5.5" ry="5.4"/>
			<path class="st6" d="M767.9,959.2c-3,0-5.5,2.4-5.5,5.4s2.4,5.4,5.5,5.4s5.5-2.4,5.5-5.4C773.4,961.6,770.8,959.2,767.9,959.2z"
				/>
			<path class="st6" d="M1037.9,924.4c-3,0-5.5,2.4-5.5,5.4s2.4,5.4,5.5,5.4c3,0,5.5-2.4,5.5-5.4
				C1043.3,926.8,1040.8,924.4,1037.9,924.4z"/>
			<path class="st6" d="M1034.8,836.4c-4.2,0-7.5,3.3-7.5,7.4c0,4.1,3.3,7.4,7.5,7.4c4.2,0,7.5-3.3,7.5-7.4S1039,836.4,1034.8,836.4
				z"/>
			<path class="st6" d="M1048.9,889.3c-3.4,0-6.3,2.8-6.3,6.2s2.8,6.2,6.3,6.2c3.4,0,6.3-2.8,6.3-6.2S1052.4,889.3,1048.9,889.3z"/>
			
				<ellipse transform="matrix(1 -3.522672e-03 3.522672e-03 1 -3.1053 3.7987)" class="st6" cx="1076.8" cy="883.4" rx="11.1" ry="11"/>
			<path class="st7" d="M780.7,817.3c-3.5,0-6.4,2.8-6.4,6.3s2.8,6.3,6.4,6.3s6.4-2.8,6.4-6.3S784.1,817.3,780.7,817.3z"/>
			<path class="st7" d="M999.3,815.8c-6.2,0-11.1,4.9-11.1,11s5,11,11.1,11c6.2,0,11.1-4.9,11.1-11
				C1010.3,820.7,1005.4,815.8,999.3,815.8z"/>
			<path class="st7" d="M840.5,826.8c-3.5,0-6.4,2.8-6.4,6.3s2.8,6.3,6.4,6.3s6.4-2.8,6.4-6.3C847,829.7,844.1,826.8,840.5,826.8z"
				/>
			<path class="st7" d="M805.7,838.2c-3.5,0-6.4,2.8-6.4,6.3s2.8,6.3,6.4,6.3c3.5,0,6.4-2.8,6.4-6.3
				C812.1,841.1,809.2,838.2,805.7,838.2z"/>
			<path class="st7" d="M1102.2,907.6c-3.5,0-6.4,2.8-6.4,6.3s2.8,6.3,6.4,6.3s6.4-2.8,6.4-6.3
				C1108.6,910.4,1105.8,907.6,1102.2,907.6z"/>
			<path class="st7" d="M971.7,844.6c-4.4,0-7.9,3.5-7.9,7.8s3.5,7.8,7.9,7.8c4.4,0,7.9-3.5,7.9-7.8
				C979.6,848.1,976.1,844.6,971.7,844.6z"/>
			<path class="st7" d="M894,865.3c-4.4,0-7.9,3.5-7.9,7.8s3.5,7.8,7.9,7.8s7.9-3.5,7.9-7.8S898.4,865.3,894,865.3z"/>
			<path class="st6" d="M929.6,890.2c-3,0-5.5,2.4-5.5,5.4s2.4,5.4,5.5,5.4s5.5-2.4,5.5-5.4C935.1,892.6,932.6,890.2,929.6,890.2z"
				/>
			<path class="st6" d="M1030,857.4c-4.4,0-7.9,3.5-7.9,7.8s3.5,7.8,7.9,7.8s7.8-3.5,7.8-7.8C1037.9,860.9,1034.3,857.4,1030,857.4z
				"/>
			<path class="st6" d="M905.8,933.7c-4.4,0-7.9,3.5-7.9,7.8s3.5,7.8,7.9,7.8c4.4,0,7.8-3.5,7.8-7.8
				C913.7,937.2,910.1,933.7,905.8,933.7z"/>
			<path class="st6" d="M980.8,926c-4.4,0-7.8,3.5-7.8,7.8s3.5,7.8,7.8,7.8c4.4,0,7.8-3.5,7.8-7.8C988.6,929.4,985.2,926,980.8,926z
				"/>
			<path class="st6" d="M787.1,892.5c-4,0-7.1,3.2-7.1,7.1c0,3.9,3.2,7.1,7.1,7.1c4,0,7.1-3.2,7.1-7.1
				C794.2,895.6,791.1,892.5,787.1,892.5z"/>
			
				<ellipse transform="matrix(1 -3.498323e-03 3.498323e-03 1 -3.0631 2.8551)" class="st6" cx="814.6" cy="877" rx="11.1" ry="11"/>
			<ellipse class="st7" cx="751.3" cy="867.2" rx="11.1" ry="11"/>
			<ellipse class="st7" cx="1021.9" cy="970.5" rx="41.4" ry="22.7"/>
			<path class="st7" d="M707.6,883.4c-3.7,0-6.8,3-6.8,6.7s3,6.7,6.8,6.7c3.7,0,6.8-3,6.8-6.7C714.4,886.4,711.4,883.4,707.6,883.4z
				"/>
			<path class="st6" d="M717.4,849.4c-4.4,0-7.8,3.5-7.8,7.8s3.5,7.8,7.8,7.8c4.3,0,7.8-3.5,7.8-7.8
				C725.3,852.9,721.8,849.4,717.4,849.4z"/>
			<path class="st6" d="M853.5,910.9c-5.3,0-9.5,4.2-9.5,9.4s4.3,9.4,9.5,9.4c5.3,0,9.5-4.2,9.5-9.4
				C863,915.1,858.8,910.9,853.5,910.9z"/>
			<path class="st6" d="M1167.7,818.8c47.1-10.4,91.2,7.3,98.5,39.4s-25.1,66.6-72.2,76.9c-47.1,10.4-91.2-7.3-98.5-39.4
				C1088.3,863.7,1120.6,829.2,1167.7,818.8z"/>
			<path class="st7" d="M1234.2,851.3c-47.5,0-86,30.8-86,68.7c0,38,38.5,68.6,86,68.7c81.4,0.2,94.8-20,94.8-58
				C1329.1,892.8,1281.7,851.3,1234.2,851.3z"/>
			<ellipse class="st6" cx="1015.4" cy="889.1" rx="86" ry="74.7"/>
			<ellipse class="st6" cx="1107.3" cy="915.6" rx="86.2" ry="72.2"/>
			<ellipse class="st7" cx="1002.4" cy="928.3" rx="91.6" ry="65.4"/>
			<path class="st7" d="M1105,870.6c-36.1,7.9-61.1,32.8-55.9,55.7c5.2,22.9,38.5,35.1,74.5,27.2c36.1-7.9,61.1-32.8,55.9-55.7
				C1174.4,874.9,1141,862.8,1105,870.6z"/>
			<path class="st7" d="M1129.4,902.6c-28.9,6.3-49,26.2-45,44.3c4.1,18.2,30.8,27.8,59.7,21.5c28.9-6.3,49-26.2,45-44.3
				C1185,905.9,1158.2,896.3,1129.4,902.6z"/>
			
				<ellipse transform="matrix(1.493316e-03 -1 1 1.493316e-03 170.8048 2109.3999)" class="st7" cx="1141.7" cy="969.2" rx="33.7" ry="103.7"/>
			<path class="st6" d="M921.5,902.6c-3,0-5.5,2.4-5.5,5.4s2.4,5.4,5.5,5.4s5.5-2.4,5.5-5.4S924.5,902.6,921.5,902.6z"/>
			<path class="st6" d="M962,901c-3,0-5.5,2.4-5.5,5.4s2.4,5.4,5.5,5.4s5.5-2.4,5.5-5.4C967.4,903.4,964.9,901,962,901z"/>
			<path class="st6" d="M1136.8,959.2c-3,0-5.5,2.4-5.5,5.4s2.4,5.4,5.5,5.4c3,0,5.5-2.4,5.5-5.4
				C1142.1,961.6,1139.7,959.2,1136.8,959.2z"/>
			<path class="st6" d="M1270.8,932.8c-3,0-5.5,2.4-5.5,5.4s2.4,5.4,5.5,5.4c3,0,5.5-2.4,5.5-5.4
				C1276.2,935.2,1273.7,932.8,1270.8,932.8z"/>
			<ellipse class="st6" cx="1324" cy="935.5" rx="5.5" ry="5.4"/>
			<ellipse class="st6" cx="1050.7" cy="945.9" rx="5.5" ry="5.4"/>
			<path class="st6" d="M989.7,953.2c-3,0-5.5,2.4-5.5,5.4s2.4,5.4,5.5,5.4s5.5-2.4,5.5-5.4C995.1,955.6,992.7,953.2,989.7,953.2z"
				/>
			<path class="st6" d="M1225.2,918.4c-3,0-5.5,2.4-5.5,5.4s2.4,5.4,5.5,5.4c3,0,5.5-2.4,5.5-5.4
				C1230.6,920.8,1228.2,918.4,1225.2,918.4z"/>
			<path class="st6" d="M1256.7,830.4c-4.2,0-7.5,3.3-7.5,7.4c0,4.1,3.3,7.4,7.5,7.4c4.2,0,7.5-3.3,7.5-7.4
				S1260.9,830.4,1256.7,830.4z"/>
			<path class="st6" d="M1270.8,883.4c-3.4,0-6.3,2.8-6.3,6.2s2.8,6.2,6.3,6.2c3.4,0,6.3-2.8,6.3-6.2S1274.2,883.4,1270.8,883.4z"/>
			
				<ellipse transform="matrix(1 -3.522672e-03 3.522672e-03 1 -3.0831 4.5802)" class="st6" cx="1298.7" cy="877.5" rx="11.1" ry="11"/>
			<path class="st7" d="M1137.6,830.2c-3.5,0-6.4,2.8-6.4,6.3s2.8,6.3,6.4,6.3c3.5,0,6.4-2.8,6.4-6.3
				C1144,833,1141.1,830.2,1137.6,830.2z"/>
			<path class="st7" d="M1186.6,809.8c-6.2,0-11.1,4.9-11.1,11s5,11,11.1,11s11.1-4.9,11.1-11
				C1197.8,814.8,1192.7,809.8,1186.6,809.8z"/>
			<path class="st7" d="M1027.9,820.9c-3.5,0-6.4,2.8-6.4,6.3s2.8,6.3,6.4,6.3s6.4-2.8,6.4-6.3
				C1034.3,823.7,1031.4,820.9,1027.9,820.9z"/>
			<path class="st7" d="M888.7,823.3c-3.5,0-6.4,2.8-6.4,6.3s2.8,6.3,6.4,6.3c3.5,0,6.4-2.8,6.4-6.3
				C895.1,826.1,892.2,823.3,888.7,823.3z"/>
			<path class="st7" d="M1324,901.6c-3.5,0-6.4,2.8-6.4,6.3s2.8,6.3,6.4,6.3s6.4-2.8,6.4-6.3C1330.5,904.5,1327.5,901.6,1324,901.6z
				"/>
			<path class="st7" d="M1159.1,838.6c-4.4,0-7.9,3.5-7.9,7.8s3.5,7.8,7.9,7.8c4.4,0,7.9-3.5,7.9-7.8S1163.4,838.6,1159.1,838.6z"/>
			<path class="st7" d="M1081.4,859.4c-4.4,0-7.9,3.5-7.9,7.8s3.5,7.8,7.9,7.8s7.9-3.5,7.9-7.8S1085.7,859.4,1081.4,859.4z"/>
			<path class="st6" d="M1116.9,884.2c-3,0-5.5,2.4-5.5,5.4s2.4,5.4,5.5,5.4c3,0,5.5-2.4,5.5-5.4
				C1122.4,886.6,1120,884.2,1116.9,884.2z"/>
			<path class="st6" d="M1217.3,851.5c-4.4,0-7.8,3.5-7.8,7.8s3.5,7.8,7.8,7.8c4.4,0,7.8-3.5,7.8-7.8
				C1225.2,854.9,1221.7,851.5,1217.3,851.5z"/>
			<path class="st6" d="M1093.1,927.8c-4.4,0-7.9,3.5-7.9,7.8s3.5,7.8,7.9,7.8c4.4,0,7.8-3.5,7.8-7.8
				C1101,931.2,1097.5,927.8,1093.1,927.8z"/>
			<path class="st6" d="M1168.2,920c-4.4,0-7.9,3.5-7.9,7.8s3.5,7.8,7.9,7.8c4.4,0,7.8-3.5,7.8-7.8S1172.5,920,1168.2,920z"/>
			<path class="st6" d="M1008.9,886.5c-4,0-7.1,3.2-7.1,7.1c0,3.9,3.2,7.1,7.1,7.1c4,0,7.1-3.2,7.1-7.1
				C1016.1,889.7,1012.9,886.5,1008.9,886.5z"/>
			
				<ellipse transform="matrix(1 -3.498323e-03 3.498323e-03 1 -3.0407 3.6313)" class="st6" cx="1036.5" cy="871" rx="11.1" ry="11"/>
			<ellipse class="st7" cx="973.1" cy="861.2" rx="11.1" ry="11"/>
			<ellipse class="st7" cx="1176.5" cy="906.8" rx="41.4" ry="37.9"/>
			<path class="st7" d="M929.4,877.5c-3.7,0-6.8,3-6.8,6.7s3,6.7,6.8,6.7s6.8-3,6.8-6.7S933.1,877.5,929.4,877.5z"/>
			<path class="st6" d="M939.3,843.5c-4.4,0-7.9,3.5-7.9,7.8s3.5,7.8,7.9,7.8c4.4,0,7.8-3.5,7.8-7.8
				C947.1,846.9,943.7,843.5,939.3,843.5z"/>
			<path class="st6" d="M1040.8,905c-5.3,0-9.5,4.2-9.5,9.4s4.3,9.4,9.5,9.4s9.5-4.2,9.5-9.4C1050.3,909.2,1046.1,905,1040.8,905z"
				/>
			<path class="st6" d="M498.2,822.8c47.1-10.4,91.2,7.3,98.5,39.4c7.3,32.1-25.1,66.6-72.2,76.9s-91.2-7.3-98.5-39.4
				C418.7,867.6,451.1,833.2,498.2,822.8z"/>
			<path class="st7" d="M564.7,855.2c-47.5,0-86,30.8-86,68.7c0,38,38.5,68.6,86,68.7c81.4,0.2,94.8-20,94.8-58
				C659.5,896.8,612.2,855.2,564.7,855.2z"/>
			<ellipse class="st6" cx="311.4" cy="893" rx="86" ry="74.7"/>
			<ellipse class="st6" cx="403.2" cy="919.5" rx="86.2" ry="72.2"/>
			<ellipse class="st7" cx="298.4" cy="932.2" rx="91.6" ry="65.4"/>
			<path class="st7" d="M435.4,874.6c-36.1,7.9-61.1,32.8-55.9,55.7c5.2,22.9,38.5,35.1,74.5,27.2c36.1-7.9,61.1-32.8,55.9-55.7
				C504.8,878.9,471.4,866.7,435.4,874.6z"/>
			<path class="st7" d="M459.8,906.6c-28.9,6.3-49,26.2-45,44.3c4.1,18.2,30.8,27.8,59.7,21.5c28.9-6.3,49-26.2,45-44.3
				C515.4,909.9,488.7,900.3,459.8,906.6z"/>
			
				<ellipse transform="matrix(1.493316e-03 -1 1 1.493316e-03 -536.1543 1409.371)" class="st7" cx="437.7" cy="973.2" rx="33.7" ry="103.7"/>
			<path class="st6" d="M217.4,906.5c-3,0-5.5,2.4-5.5,5.4s2.4,5.4,5.5,5.4c3,0,5.5-2.4,5.5-5.4C222.8,909,220.4,906.5,217.4,906.5z
				"/>
			<path class="st6" d="M257.9,905c-3,0-5.5,2.4-5.5,5.4s2.4,5.4,5.5,5.4c3,0,5.5-2.4,5.5-5.4S260.9,905,257.9,905z"/>
			<path class="st6" d="M467.2,963.1c-3,0-5.5,2.4-5.5,5.4s2.4,5.4,5.5,5.4s5.5-2.4,5.5-5.4C472.6,965.5,470.1,963.1,467.2,963.1z"
				/>
			<path class="st6" d="M566.7,936.8c-3,0-5.5,2.4-5.5,5.4s2.4,5.4,5.5,5.4s5.5-2.4,5.5-5.4S569.7,936.8,566.7,936.8z"/>
			<ellipse class="st6" cx="620" cy="939.5" rx="5.5" ry="5.4"/>
			<ellipse class="st6" cx="381.1" cy="949.9" rx="5.5" ry="5.4"/>
			<path class="st6" d="M285.6,957.2c-3,0-5.5,2.4-5.5,5.4s2.4,5.4,5.5,5.4c3,0,5.5-2.4,5.5-5.4
				C291.1,959.6,288.6,957.2,285.6,957.2z"/>
			<path class="st6" d="M555.6,922.4c-3,0-5.5,2.4-5.5,5.4s2.4,5.4,5.5,5.4s5.5-2.4,5.5-5.4C561,924.8,558.6,922.4,555.6,922.4z"/>
			<path class="st6" d="M552.6,834.4c-4.2,0-7.5,3.3-7.5,7.4c0,4.1,3.3,7.4,7.5,7.4c4.2,0,7.5-3.3,7.5-7.4
				C560.1,837.7,556.8,834.4,552.6,834.4z"/>
			<path class="st6" d="M566.7,887.3c-3.4,0-6.3,2.8-6.3,6.2s2.8,6.2,6.3,6.2s6.3-2.8,6.3-6.2S570.1,887.3,566.7,887.3z"/>
			
				<ellipse transform="matrix(1 -3.522672e-03 3.522672e-03 1 -3.1012 2.0999)" class="st6" cx="594.5" cy="881.4" rx="11.1" ry="11"/>
			<path class="st7" d="M298.4,815.3c-3.5,0-6.4,2.8-6.4,6.3s2.8,6.3,6.4,6.3c3.5,0,6.4-2.8,6.4-6.3S301.9,815.3,298.4,815.3z"/>
			<path class="st7" d="M517,813.8c-6.2,0-11.1,4.9-11.1,11s5,11,11.1,11c6.2,0,11.1-4.9,11.1-11C528.1,818.7,523.1,813.8,517,813.8
				z"/>
			<path class="st7" d="M358.3,824.8c-3.5,0-6.4,2.8-6.4,6.3s2.8,6.3,6.4,6.3c3.5,0,6.4-2.8,6.4-6.3
				C364.8,827.7,361.8,824.8,358.3,824.8z"/>
			<path class="st7" d="M323.4,836.2c-3.5,0-6.4,2.8-6.4,6.3s2.8,6.3,6.4,6.3c3.5,0,6.4-2.8,6.4-6.3
				C329.8,839.1,327,836.2,323.4,836.2z"/>
			<path class="st7" d="M620,905.6c-3.5,0-6.4,2.8-6.4,6.3s2.8,6.3,6.4,6.3c3.5,0,6.4-2.8,6.4-6.3
				C626.4,908.4,623.5,905.6,620,905.6z"/>
			<path class="st7" d="M489.5,842.6c-4.4,0-7.9,3.5-7.9,7.8s3.5,7.8,7.9,7.8c4.4,0,7.9-3.5,7.9-7.8S493.8,842.6,489.5,842.6z"/>
			<path class="st7" d="M411.8,863.3c-4.4,0-7.9,3.5-7.9,7.8s3.5,7.8,7.9,7.8c4.4,0,7.9-3.5,7.9-7.8S416.1,863.3,411.8,863.3z"/>
			<path class="st6" d="M447.3,888.2c-3,0-5.5,2.4-5.5,5.4s2.4,5.4,5.5,5.4s5.5-2.4,5.5-5.4C452.8,890.6,450.4,888.2,447.3,888.2z"
				/>
			<path class="st6" d="M547.7,855.4c-4.4,0-7.9,3.5-7.9,7.8s3.5,7.8,7.9,7.8c4.4,0,7.8-3.5,7.8-7.8
				C555.6,858.9,552.1,855.4,547.7,855.4z"/>
			<path class="st6" d="M423.5,931.7c-4.4,0-7.9,3.5-7.9,7.8s3.5,7.8,7.9,7.8c4.4,0,7.8-3.5,7.8-7.8
				C431.4,935.2,427.9,931.7,423.5,931.7z"/>
			<path class="st6" d="M498.6,924c-4.4,0-7.8,3.5-7.8,7.8s3.5,7.8,7.8,7.8c4.4,0,7.8-3.5,7.8-7.8C506.4,927.4,503,924,498.6,924z"
				/>
			<path class="st6" d="M304.9,890.5c-4,0-7.1,3.2-7.1,7.1c0,3.9,3.2,7.1,7.1,7.1c4,0,7.1-3.2,7.1-7.1
				C312,893.6,308.8,890.5,304.9,890.5z"/>
			<ellipse transform="matrix(1 -3.498323e-03 3.498323e-03 1 -3.059 1.168)" class="st6" cx="332.3" cy="875" rx="11.1" ry="11"/>
			<ellipse class="st7" cx="269" cy="865.2" rx="11.1" ry="11"/>
			<ellipse class="st7" cx="539.6" cy="968.5" rx="41.4" ry="22.7"/>
			<path class="st7" d="M225.4,881.4c-3.7,0-6.8,3-6.8,6.7s3,6.7,6.8,6.7c3.7,0,6.8-3,6.8-6.7C232.1,884.4,229.1,881.4,225.4,881.4z
				"/>
			<path class="st6" d="M235.2,847.4c-4.4,0-7.8,3.5-7.8,7.8s3.5,7.8,7.8,7.8c4.3,0,7.8-3.5,7.8-7.8
				C243.1,850.9,239.5,847.4,235.2,847.4z"/>
			<path class="st6" d="M371.3,908.9c-5.3,0-9.5,4.2-9.5,9.4s4.3,9.4,9.5,9.4c5.3,0,9.5-4.2,9.5-9.4
				C380.8,913.1,376.5,908.9,371.3,908.9z"/>
			<path class="st6" d="M685.5,816.8c47.1-10.4,91.2,7.3,98.5,39.4c7.3,32.1-25.1,66.6-72.2,76.9c-47.1,10.4-91.2-7.3-98.5-39.4
				C606,861.6,638.4,827.2,685.5,816.8z"/>
			<path class="st7" d="M752,849.3c-47.5,0-86,30.8-86,68.7c0,38,38.5,68.6,86,68.7c81.4,0.2,94.8-20,94.8-58
				C846.8,890.8,799.5,849.3,752,849.3z"/>
			<ellipse class="st6" cx="533.1" cy="887.1" rx="86" ry="74.7"/>
			<ellipse class="st6" cx="625" cy="913.6" rx="86.2" ry="72.2"/>
			<ellipse class="st7" cx="520.2" cy="926.3" rx="91.6" ry="65.4"/>
			<path class="st7" d="M622.7,868.6c-36.1,7.9-61.1,32.8-55.9,55.7c5.2,22.9,38.5,35.1,74.5,27.2c36.1-7.9,61.1-32.8,55.9-55.7
				C692.1,872.9,658.8,860.8,622.7,868.6z"/>
			<path class="st7" d="M647.1,900.6c-28.9,6.3-49,26.2-45,44.3c4.1,18.2,30.8,27.8,59.7,21.5s49-26.2,45-44.3
				C702.7,903.9,676,894.3,647.1,900.6z"/>
			
				<ellipse transform="matrix(1.493316e-03 -1 1 1.493316e-03 -308.7232 1625.1566)" class="st7" cx="659.4" cy="967.2" rx="33.7" ry="103.7"/>
			<path class="st6" d="M439.2,900.6c-3,0-5.5,2.4-5.5,5.4s2.4,5.4,5.5,5.4c3,0,5.5-2.4,5.5-5.4S442.3,900.6,439.2,900.6z"/>
			<path class="st6" d="M479.8,899c-3,0-5.5,2.4-5.5,5.4s2.4,5.4,5.5,5.4c3,0,5.5-2.4,5.5-5.4C485.1,901.4,482.7,899,479.8,899z"/>
			<path class="st6" d="M654.5,957.2c-3,0-5.5,2.4-5.5,5.4s2.4,5.4,5.5,5.4s5.5-2.4,5.5-5.4C659.9,959.6,657.5,957.2,654.5,957.2z"
				/>
			<path class="st6" d="M788.6,930.8c-3,0-5.5,2.4-5.5,5.4s2.4,5.4,5.5,5.4c3,0,5.5-2.4,5.5-5.4
				C793.9,933.2,791.5,930.8,788.6,930.8z"/>
			<ellipse class="st6" cx="841.7" cy="933.5" rx="5.5" ry="5.4"/>
			<ellipse class="st6" cx="568.4" cy="943.9" rx="5.5" ry="5.4"/>
			<path class="st6" d="M507.4,951.2c-3,0-5.5,2.4-5.5,5.4s2.4,5.4,5.5,5.4s5.5-2.4,5.5-5.4C512.9,953.6,510.5,951.2,507.4,951.2z"
				/>
			<path class="st6" d="M743,916.4c-3,0-5.5,2.4-5.5,5.4s2.4,5.4,5.5,5.4s5.5-2.4,5.5-5.4C748.3,918.8,745.9,916.4,743,916.4z"/>
			<path class="st6" d="M774.5,828.4c-4.2,0-7.5,3.3-7.5,7.4c0,4.1,3.3,7.4,7.5,7.4s7.5-3.3,7.5-7.4
				C782,831.7,778.6,828.4,774.5,828.4z"/>
			<path class="st6" d="M788.6,881.4c-3.4,0-6.3,2.8-6.3,6.2s2.8,6.2,6.3,6.2c3.4,0,6.3-2.8,6.3-6.2S792,881.4,788.6,881.4z"/>
			
				<ellipse transform="matrix(1 -3.522672e-03 3.522672e-03 1 -3.0791 2.8814)" class="st6" cx="816.4" cy="875.5" rx="11.1" ry="11"/>
			<path class="st7" d="M655.3,828.2c-3.5,0-6.4,2.8-6.4,6.3s2.8,6.3,6.4,6.3c3.5,0,6.4-2.8,6.4-6.3S658.9,828.2,655.3,828.2z"/>
			<path class="st7" d="M704.4,807.8c-6.2,0-11.1,4.9-11.1,11s5,11,11.1,11c6.2,0,11.1-4.9,11.1-11
				C715.5,812.8,710.4,807.8,704.4,807.8z"/>
			<path class="st7" d="M545.6,818.9c-3.5,0-6.4,2.8-6.4,6.3s2.8,6.3,6.4,6.3s6.4-2.8,6.4-6.3C552.1,821.7,549.2,818.9,545.6,818.9z
				"/>
			<path class="st7" d="M545.2,830.3c-3.5,0-6.4,2.8-6.4,6.3s2.8,6.3,6.4,6.3s6.4-2.8,6.4-6.3C551.7,833.1,548.8,830.3,545.2,830.3z
				"/>
			<path class="st7" d="M841.7,899.6c-3.5,0-6.4,2.8-6.4,6.3s2.8,6.3,6.4,6.3s6.4-2.8,6.4-6.3C848.2,902.5,845.3,899.6,841.7,899.6z
				"/>
			<path class="st7" d="M676.8,836.6c-4.4,0-7.9,3.5-7.9,7.8s3.5,7.8,7.9,7.8c4.4,0,7.9-3.5,7.9-7.8S681.2,836.6,676.8,836.6z"/>
			<path class="st7" d="M599.1,857.4c-4.4,0-7.9,3.5-7.9,7.8s3.5,7.8,7.9,7.8s7.9-3.5,7.9-7.8S603.5,857.4,599.1,857.4z"/>
			<path class="st6" d="M634.7,882.2c-3,0-5.5,2.4-5.5,5.4s2.4,5.4,5.5,5.4s5.5-2.4,5.5-5.4C640.1,884.6,637.7,882.2,634.7,882.2z"
				/>
			<path class="st6" d="M735.1,849.5c-4.4,0-7.8,3.5-7.8,7.8s3.5,7.8,7.8,7.8c4.3,0,7.8-3.5,7.8-7.8
				C743,852.9,739.4,849.5,735.1,849.5z"/>
			<path class="st6" d="M610.9,925.8c-4.4,0-7.9,3.5-7.9,7.8s3.5,7.8,7.9,7.8c4.4,0,7.8-3.5,7.8-7.8
				C618.8,929.2,615.2,925.8,610.9,925.8z"/>
			<path class="st6" d="M685.9,918c-4.4,0-7.8,3.5-7.8,7.8s3.5,7.8,7.8,7.8c4.4,0,7.8-3.5,7.8-7.8S690.3,918,685.9,918z"/>
			<path class="st6" d="M526.7,884.5c-4,0-7.1,3.2-7.1,7.1c0,3.9,3.2,7.1,7.1,7.1c4,0,7.1-3.2,7.1-7.1
				C533.9,887.7,530.6,884.5,526.7,884.5z"/>
			
				<ellipse transform="matrix(1 -3.498323e-03 3.498323e-03 1 -3.0367 1.9442)" class="st6" cx="554.2" cy="869" rx="11.1" ry="11"/>
			<ellipse class="st7" cx="490.9" cy="859.2" rx="11.1" ry="11"/>
			<ellipse class="st7" cx="694.2" cy="904.8" rx="41.4" ry="37.9"/>
			<path class="st7" d="M447.1,875.5c-3.7,0-6.8,3-6.8,6.7s3,6.7,6.8,6.7s6.8-3,6.8-6.7S450.9,875.5,447.1,875.5z"/>
			<path class="st6" d="M457.1,841.5c-4.4,0-7.8,3.5-7.8,7.8s3.5,7.8,7.8,7.8s7.8-3.5,7.8-7.8C464.9,844.9,461.4,841.5,457.1,841.5z
				"/>
			<path class="st6" d="M220.6,818.8c47.1-10.4,91.2,7.3,98.5,39.4c7.3,32.1-25.1,66.6-72.2,76.9c-47.1,10.4-91.2-7.3-98.5-39.4
				C141.1,863.6,173.5,829.2,220.6,818.8z"/>
			<path class="st7" d="M287.1,851.2c-47.5,0-86,30.8-86,68.7c0,38,38.5,68.6,86,68.7c81.4,0.2,94.8-20,94.8-58
				C381.9,892.8,334.6,851.2,287.1,851.2z"/>
			<ellipse class="st6" cx="33.8" cy="889" rx="86" ry="74.7"/>
			<ellipse class="st6" cx="125.6" cy="915.5" rx="86.2" ry="72.2"/>
			<ellipse class="st7" cx="20.8" cy="928.2" rx="91.6" ry="65.4"/>
			<path class="st7" d="M157.8,870.6c-36.1,7.9-61.1,32.8-55.9,55.7c5.2,22.9,38.5,35.1,74.5,27.2c36.1-7.9,61.1-32.8,55.9-55.7
				C227.2,874.9,193.9,862.7,157.8,870.6z"/>
			<path class="st7" d="M182.2,902.6c-28.9,6.3-49,26.2-45,44.3c4.1,18.2,30.8,27.8,59.7,21.5s49-26.2,45-44.3
				C237.8,905.9,211.1,896.3,182.2,902.6z"/>
			
				<ellipse transform="matrix(1.493316e-03 -1 1 1.493316e-03 -809.3364 1127.7812)" class="st7" cx="160.1" cy="969.2" rx="33.7" ry="103.7"/>
			<path class="st6" d="M-60.2,902.5c-3,0-5.5,2.4-5.5,5.4s2.4,5.4,5.5,5.4s5.5-2.4,5.5-5.4C-54.8,905-57.2,902.5-60.2,902.5z"/>
			<path class="st6" d="M-19.7,901c-3,0-5.5,2.4-5.5,5.4s2.4,5.4,5.5,5.4s5.5-2.4,5.5-5.4S-16.7,901-19.7,901z"/>
			<path class="st6" d="M189.6,959.1c-3,0-5.5,2.4-5.5,5.4s2.4,5.4,5.5,5.4c3,0,5.5-2.4,5.5-5.4C195,961.5,192.5,959.1,189.6,959.1z
				"/>
			<ellipse class="st6" cx="103.5" cy="945.9" rx="5.5" ry="5.4"/>
			<path class="st6" d="M8,953.2c-3,0-5.5,2.4-5.5,5.4S5,964,8,964s5.5-2.4,5.5-5.4C13.5,955.6,11,953.2,8,953.2z"/>
			<path class="st6" d="M275,830.4c-4.2,0-7.5,3.3-7.5,7.4c0,4.1,3.3,7.4,7.5,7.4c4.2,0,7.5-3.3,7.5-7.4S279.2,830.4,275,830.4z"/>
			<path class="st7" d="M20.8,811.3c-3.5,0-6.4,2.8-6.4,6.3s2.8,6.3,6.4,6.3s6.4-2.8,6.4-6.3S24.3,811.3,20.8,811.3z"/>
			<path class="st7" d="M239.4,809.8c-6.2,0-11.1,4.9-11.1,11s5,11,11.1,11s11.1-4.9,11.1-11C250.5,814.7,245.5,809.8,239.4,809.8z"
				/>
			<path class="st7" d="M80.7,820.8c-3.5,0-6.4,2.8-6.4,6.3s2.8,6.3,6.4,6.3s6.4-2.8,6.4-6.3C87.2,823.7,84.2,820.8,80.7,820.8z"/>
			<path class="st7" d="M45.8,832.2c-3.5,0-6.4,2.8-6.4,6.3s2.8,6.3,6.4,6.3c3.5,0,6.4-2.8,6.4-6.3
				C52.2,835.1,49.4,832.2,45.8,832.2z"/>
			<path class="st7" d="M211.9,838.6c-4.4,0-7.9,3.5-7.9,7.8s3.5,7.8,7.9,7.8c4.4,0,7.9-3.5,7.9-7.8
				C219.8,842.1,216.2,838.6,211.9,838.6z"/>
			<path class="st7" d="M134.2,859.3c-4.4,0-7.9,3.5-7.9,7.8s3.5,7.8,7.9,7.8c4.4,0,7.9-3.5,7.9-7.8S138.5,859.3,134.2,859.3z"/>
			<path class="st6" d="M169.7,884.2c-3,0-5.5,2.4-5.5,5.4s2.4,5.4,5.5,5.4s5.5-2.4,5.5-5.4C175.2,886.6,172.8,884.2,169.7,884.2z"
				/>
			<path class="st6" d="M270.1,851.4c-4.4,0-7.8,3.5-7.8,7.8s3.5,7.8,7.8,7.8c4.4,0,7.8-3.5,7.8-7.8
				C278,854.9,274.5,851.4,270.1,851.4z"/>
			<path class="st6" d="M145.9,927.7c-4.4,0-7.9,3.5-7.9,7.8s3.5,7.8,7.9,7.8c4.4,0,7.8-3.5,7.8-7.8
				C153.8,931.2,150.3,927.7,145.9,927.7z"/>
			<path class="st6" d="M221,920c-4.4,0-7.8,3.5-7.8,7.8s3.5,7.8,7.8,7.8c4.4,0,7.8-3.5,7.8-7.8C228.8,923.4,225.4,920,221,920z"/>
			<path class="st6" d="M27.3,886.5c-4,0-7.1,3.2-7.1,7.1c0,3.9,3.2,7.1,7.1,7.1c4,0,7.1-3.2,7.1-7.1
				C34.4,889.6,31.2,886.5,27.3,886.5z"/>
			<ellipse transform="matrix(1 -3.498323e-03 3.498323e-03 1 -3.0467 0.1969)" class="st6" cx="54.8" cy="871" rx="11.1" ry="11"/>
			<ellipse class="st7" cx="-8.6" cy="861.2" rx="11.1" ry="11"/>
			<ellipse class="st7" cx="262" cy="964.5" rx="41.4" ry="22.7"/>
			<path class="st7" d="M-52.2,877.4c-3.7,0-6.8,3-6.8,6.7s3,6.7,6.8,6.7c3.7,0,6.8-3,6.8-6.7C-45.4,880.4-48.5,877.4-52.2,877.4z"
				/>
			<path class="st6" d="M-42.4,843.4c-4.4,0-7.8,3.5-7.8,7.8s3.5,7.8,7.8,7.8s7.8-3.5,7.8-7.8C-34.5,846.9-38.1,843.4-42.4,843.4z"
				/>
			<path class="st6" d="M93.7,904.9c-5.3,0-9.5,4.2-9.5,9.4s4.3,9.4,9.5,9.4c5.3,0,9.5-4.2,9.5-9.4
				C103.2,909.1,98.9,904.9,93.7,904.9z"/>
			<ellipse class="st7" cx="242.6" cy="922.3" rx="91.6" ry="65.4"/>
			<path class="st6" d="M161.6,896.6c-3,0-5.5,2.4-5.5,5.4s2.4,5.4,5.5,5.4c3,0,5.5-2.4,5.5-5.4S164.7,896.6,161.6,896.6z"/>
			<path class="st6" d="M202.2,895c-3,0-5.5,2.4-5.5,5.4s2.4,5.4,5.5,5.4c3,0,5.5-2.4,5.5-5.4C207.5,897.4,205.1,895,202.2,895z"/>
			<path class="st6" d="M229.8,947.2c-3,0-5.5,2.4-5.5,5.4s2.4,5.4,5.5,5.4c3,0,5.5-2.4,5.5-5.4
				C235.3,949.6,232.9,947.2,229.8,947.2z"/>
			<path class="st7" d="M268,814.9c-3.5,0-6.4,2.8-6.4,6.3s2.8,6.3,6.4,6.3s6.4-2.8,6.4-6.3C274.5,817.7,271.6,814.9,268,814.9z"/>
			<path class="st7" d="M267.6,826.3c-3.5,0-6.4,2.8-6.4,6.3s2.8,6.3,6.4,6.3s6.4-2.8,6.4-6.3C274.1,829.1,271.2,826.3,267.6,826.3z
				"/>
			<path class="st6" d="M249.1,880.5c-4,0-7.1,3.2-7.1,7.1c0,3.9,3.2,7.1,7.1,7.1c4,0,7.1-3.2,7.1-7.1
				C256.3,883.7,253,880.5,249.1,880.5z"/>
			<ellipse transform="matrix(1 -3.498323e-03 3.498323e-03 1 -3.0244 0.973)" class="st6" cx="276.6" cy="865" rx="11.1" ry="11"/>
			<ellipse class="st7" cx="213.3" cy="855.2" rx="11.1" ry="11"/>
			<path class="st7" d="M169.5,871.5c-3.7,0-6.8,3-6.8,6.7s3,6.7,6.8,6.7s6.8-3,6.8-6.7S173.3,871.5,169.5,871.5z"/>
			<path class="st6" d="M179.5,837.5c-4.4,0-7.8,3.5-7.8,7.8s3.5,7.8,7.8,7.8c4.4,0,7.8-3.5,7.8-7.8
				C187.3,840.9,183.8,837.5,179.5,837.5z"/>
			<path class="st6" d="M558.6,903c-5.3,0-9.5,4.2-9.5,9.4s4.3,9.4,9.5,9.4c5.3,0,9.5-4.2,9.5-9.4S563.8,903,558.6,903z"/>
			<path class="st6" d="M1460.6,819.9c47.1-10.4,91.2,7.3,98.5,39.4c7.3,32.1-25.1,66.6-72.2,76.9c-47.1,10.4-91.2-7.3-98.5-39.4
				C1381.2,864.7,1413.5,830.2,1460.6,819.9z"/>
			<path class="st7" d="M1527.1,852.2c-47.5,0-86,30.8-86,68.7c0,38,38.5,68.6,86,68.7c81.4,0.2,94.8-20,94.8-58
				C1622,893.8,1574.6,852.2,1527.1,852.2z"/>
			<ellipse class="st6" cx="1273.8" cy="890" rx="86" ry="74.7"/>
			<ellipse class="st6" cx="1365.6" cy="916.5" rx="86.2" ry="72.2"/>
			<ellipse class="st7" cx="1260.9" cy="929.2" rx="91.6" ry="65.4"/>
			<path class="st7" d="M1397.9,871.6c-36.1,7.9-61.1,32.8-55.9,55.7c5.2,22.9,38.5,35.1,74.5,27.2c36.1-7.9,61.1-32.8,55.9-55.7
				C1467.2,875.9,1433.9,863.7,1397.9,871.6z"/>
			<path class="st7" d="M1422.3,903.6c-28.9,6.3-49,26.2-45,44.3c4.1,18.2,30.8,27.8,59.7,21.5c28.9-6.3,49-26.2,45-44.3
				C1477.9,906.9,1451.1,897.3,1422.3,903.6z"/>
			
				<ellipse transform="matrix(1.493316e-03 -1 1 1.493316e-03 427.8784 2368.8418)" class="st7" cx="1400.1" cy="970.2" rx="33.7" ry="103.7"/>
			<path class="st6" d="M1179.8,903.5c-3,0-5.5,2.4-5.5,5.4s2.4,5.4,5.5,5.4c3,0,5.5-2.4,5.5-5.4
				C1185.3,906,1182.9,903.5,1179.8,903.5z"/>
			<path class="st6" d="M1220.4,902c-3,0-5.5,2.4-5.5,5.4s2.4,5.4,5.5,5.4c3,0,5.5-2.4,5.5-5.4S1223.4,902,1220.4,902z"/>
			<path class="st6" d="M1429.7,960.1c-3,0-5.5,2.4-5.5,5.4s2.4,5.4,5.5,5.4c3,0,5.5-2.4,5.5-5.4
				C1435,962.5,1432.6,960.1,1429.7,960.1z"/>
			<path class="st6" d="M1529.2,933.8c-3,0-5.5,2.4-5.5,5.4s2.4,5.4,5.5,5.4c3,0,5.5-2.4,5.5-5.4
				C1534.6,936.2,1532.2,933.8,1529.2,933.8z"/>
			<ellipse class="st6" cx="1582.4" cy="936.5" rx="5.5" ry="5.4"/>
			<ellipse class="st6" cx="1343.5" cy="946.9" rx="5.5" ry="5.4"/>
			<path class="st6" d="M1248.1,954.2c-3,0-5.5,2.4-5.5,5.4s2.4,5.4,5.5,5.4c3,0,5.5-2.4,5.5-5.4
				C1253.6,956.6,1251,954.2,1248.1,954.2z"/>
			<path class="st6" d="M1518.1,919.4c-3,0-5.5,2.4-5.5,5.4s2.4,5.4,5.5,5.4c3,0,5.5-2.4,5.5-5.4
				C1523.5,921.8,1521,919.4,1518.1,919.4z"/>
			<path class="st6" d="M1515.1,831.4c-4.2,0-7.5,3.3-7.5,7.4c0,4.1,3.3,7.4,7.5,7.4s7.5-3.3,7.5-7.4S1519.2,831.4,1515.1,831.4z"/>
			<path class="st6" d="M1529.2,884.3c-3.4,0-6.3,2.8-6.3,6.2s2.8,6.2,6.3,6.2s6.3-2.8,6.3-6.2S1532.6,884.3,1529.2,884.3z"/>
			
				<ellipse transform="matrix(1 -3.522672e-03 3.522672e-03 1 -3.0847 5.4903)" class="st6" cx="1557" cy="878.4" rx="11.1" ry="11"/>
			<path class="st7" d="M1260.9,812.3c-3.5,0-6.4,2.8-6.4,6.3s2.8,6.3,6.4,6.3c3.5,0,6.4-2.8,6.4-6.3S1264.3,812.3,1260.9,812.3z"/>
			<path class="st7" d="M1479.5,810.8c-6.2,0-11.1,4.9-11.1,11s5,11,11.1,11s11.1-4.9,11.1-11
				C1490.6,815.7,1485.6,810.8,1479.5,810.8z"/>
			<path class="st7" d="M1320.8,821.8c-3.5,0-6.4,2.8-6.4,6.3s2.8,6.3,6.4,6.3s6.4-2.8,6.4-6.3
				C1327.2,824.7,1324.3,821.8,1320.8,821.8z"/>
			<path class="st7" d="M1285.9,833.2c-3.5,0-6.4,2.8-6.4,6.3s2.8,6.3,6.4,6.3s6.4-2.8,6.4-6.3
				C1292.3,836.1,1289.4,833.2,1285.9,833.2z"/>
			<path class="st7" d="M1582.4,902.6c-3.5,0-6.4,2.8-6.4,6.3s2.8,6.3,6.4,6.3c3.5,0,6.4-2.8,6.4-6.3
				C1588.8,905.4,1586,902.6,1582.4,902.6z"/>
			<path class="st7" d="M1452,839.6c-4.4,0-7.9,3.5-7.9,7.8s3.5,7.8,7.9,7.8c4.4,0,7.9-3.5,7.9-7.8S1456.3,839.6,1452,839.6z"/>
			<path class="st7" d="M1374.2,860.3c-4.4,0-7.9,3.5-7.9,7.8s3.5,7.8,7.9,7.8s7.9-3.5,7.9-7.8S1378.6,860.3,1374.2,860.3z"/>
			<path class="st6" d="M1409.8,885.2c-3,0-5.5,2.4-5.5,5.4s2.4,5.4,5.5,5.4c3,0,5.5-2.4,5.5-5.4
				C1415.3,887.6,1412.8,885.2,1409.8,885.2z"/>
			<path class="st6" d="M1510.2,852.4c-4.4,0-7.8,3.5-7.8,7.8s3.5,7.8,7.8,7.8c4.4,0,7.8-3.5,7.8-7.8
				C1518.1,855.9,1514.6,852.4,1510.2,852.4z"/>
			<path class="st6" d="M1386,928.7c-4.4,0-7.9,3.5-7.9,7.8s3.5,7.8,7.9,7.8s7.8-3.5,7.8-7.8C1393.9,932.2,1390.4,928.7,1386,928.7z
				"/>
			<path class="st6" d="M1461.1,921c-4.4,0-7.9,3.5-7.9,7.8s3.5,7.8,7.9,7.8c4.4,0,7.8-3.5,7.8-7.8
				C1468.9,924.4,1465.4,921,1461.1,921z"/>
			<path class="st6" d="M1267.4,887.5c-4,0-7.1,3.2-7.1,7.1c0,3.9,3.2,7.1,7.1,7.1c4,0,7.1-3.2,7.1-7.1
				C1274.5,890.6,1271.3,887.5,1267.4,887.5z"/>
			
				<ellipse transform="matrix(1 -3.498323e-03 3.498323e-03 1 -3.0426 4.535)" class="st6" cx="1294.8" cy="872" rx="11.1" ry="11"/>
			<ellipse class="st7" cx="1231.5" cy="862.2" rx="11.1" ry="11"/>
			<ellipse class="st7" cx="1502.1" cy="965.5" rx="41.4" ry="22.7"/>
			<path class="st7" d="M1187.8,878.4c-3.7,0-6.8,3-6.8,6.7s3,6.7,6.8,6.7s6.8-3,6.8-6.7S1191.6,878.4,1187.8,878.4z"/>
			<path class="st6" d="M1197.7,844.4c-4.4,0-7.9,3.5-7.9,7.8s3.5,7.8,7.9,7.8c4.4,0,7.8-3.5,7.8-7.8
				C1205.6,847.9,1202,844.4,1197.7,844.4z"/>
			<path class="st6" d="M1333.7,905.9c-5.3,0-9.5,4.2-9.5,9.4s4.3,9.4,9.5,9.4c5.3,0,9.5-4.2,9.5-9.4
				C1343.2,910.1,1339,905.9,1333.7,905.9z"/>
			<path class="st6" d="M1647.9,813.9c47.1-10.4,91.2,7.3,98.5,39.4c7.3,32.1-25.1,66.6-72.2,76.9c-47.1,10.4-91.2-7.3-98.5-39.4
				C1568.5,858.7,1600.8,824.2,1647.9,813.9z"/>
			<path class="st7" d="M1714.5,846.3c-47.5,0-86,30.8-86,68.7c0,38,38.5,68.6,86,68.7c81.4,0.2,94.8-20,94.8-58
				C1809.3,887.8,1762,846.3,1714.5,846.3z"/>
			<ellipse class="st6" cx="1495.6" cy="884.1" rx="86" ry="74.7"/>
			<ellipse class="st6" cx="1587.5" cy="910.6" rx="86.2" ry="72.2"/>
			<ellipse class="st7" cx="1482.6" cy="923.3" rx="91.6" ry="65.4"/>
			<path class="st7" d="M1585.2,865.6c-36.1,7.9-61.1,32.8-55.9,55.7s38.5,35.1,74.5,27.2c36.1-7.9,61.1-32.8,55.9-55.7
				C1654.6,869.9,1621.2,857.8,1585.2,865.6z"/>
			<path class="st7" d="M1609.6,897.6c-28.9,6.3-49,26.2-45,44.3c4.1,18.2,30.8,27.8,59.7,21.5c28.9-6.3,49-26.2,45-44.3
				C1665.2,900.9,1638.5,891.3,1609.6,897.6z"/>
			
				<ellipse transform="matrix(1.493316e-03 -1 1 1.493316e-03 655.3093 2584.6277)" class="st7" cx="1621.9" cy="964.2" rx="33.7" ry="103.7"/>
			<path class="st6" d="M1401.7,897.6c-3,0-5.5,2.4-5.5,5.4s2.4,5.4,5.5,5.4c3,0,5.5-2.4,5.5-5.4S1404.7,897.6,1401.7,897.6z"/>
			<path class="st6" d="M1442.2,896c-3,0-5.5,2.4-5.5,5.4s2.4,5.4,5.5,5.4c3,0,5.5-2.4,5.5-5.4C1447.6,898.4,1445.2,896,1442.2,896z
				"/>
			<path class="st6" d="M1617,954.2c-3,0-5.5,2.4-5.5,5.4s2.4,5.4,5.5,5.4c3,0,5.5-2.4,5.5-5.4
				C1622.4,956.6,1619.9,954.2,1617,954.2z"/>
			<path class="st6" d="M1751,927.8c-3,0-5.5,2.4-5.5,5.4s2.4,5.4,5.5,5.4c3,0,5.5-2.4,5.5-5.4C1756.4,930.2,1754,927.8,1751,927.8z
				"/>
			<ellipse class="st6" cx="1804.2" cy="930.5" rx="5.5" ry="5.4"/>
			<ellipse class="st6" cx="1530.9" cy="940.9" rx="5.5" ry="5.4"/>
			<path class="st6" d="M1469.9,948.2c-3,0-5.5,2.4-5.5,5.4s2.4,5.4,5.5,5.4c3,0,5.5-2.4,5.5-5.4
				C1475.4,950.6,1472.9,948.2,1469.9,948.2z"/>
			<path class="st6" d="M1705.4,913.4c-3,0-5.5,2.4-5.5,5.4s2.4,5.4,5.5,5.4c3,0,5.5-2.4,5.5-5.4
				C1710.8,915.8,1708.4,913.4,1705.4,913.4z"/>
			<path class="st6" d="M1736.9,825.4c-4.2,0-7.5,3.3-7.5,7.4c0,4.1,3.3,7.4,7.5,7.4s7.5-3.3,7.5-7.4S1741.1,825.4,1736.9,825.4z"/>
			<path class="st6" d="M1751,878.4c-3.4,0-6.3,2.8-6.3,6.2s2.8,6.2,6.3,6.2s6.3-2.8,6.3-6.2S1754.5,878.4,1751,878.4z"/>
			
				<ellipse transform="matrix(1 -3.522674e-03 3.522674e-03 1 -3.0625 6.2719)" class="st6" cx="1778.9" cy="872.5" rx="11.1" ry="11"/>
			<path class="st7" d="M1617.8,825.2c-3.5,0-6.4,2.8-6.4,6.3s2.8,6.3,6.4,6.3c3.5,0,6.4-2.8,6.4-6.3
				C1624.2,828,1621.3,825.2,1617.8,825.2z"/>
			<path class="st7" d="M1666.8,804.8c-6.2,0-11.1,4.9-11.1,11s5,11,11.1,11c6.2,0,11.1-4.9,11.1-11
				C1678,809.8,1672.9,804.8,1666.8,804.8z"/>
			<path class="st7" d="M1508.1,815.9c-3.5,0-6.4,2.8-6.4,6.3s2.8,6.3,6.4,6.3c3.5,0,6.4-2.8,6.4-6.3
				C1514.6,818.7,1511.6,815.9,1508.1,815.9z"/>
			<path class="st7" d="M1507.7,827.3c-3.5,0-6.4,2.8-6.4,6.3s2.8,6.3,6.4,6.3c3.5,0,6.4-2.8,6.4-6.3
				C1514.2,830.1,1511.2,827.3,1507.7,827.3z"/>
			<path class="st7" d="M1804.2,896.6c-3.5,0-6.4,2.8-6.4,6.3s2.8,6.3,6.4,6.3c3.5,0,6.4-2.8,6.4-6.3
				C1810.7,899.5,1807.8,896.6,1804.2,896.6z"/>
			<path class="st7" d="M1639.3,833.6c-4.4,0-7.9,3.5-7.9,7.8s3.5,7.8,7.9,7.8s7.9-3.5,7.9-7.8S1643.6,833.6,1639.3,833.6z"/>
			<path class="st7" d="M1561.6,854.4c-4.4,0-7.9,3.5-7.9,7.8s3.5,7.8,7.9,7.8c4.4,0,7.9-3.5,7.9-7.8S1565.9,854.4,1561.6,854.4z"/>
			<path class="st6" d="M1597.1,879.2c-3,0-5.5,2.4-5.5,5.4s2.4,5.4,5.5,5.4c3,0,5.5-2.4,5.5-5.4
				C1602.6,881.6,1600.2,879.2,1597.1,879.2z"/>
			<path class="st6" d="M1697.5,846.5c-4.4,0-7.8,3.5-7.8,7.8s3.5,7.8,7.8,7.8c4.4,0,7.8-3.5,7.8-7.8
				C1705.4,849.9,1701.9,846.5,1697.5,846.5z"/>
			<path class="st6" d="M1573.3,922.8c-4.4,0-7.9,3.5-7.9,7.8s3.5,7.8,7.9,7.8c4.4,0,7.8-3.5,7.8-7.8
				C1581.2,926.2,1577.7,922.8,1573.3,922.8z"/>
			<path class="st6" d="M1648.4,915c-4.4,0-7.9,3.5-7.9,7.8s3.5,7.8,7.9,7.8c4.4,0,7.8-3.5,7.8-7.8S1652.8,915,1648.4,915z"/>
			<path class="st6" d="M1489.1,881.5c-4,0-7.1,3.2-7.1,7.1c0,3.9,3.2,7.1,7.1,7.1c4,0,7.1-3.2,7.1-7.1
				C1496.3,884.7,1493.1,881.5,1489.1,881.5z"/>
			
				<ellipse transform="matrix(1 -3.498323e-03 3.498323e-03 1 -3.0203 5.3112)" class="st6" cx="1516.7" cy="866" rx="11.1" ry="11"/>
			<ellipse class="st7" cx="1453.4" cy="856.2" rx="11.1" ry="11"/>
			<ellipse class="st7" cx="1656.7" cy="901.8" rx="41.4" ry="37.9"/>
			<path class="st7" d="M1409.6,872.5c-3.7,0-6.8,3-6.8,6.7s3,6.7,6.8,6.7c3.7,0,6.8-3,6.8-6.7S1413.4,872.5,1409.6,872.5z"/>
			<path class="st6" d="M1419.5,838.5c-4.4,0-7.9,3.5-7.9,7.8s3.5,7.8,7.9,7.8s7.8-3.5,7.8-7.8
				C1427.3,841.9,1423.9,838.5,1419.5,838.5z"/>
			<path class="st6" d="M1521,900c-5.3,0-9.5,4.2-9.5,9.4s4.3,9.4,9.5,9.4c5.3,0,9.5-4.2,9.5-9.4C1530.6,904.2,1526.3,900,1521,900z
				"/>
			<path class="st6" d="M1728.1,813.9c47.1-10.4,91.2,7.3,98.5,39.4s-25.1,66.6-72.2,76.9c-47.1,10.4-91.2-7.3-98.5-39.4
				C1648.6,858.7,1681,824.2,1728.1,813.9z"/>
			<path class="st7" d="M1794.6,846.2c-47.5,0-86,30.8-86,68.7c0,38,38.5,68.6,86,68.7c81.4,0.2,94.8-20,94.8-58
				C1889.4,887.8,1842.1,846.2,1794.6,846.2z"/>
			<ellipse class="st6" cx="1541.3" cy="884" rx="86" ry="74.7"/>
			<ellipse class="st6" cx="1633.1" cy="910.5" rx="86.2" ry="72.2"/>
			<ellipse class="st7" cx="1528.3" cy="923.2" rx="91.6" ry="65.4"/>
			<path class="st7" d="M1665.3,865.6c-36.1,7.9-61.1,32.8-55.9,55.7s38.5,35.1,74.5,27.2c36.1-7.9,61.1-32.8,55.9-55.7
				C1734.7,869.9,1701.4,857.7,1665.3,865.6z"/>
			<path class="st7" d="M1689.7,897.6c-28.9,6.3-49,26.2-45,44.3c4.1,18.2,30.8,27.8,59.7,21.5c28.9-6.3,49-26.2,45-44.3
				C1745.4,900.9,1718.6,891.3,1689.7,897.6z"/>
			
				<ellipse transform="matrix(1.493316e-03 -1 1 1.493316e-03 700.9443 2630.3152)" class="st7" cx="1667.6" cy="964.2" rx="33.7" ry="103.7"/>
			<path class="st6" d="M1447.3,897.5c-3,0-5.5,2.4-5.5,5.4s2.4,5.4,5.5,5.4c3,0,5.5-2.4,5.5-5.4
				C1452.8,900,1450.3,897.5,1447.3,897.5z"/>
			<path class="st6" d="M1487.8,896c-3,0-5.5,2.4-5.5,5.4s2.4,5.4,5.5,5.4c3,0,5.5-2.4,5.5-5.4S1490.9,896,1487.8,896z"/>
			<path class="st6" d="M1697.1,954.1c-3,0-5.5,2.4-5.5,5.4s2.4,5.4,5.5,5.4c3,0,5.5-2.4,5.5-5.4
				C1702.5,956.5,1700.1,954.1,1697.1,954.1z"/>
			<path class="st6" d="M1796.6,927.8c-3,0-5.5,2.4-5.5,5.4s2.4,5.4,5.5,5.4c3,0,5.5-2.4,5.5-5.4
				C1802.1,930.2,1799.7,927.8,1796.6,927.8z"/>
			<ellipse class="st6" cx="1849.9" cy="930.5" rx="5.5" ry="5.4"/>
			<ellipse class="st6" cx="1611" cy="940.9" rx="5.5" ry="5.4"/>
			<path class="st6" d="M1515.6,948.2c-3,0-5.5,2.4-5.5,5.4s2.4,5.4,5.5,5.4c3,0,5.5-2.4,5.5-5.4
				C1521,950.6,1518.5,948.2,1515.6,948.2z"/>
			<path class="st6" d="M1785.6,913.4c-3,0-5.5,2.4-5.5,5.4s2.4,5.4,5.5,5.4s5.5-2.4,5.5-5.4
				C1790.9,915.8,1788.5,913.4,1785.6,913.4z"/>
			<path class="st6" d="M1782.5,825.4c-4.2,0-7.5,3.3-7.5,7.4c0,4.1,3.3,7.4,7.5,7.4c4.2,0,7.5-3.3,7.5-7.4
				S1786.7,825.4,1782.5,825.4z"/>
			<path class="st6" d="M1796.6,878.3c-3.4,0-6.3,2.8-6.3,6.2s2.8,6.2,6.3,6.2s6.3-2.8,6.3-6.2S1800.1,878.3,1796.6,878.3z"/>
			
				<ellipse transform="matrix(1 -3.522672e-03 3.522672e-03 1 -3.0619 6.4325)" class="st6" cx="1824.5" cy="872.4" rx="11.1" ry="11"/>
			<path class="st7" d="M1528.3,806.3c-3.5,0-6.4,2.8-6.4,6.3s2.8,6.3,6.4,6.3c3.5,0,6.4-2.8,6.4-6.3S1531.8,806.3,1528.3,806.3z"/>
			<path class="st7" d="M1747,804.8c-6.2,0-11.1,4.9-11.1,11s5,11,11.1,11c6.2,0,11.1-4.9,11.1-11
				C1758,809.7,1753.1,804.8,1747,804.8z"/>
			<path class="st7" d="M1588.2,815.8c-3.5,0-6.4,2.8-6.4,6.3s2.8,6.3,6.4,6.3s6.4-2.8,6.4-6.3
				C1594.7,818.7,1591.8,815.8,1588.2,815.8z"/>
			<path class="st7" d="M1553.4,827.2c-3.5,0-6.4,2.8-6.4,6.3s2.8,6.3,6.4,6.3c3.5,0,6.4-2.8,6.4-6.3
				C1559.7,830.1,1556.9,827.2,1553.4,827.2z"/>
			<path class="st7" d="M1849.9,896.6c-3.5,0-6.4,2.8-6.4,6.3s2.8,6.3,6.4,6.3c3.5,0,6.4-2.8,6.4-6.3
				C1856.3,899.4,1853.5,896.6,1849.9,896.6z"/>
			<path class="st7" d="M1719.4,833.6c-4.4,0-7.9,3.5-7.9,7.8s3.5,7.8,7.9,7.8s7.9-3.5,7.9-7.8S1723.8,833.6,1719.4,833.6z"/>
			<path class="st7" d="M1641.7,854.3c-4.4,0-7.9,3.5-7.9,7.8s3.5,7.8,7.9,7.8s7.9-3.5,7.9-7.8S1646.1,854.3,1641.7,854.3z"/>
			<path class="st6" d="M1677.3,879.2c-3,0-5.5,2.4-5.5,5.4s2.4,5.4,5.5,5.4c3,0,5.5-2.4,5.5-5.4
				C1682.7,881.6,1680.3,879.2,1677.3,879.2z"/>
			<path class="st6" d="M1777.7,846.4c-4.4,0-7.8,3.5-7.8,7.8s3.5,7.8,7.8,7.8c4.4,0,7.8-3.5,7.8-7.8
				C1785.6,849.9,1782,846.4,1777.7,846.4z"/>
			<path class="st6" d="M1653.5,922.7c-4.4,0-7.9,3.5-7.9,7.8s3.5,7.8,7.9,7.8c4.4,0,7.8-3.5,7.8-7.8
				C1661.4,926.2,1657.8,922.7,1653.5,922.7z"/>
			<path class="st6" d="M1728.5,915c-4.4,0-7.9,3.5-7.9,7.8s3.5,7.8,7.9,7.8c4.4,0,7.8-3.5,7.8-7.8
				C1736.3,918.4,1732.9,915,1728.5,915z"/>
			<path class="st6" d="M1534.8,881.5c-4,0-7.1,3.2-7.1,7.1c0,3.9,3.2,7.1,7.1,7.1c4,0,7.1-3.2,7.1-7.1
				C1541.9,884.6,1538.8,881.5,1534.8,881.5z"/>
			<ellipse transform="matrix(1 -3.498323e-03 3.498323e-03 1 -3.02 5.4707)" class="st6" cx="1562.3" cy="866" rx="11.1" ry="11"/>
			<ellipse class="st7" cx="1499" cy="856.2" rx="11.1" ry="11"/>
			<ellipse class="st7" cx="1769.6" cy="959.5" rx="41.4" ry="22.7"/>
			<path class="st7" d="M1455.3,872.4c-3.7,0-6.8,3-6.8,6.7s3,6.7,6.8,6.7c3.7,0,6.8-3,6.8-6.7S1459,872.4,1455.3,872.4z"/>
			<path class="st6" d="M1465.1,838.4c-4.4,0-7.9,3.5-7.9,7.8s3.5,7.8,7.9,7.8c4.4,0,7.8-3.5,7.8-7.8
				C1473,841.9,1469.5,838.4,1465.1,838.4z"/>
			<path class="st6" d="M1601.2,899.9c-5.3,0-9.5,4.2-9.5,9.4s4.3,9.4,9.5,9.4c5.3,0,9.5-4.2,9.5-9.4
				C1610.7,904.1,1606.5,899.9,1601.2,899.9z"/>
			<path class="st6" d="M1915.4,807.9c47.1-10.4,91.2,7.3,98.5,39.4c7.3,32.1-25.1,66.6-72.2,76.9c-47.1,10.4-91.2-7.3-98.5-39.4
				C1835.9,852.7,1868.3,818.2,1915.4,807.9z"/>
			<path class="st7" d="M1981.9,840.3c-47.5,0-86,30.8-86,68.7c0,38,38.5,68.6,86,68.7c81.4,0.2,94.8-20,94.8-58
				C2076.7,881.8,2029.4,840.3,1981.9,840.3z"/>
			<ellipse class="st6" cx="1763.1" cy="878.1" rx="86" ry="74.7"/>
			<ellipse class="st6" cx="1855" cy="904.6" rx="86.2" ry="72.2"/>
			<ellipse class="st7" cx="1750.1" cy="917.3" rx="91.6" ry="65.4"/>
			<path class="st7" d="M1852.6,859.6c-36.1,7.9-61.1,32.8-55.9,55.7c5.2,22.9,38.5,35.1,74.5,27.2c36.1-7.9,61.1-32.8,55.9-55.7
				C1922,863.9,1888.7,851.8,1852.6,859.6z"/>
			<path class="st7" d="M1877.1,891.6c-28.9,6.3-49,26.2-45,44.3c4.1,18.2,30.8,27.8,59.7,21.5s49-26.2,45-44.3
				C1932.7,894.9,1905.9,885.3,1877.1,891.6z"/>
			
				<ellipse transform="matrix(1.493316e-03 -1 1 1.493316e-03 928.3752 2846.1011)" class="st7" cx="1889.4" cy="958.2" rx="33.7" ry="103.7"/>
			<path class="st6" d="M1669.2,891.6c-3,0-5.5,2.4-5.5,5.4s2.4,5.4,5.5,5.4c3,0,5.5-2.4,5.5-5.4S1672.2,891.6,1669.2,891.6z"/>
			<path class="st6" d="M1709.7,890c-3,0-5.5,2.4-5.5,5.4s2.4,5.4,5.5,5.4c3,0,5.5-2.4,5.5-5.4C1715.1,892.4,1712.6,890,1709.7,890z
				"/>
			<path class="st6" d="M1884.5,948.2c-3,0-5.5,2.4-5.5,5.4s2.4,5.4,5.5,5.4c3,0,5.5-2.4,5.5-5.4
				C1889.8,950.6,1887.4,948.2,1884.5,948.2z"/>
			<path class="st6" d="M2018.5,921.8c-3,0-5.5,2.4-5.5,5.4s2.4,5.4,5.5,5.4c3,0,5.5-2.4,5.5-5.4
				C2023.9,924.2,2021.4,921.8,2018.5,921.8z"/>
			<ellipse class="st6" cx="2071.7" cy="924.5" rx="5.5" ry="5.4"/>
			<ellipse class="st6" cx="1798.3" cy="934.9" rx="5.5" ry="5.4"/>
			<path class="st6" d="M1737.3,942.2c-3,0-5.5,2.4-5.5,5.4s2.4,5.4,5.5,5.4s5.5-2.4,5.5-5.4
				C1742.8,944.6,1740.4,942.2,1737.3,942.2z"/>
			<path class="st6" d="M1972.9,907.4c-3,0-5.5,2.4-5.5,5.4s2.4,5.4,5.5,5.4c3,0,5.5-2.4,5.5-5.4
				C1978.3,909.8,1975.8,907.4,1972.9,907.4z"/>
			<path class="st6" d="M2004.4,819.4c-4.2,0-7.5,3.3-7.5,7.4c0,4.1,3.3,7.4,7.5,7.4s7.5-3.3,7.5-7.4S2008.6,819.4,2004.4,819.4z"/>
			<path class="st6" d="M2018.5,872.4c-3.4,0-6.3,2.8-6.3,6.2s2.8,6.2,6.3,6.2s6.3-2.8,6.3-6.2S2021.9,872.4,2018.5,872.4z"/>
			
				<ellipse transform="matrix(1 -3.522674e-03 3.522674e-03 1 -3.0397 7.214)" class="st6" cx="2046.4" cy="866.5" rx="11.1" ry="11"/>
			<path class="st7" d="M1885.3,819.2c-3.5,0-6.4,2.8-6.4,6.3s2.8,6.3,6.4,6.3s6.4-2.8,6.4-6.3
				C1891.6,822,1888.8,819.2,1885.3,819.2z"/>
			<path class="st7" d="M1934.3,798.8c-6.2,0-11.1,4.9-11.1,11s5,11,11.1,11s11.1-4.9,11.1-11
				C1945.4,803.8,1940.4,798.8,1934.3,798.8z"/>
			<path class="st7" d="M1775.5,809.9c-3.5,0-6.4,2.8-6.4,6.3s2.8,6.3,6.4,6.3c3.5,0,6.4-2.8,6.4-6.3
				C1782,812.7,1779.1,809.9,1775.5,809.9z"/>
			<path class="st7" d="M1775.1,821.3c-3.5,0-6.4,2.8-6.4,6.3s2.8,6.3,6.4,6.3c3.5,0,6.4-2.8,6.4-6.3
				C1781.6,824.1,1778.7,821.3,1775.1,821.3z"/>
			<path class="st7" d="M2071.7,890.6c-3.5,0-6.4,2.8-6.4,6.3s2.8,6.3,6.4,6.3s6.4-2.8,6.4-6.3
				C2078.2,893.5,2075.2,890.6,2071.7,890.6z"/>
			<path class="st7" d="M1906.7,827.6c-4.4,0-7.9,3.5-7.9,7.8s3.5,7.8,7.9,7.8c4.4,0,7.9-3.5,7.9-7.8S1911.1,827.6,1906.7,827.6z"/>
			<path class="st7" d="M1829,848.4c-4.4,0-7.9,3.5-7.9,7.8s3.5,7.8,7.9,7.8c4.4,0,7.9-3.5,7.9-7.8S1833.4,848.4,1829,848.4z"/>
			<path class="st6" d="M1864.6,873.2c-3,0-5.5,2.4-5.5,5.4s2.4,5.4,5.5,5.4c3,0,5.5-2.4,5.5-5.4
				C1870.1,875.6,1867.6,873.2,1864.6,873.2z"/>
			<path class="st6" d="M1965,840.5c-4.4,0-7.8,3.5-7.8,7.8s3.5,7.8,7.8,7.8c4.4,0,7.8-3.5,7.8-7.8
				C1972.9,843.9,1969.4,840.5,1965,840.5z"/>
			<path class="st6" d="M1840.8,916.8c-4.4,0-7.9,3.5-7.9,7.8s3.5,7.8,7.9,7.8c4.4,0,7.8-3.5,7.8-7.8
				C1848.7,920.2,1845.1,916.8,1840.8,916.8z"/>
			<path class="st6" d="M1915.9,909c-4.4,0-7.9,3.5-7.9,7.8s3.5,7.8,7.9,7.8s7.8-3.5,7.8-7.8S1920.2,909,1915.9,909z"/>
			<path class="st6" d="M1756.6,875.5c-4,0-7.1,3.2-7.1,7.1c0,3.9,3.2,7.1,7.1,7.1c4,0,7.1-3.2,7.1-7.1
				C1763.8,878.7,1760.5,875.5,1756.6,875.5z"/>
			
				<ellipse transform="matrix(1 -3.498323e-03 3.498323e-03 1 -2.9977 6.2468)" class="st6" cx="1784.2" cy="860" rx="11.1" ry="11"/>
			<ellipse class="st7" cx="1720.8" cy="850.2" rx="11.1" ry="11"/>
			<ellipse class="st7" cx="1924.2" cy="895.8" rx="41.4" ry="37.9"/>
			<path class="st7" d="M1677.1,866.5c-3.7,0-6.8,3-6.8,6.7s3,6.7,6.8,6.7c3.7,0,6.8-3,6.8-6.7S1680.8,866.5,1677.1,866.5z"/>
			<path class="st6" d="M1687,832.5c-4.4,0-7.9,3.5-7.9,7.8s3.5,7.8,7.9,7.8c4.4,0,7.8-3.5,7.8-7.8
				C1694.8,835.9,1691.4,832.5,1687,832.5z"/>
			<path class="st6" d="M1788.5,894c-5.3,0-9.5,4.2-9.5,9.4s4.3,9.4,9.5,9.4c5.3,0,9.5-4.2,9.5-9.4
				C1798,898.2,1793.8,894,1788.5,894z"/>
		</g>
		<g class="st1">
			<rect x="-38.2" y="-1.2" class="st8" width="1920" height="976"/>
			<polygon class="st9" points="942.6,828.5 942.6,877.3 948.4,884 953.7,877.3 953.7,828.5 			"/>
			<rect x="-38.2" y="-1.2" class="st8" width="1920" height="976"/>
			<polygon class="st9" points="975.9,828.5 975.9,877.3 981.8,884 987,877.3 987,828.5 			"/>
			<rect x="-38.2" y="-1.2" class="st8" width="1920" height="976"/>
			<g id="Element_3_">
				<path class="st10" d="M1013.3,779.1c-0.4-44.3-17.4-64-48.6-63.7c-31.2,0.3-47.9,20.3-47.5,64.5c0.1,13.3,3.9,22.8,2.8,30.8
					c-2.4,17.3-11.2,21.4,45.7,20.9s48.1-4.4,45.4-21.7C1009.8,802,1013.4,792.5,1013.3,779.1z"/>
				<path class="st11" d="M1011.3,799.9c-8.9,2.5-31.3,8.5-45.8,8.9c-14.3,0.4-36.7-5.4-45.9-8c0.5,3.6,0.8,6.9,0.4,9.9
					c0,0.4-0.1,0.7-0.2,1c9.4,2.6,26.3,6.4,45.8,6.2c20.3-0.2,37.8-5.4,45.5-8.1C1010.6,806.9,1010.8,803.5,1011.3,799.9z"/>
				
					<ellipse transform="matrix(1 -8.342041e-03 8.342041e-03 1 -5.7777 8.0713)" class="st12" cx="964.6" cy="696.6" rx="36.8" ry="42.1"/>
				
					<ellipse transform="matrix(1 -8.343784e-03 8.343784e-03 1 -5.8223 8.0731)" class="st13" cx="964.6" cy="701.8" rx="9.8" ry="5.4"/>
				<path class="st14" d="M946.4,635.8c-10,0.1-34.1,45.2-23.4,49.8c5.3,2.3,5.1,10.5,5.6,15.4c-6.5,9.6-0.6,41.8,5.2,53.1
					c3.3,6.4,20.2,33.1,31.1,33.2c13.1,0.2,29.9-28.4,33.7-43.8c4.8-19.8,3.1-38.1,2.6-42.4c0.7-4.2,1.4-11.8,2.7-15.9
					C1004,685.2,1016.7,635.2,946.4,635.8z M962.9,734c-11.6,0.1-30.4-21.1-32.4-30.4c-0.9-4.5,0.4-21.8,1.5-22.5
					c16.5-10.2,32-0.3,48.5-9.8c7.6,8.1,12.1,4.8,16.1,5.5c1.7,0.3,4.8,19.1,3.1,25.2C997.4,710.4,974.8,733.9,962.9,734z"/>
				<path class="st15" d="M1004,665L1004,665c-24.2-16.6-56.2-16.4-80.2,0.7l0,0l39.3-96.5L1004,665z"/>
			</g>
		</g>
	</g>
	<g>
		<defs>
			<rect id="SVGID_6_" x="-3.2" y="-1.2" width="1920" height="976"/>
		</defs>
		<clipPath id="SVGID_7_">
			<use xlink:href="#SVGID_6_"  style="overflow:visible;"/>
		</clipPath>
		<path class="st16" d="M1778.3,34c5.3,0,10.1,1.2,14.2,3.1c4.4-3.7,10.6-6,17.4-6c9.9,0,18.5,4.9,22.2,11.9c3.7-1.6,8-2.5,12.5-2.5
			c11.2,0,20.9,5.6,25,13.5c0.7,0,1.4-0.1,2.2-0.1c14.3,0,26.4,7.1,30.6,16.9c2.7-1.3,5.8-2,9.2-2c5.4,0,10.2,1.9,13.6,4.9
			c4.9,1.2,9.3,3.2,12.9,5.8c1.7-0.2,3.5-0.3,5.3-0.3c18.5,0,33.6,12.2,33.6,27.4c0,15.1-15,27.4-33.6,27.4
			c-5.5,0-10.6-1.1-15.2-2.9c-2.3-0.3-4.5-0.9-6.4-1.8c-5.9,4.2-13.7,6.8-22.2,6.8c-4.2,0-8.1-0.6-11.8-1.7
			c-11.7,4.2-26.8,6.8-43.1,6.8c-11.1,0-21.6-1.2-30.9-3.3c-7.4,1.3-15.6,2-24.4,2c-11.3,0-21.9-1.2-30.7-3.3
			c-5.7,0.9-12,1.4-18.5,1.4c-12.3,0-23.6-1.7-32.3-4.6c-6.7,2.5-15.2,4-24.3,4c-9.7,0-18.6-1.7-25.5-4.5c-0.6,0-1.3,0-2,0
			c-19.2,0-34.8-12.7-34.8-28.4s15.6-28.4,34.8-28.4c5,0,9.8,0.9,14.1,2.4c2.5-2.1,5.3-3.9,8.5-5.4c-0.1-0.7-0.1-1.4-0.1-2.1
			c0-11.5,13-20.8,29-20.8c6.8,0,13.1,1.7,18.1,4.5c3.4-6.3,12.4-10.8,23-10.8c2.4,0,4.8,0.2,7,0.7C1759.5,38.3,1768.2,34,1778.3,34
			z"/>
	</g>
	<g>
		<defs>
			<rect id="SVGID_8_" x="-3.2" y="-1.2" width="1920" height="976"/>
		</defs>
		<clipPath id="SVGID_9_">
			<use xlink:href="#SVGID_8_"  style="overflow:visible;"/>
		</clipPath>
		<path class="st17" d="M1463.9,28.3c2.9,0,5.6,0.6,7.8,1.7c2.4-2,5.8-3.3,9.5-3.3c5.5,0,10.1,2.7,12.2,6.5c2-0.9,4.4-1.4,6.8-1.4
			c6.2,0,11.4,3,13.7,7.4c0.4,0,0.8,0,1.2,0c7.8,0,14.5,3.9,16.7,9.2c1.5-0.7,3.2-1.1,5-1.1c2.9,0,5.6,1,7.4,2.7
			c2.7,0.7,5.1,1.7,7.1,3.2c1-0.1,1.9-0.2,2.9-0.2c10.2,0,18.4,6.7,18.4,15s-8.2,15-18.4,15c-3,0-5.8-0.6-8.3-1.6
			c-1.3-0.2-2.4-0.5-3.5-1c-3.2,2.3-7.5,3.7-12.2,3.7c-2.3,0-4.5-0.3-6.5-1c-6.4,2.3-14.7,3.7-23.7,3.7c-6.1,0-11.9-0.6-16.9-1.8
			c-4,0.7-8.6,1.1-13.4,1.1c-6.2,0-12-0.7-16.8-1.8c-3.1,0.5-6.6,0.8-10.1,0.8c-6.8,0-12.9-1-17.7-2.5c-3.7,1.4-8.3,2.2-13.3,2.2
			c-5.3,0-10.2-0.9-14-2.4c-0.4,0-0.7,0-1.1,0c-10.5,0-19.1-7-19.1-15.6s8.6-15.6,19.1-15.6c2.8,0,5.4,0.5,7.8,1.3
			c1.4-1.2,2.9-2.2,4.6-3c-0.1-0.4-0.1-0.8-0.1-1.1c0-6.3,7.1-11.4,15.9-11.4c3.7,0,7.2,0.9,9.9,2.5c1.9-3.5,6.8-5.9,12.6-5.9
			c1.3,0,2.6,0.1,3.8,0.4C1453.6,30.6,1458.3,28.3,1463.9,28.3z"/>
	</g>
	<g>
		<defs>
			<rect id="SVGID_10_" x="-3.2" y="-1.2" width="1920" height="976"/>
		</defs>
		<clipPath id="SVGID_11_">
			<use xlink:href="#SVGID_10_"  style="overflow:visible;"/>
		</clipPath>
		<path class="st18" d="M1049.9,76.3c2.9,0,5.6,0.6,7.8,1.7c2.4-2,5.8-3.3,9.5-3.3c5.5,0,10.1,2.7,12.2,6.5c2-0.9,4.4-1.4,6.8-1.4
			c6.2,0,11.4,3,13.7,7.4c0.4,0,0.8,0,1.2,0c7.8,0,14.5,3.9,16.7,9.2c1.5-0.7,3.2-1.1,5-1.1c2.9,0,5.6,1,7.4,2.7
			c2.7,0.7,5.1,1.7,7.1,3.2c1-0.1,1.9-0.2,2.9-0.2c10.2,0,18.4,6.7,18.4,15s-8.2,15-18.4,15c-3,0-5.8-0.6-8.3-1.6
			c-1.3-0.2-2.4-0.5-3.5-1c-3.2,2.3-7.5,3.7-12.2,3.7c-2.3,0-4.5-0.3-6.5-1c-6.4,2.3-14.7,3.7-23.7,3.7c-6.1,0-11.9-0.6-16.9-1.8
			c-4,0.7-8.6,1.1-13.4,1.1c-6.2,0-12-0.7-16.8-1.8c-3.1,0.5-6.6,0.8-10.1,0.8c-6.8,0-12.9-1-17.7-2.5c-3.7,1.4-8.3,2.2-13.3,2.2
			c-5.3,0-10.2-0.9-14-2.4c-0.4,0-0.7,0-1.1,0c-10.5,0-19.1-7-19.1-15.6s8.6-15.6,19.1-15.6c2.8,0,5.4,0.5,7.8,1.3
			c1.4-1.2,2.9-2.2,4.6-3c-0.1-0.4-0.1-0.8-0.1-1.1c0-6.3,7.1-11.4,15.9-11.4c3.7,0,7.2,0.9,9.9,2.5c1.9-3.5,6.8-5.9,12.6-5.9
			c1.3,0,2.6,0.1,3.8,0.4C1039.6,78.6,1044.3,76.3,1049.9,76.3z"/>
	</g>
	<g>
		<defs>
			<rect id="SVGID_12_" x="-3.2" y="-1.2" width="1920" height="976"/>
		</defs>
		<clipPath id="SVGID_13_">
			<use xlink:href="#SVGID_12_"  style="overflow:visible;"/>
		</clipPath>
		<path class="st19" d="M196.7,58.3c7.7,0,14.9,1.5,20.9,4.2c6.5-4.9,15.6-8,25.6-8c14.6,0,27.2,6.5,32.7,15.8
			c5.5-2.1,11.7-3.3,18.3-3.3c16.5,0,30.7,7.4,36.8,17.8c1.1,0,2.1-0.1,3.2-0.1c21,0,38.8,9.4,44.9,22.3c4-1.7,8.6-2.6,13.5-2.6
			c7.9,0,15,2.5,20,6.4c7.2,1.6,13.7,4.2,18.9,7.6c2.6-0.3,5.2-0.5,7.8-0.5c27.3,0,49.4,16.2,49.4,36.2s-22.1,36.2-49.4,36.2
			c-8,0-15.6-1.4-22.3-3.9c-3.4-0.4-6.6-1.2-9.4-2.4c-8.7,5.6-20.1,9-32.6,9c-6.1,0-12-0.8-17.4-2.3c-17.2,5.6-39.4,9-63.5,9
			c-16.4,0-31.8-1.6-45.4-4.3c-10.9,1.7-23,2.6-35.8,2.6c-16.7,0-32.2-1.6-45.2-4.3c-8.4,1.2-17.6,1.8-27.2,1.8
			c-18.1,0-34.7-2.3-47.5-6.1c-9.9,3.3-22.3,5.3-35.8,5.3c-14.3,0-27.4-2.2-37.6-5.9c-1,0-1.9,0.1-2.9,0.1
			c-28.3,0-51.3-16.8-51.3-37.6s23-37.6,51.3-37.6c7.4,0,14.5,1.2,20.8,3.2c3.6-2.8,7.8-5.2,12.4-7.1c-0.1-0.9-0.2-1.8-0.2-2.8
			c0-15.2,19.1-27.6,42.7-27.6c10.1,0,19.3,2.2,26.6,6C124,77,137.2,71,152.8,71c3.6,0,7,0.3,10.3,0.9
			C169.1,64,181.9,58.3,196.7,58.3z"/>
	</g>
	<g>
		<defs>
			<rect id="SVGID_14_" x="-3.2" y="-1.2" width="1920" height="976"/>
		</defs>
		<clipPath id="SVGID_15_">
			<use xlink:href="#SVGID_14_"  style="overflow:visible;"/>
		</clipPath>
		<path class="st20" d="M759.2-16.7c5.1,0,9.9,1,13.9,2.8c4.3-3.3,10.3-5.3,17-5.3c9.7,0,18.1,4.3,21.7,10.5
			c3.7-1.4,7.8-2.2,12.2-2.2c11,0,20.4,4.9,24.5,11.9c0.7,0,1.4-0.1,2.1-0.1c14,0,25.8,6.2,29.9,14.9c2.6-1.1,5.7-1.8,9-1.8
			c5.3,0,10,1.7,13.3,4.3c4.8,1.1,9.1,2.8,12.6,5.1c1.7-0.2,3.4-0.3,5.2-0.3c18.1,0,32.8,10.8,32.8,24.1s-14.7,24.1-32.8,24.1
			c-5.3,0-10.4-0.9-14.8-2.6c-2.2-0.3-4.4-0.8-6.3-1.6c-5.8,3.7-13.4,6-21.7,6c-4.1,0-8-0.5-11.6-1.5c-11.5,3.7-26.2,6-42.2,6
			c-10.9,0-21.1-1-30.2-2.9c-7.2,1.1-15.3,1.8-23.8,1.8c-11.1,0-21.4-1.1-30-2.9c-5.6,0.8-11.7,1.2-18.1,1.2
			c-12,0-23.1-1.5-31.6-4.1c-6.6,2.2-14.8,3.5-23.8,3.5c-9.5,0-18.2-1.5-25-3.9c-0.6,0-1.3,0-1.9,0c-18.8,0-34.1-11.2-34.1-25
			s15.3-25,34.1-25c4.9,0,9.6,0.8,13.8,2.1c2.4-1.9,5.2-3.5,8.3-4.7c-0.1-0.6-0.1-1.2-0.1-1.8c0-10.1,12.7-18.3,28.4-18.3
			c6.7,0,12.8,1.5,17.7,4c3.3-5.6,12.1-9.5,22.4-9.5c2.4,0,4.7,0.2,6.8,0.6C740.8-12.9,749.3-16.7,759.2-16.7z"/>
	</g>
</g>
</svg>
