<svg xmlns="http://www.w3.org/2000/svg" viewBox="4575.072 2769.836 27.886 37.181">
  <defs>
    <style>
      .cls-1 {
        fill: #3caed6;
      }

      .cls-2 {
        fill: #63bfde;
      }

      .cls-3 {
        fill: #369dc0;
      }
    </style>
  </defs>
  <g id="drop" transform="translate(4015 2263)">
    <path id="Path_874" data-name="Path 874" class="cls-1" d="M62.889,24c0-7.436-12.781-21.96-13.827-23.122h0S35,16.328,35,24A13.984,13.984,0,0,0,48.946,37.94a6.626,6.626,0,0,0,1.51-.116.427.427,0,0,0,.349-.116c.349,0,.7-.116,1.046-.116.116,0,.232-.116.465-.116.349-.116.7-.116,1.046-.232.116,0,.232-.116.349-.116l1.046-.349a.406.406,0,0,0,.232-.116,4.71,4.71,0,0,0,1.046-.581c.116,0,.116-.116.232-.116l1.046-.7a.114.114,0,0,0,.116-.116c.349-.232.7-.581,1.046-.813h0A14.584,14.584,0,0,0,62.889,24Z" transform="translate(525.069 506.077)"/>
    <path id="Path_875" data-name="Path 875" class="cls-2" d="M168.59,140.014a2.324,2.324,0,1,0,2.324,2.324A2.331,2.331,0,0,0,168.59,140.014Z" transform="translate(411.235 385.413)"/>
    <path id="Path_876" data-name="Path 876" class="cls-3" d="M50.109,36.019A13.984,13.984,0,0,1,36.166,22.076c0-6.39,9.528-18.126,12.9-21.96L48.947,0S35,15.569,35,23.238A13.984,13.984,0,0,0,48.947,37.181,14.2,14.2,0,0,0,59.4,32.533,14.56,14.56,0,0,1,50.109,36.019Z" transform="translate(525.068 506.836)"/>
  </g>
</svg>
