<svg xmlns="http://www.w3.org/2000/svg" xmlns:xlink="http://www.w3.org/1999/xlink" viewBox="1039 -578 71.94 70.94">
  <defs>
    <style>
      .cls-1 {
        fill: #b1effd;
      }

      .cls-2 {
        clip-path: url(#clip-path);
      }

      .cls-3 {
        fill: #e54c3c;
      }

      .cls-4 {
        fill: #fff;
      }

      .cls-5 {
        fill: #efdcb3;
      }

      .cls-6 {
        fill: #f2af7c;
      }

      .cls-7 {
        fill: #bcc1c6;
      }

      .cls-8 {
        fill: #f6921e;
      }
    </style>
    <clipPath id="clip-path">
      <circle id="Ellipse_49" data-name="Ellipse 49" class="cls-1" cx="35.47" cy="35.47" r="35.47" transform="translate(23 118)"/>
    </clipPath>
  </defs>
  <g id="Symbol_1_1" data-name="Symbol 1 – 1" transform="translate(1018 -832)">
    <circle id="Ellipse_16" data-name="Ellipse 16" class="cls-1" cx="35.47" cy="35.47" r="35.47" transform="translate(22 254)"/>
    <g id="Mask_Group_14" data-name="Mask Group 14" class="cls-2" transform="translate(-2 136)">
      <g id="gnomeblue-01" transform="translate(46.651 127.177)">
        <path id="Path_1367" data-name="Path 1367" class="cls-3" d="M41.194,450.021c-.008-10.447-4.007-15.13-11.364-15.121s-11.339,4.7-11.33,15.146c0,3.141.875,6.373.6,8.265-.592,4.074-2.674,4.032,10.756,4.024S41.2,461.377,40.6,457.3C40.328,455.411,41.194,453.162,41.194,450.021Z" transform="translate(-18.5 -400.375)"/>
        <path id="Path_1368" data-name="Path 1368" class="cls-4" d="M46.553,675c-2.1.575-7.4,1.95-10.831,2.024-3.382.075-8.64-1.325-10.822-1.958a8.64,8.64,0,0,1,.075,2.341c-.008.083-.025.167-.042.25A39.17,39.17,0,0,0,35.722,679.3a34.388,34.388,0,0,0,10.747-1.916A8.631,8.631,0,0,1,46.553,675Z" transform="translate(-24.367 -620.472)"/>
        <ellipse id="Ellipse_47" data-name="Ellipse 47" class="cls-5" cx="8.689" cy="9.931" rx="8.689" ry="9.931" transform="translate(2.63 20.154) rotate(-0.062)"/>
        <ellipse id="Ellipse_48" data-name="Ellipse 48" class="cls-6" cx="2.316" cy="1.275" rx="2.316" ry="1.275" transform="translate(9.013 30.037) rotate(-0.062)"/>
        <path id="Path_1369" data-name="Path 1369" class="cls-7" d="M35.763,209c-2.366.008-8.131,10.6-5.615,11.705,1.241.55,1.175,2.491,1.3,3.649-1.541,2.258-.2,9.864,1.141,12.547.758,1.508,4.707,7.831,7.282,7.9,3.091.075,7.107-6.657,8.015-10.281a30.051,30.051,0,0,0,.691-10.006,36.206,36.206,0,0,1,.667-3.757C49.251,220.755,52.351,208.983,35.763,209Zm3.716,23.2c-2.741,0-7.148-5.024-7.59-7.232-.208-1.05.125-5.14.4-5.307,3.924-2.374,7.548-.008,11.472-2.233,1.783,1.925,2.849,1.15,3.791,1.325.408.075,1.1,4.516.683,5.949C47.668,226.687,42.295,232.2,39.479,232.2Z" transform="translate(-28.607 -193.295)"/>
        <path id="Path_1370" data-name="Path 1370" class="cls-8" d="M58.712,43.194h0a16.5,16.5,0,0,0-18.912.017h0L49.231,20.5Z" transform="translate(-38.025 -20.5)"/>
      </g>
    </g>
  </g>
</svg>
