<svg xmlns="http://www.w3.org/2000/svg" viewBox="4567.01 2880.359 42.119 42.119">
  <defs>
    <style>
      .cls-1 {
        fill: #fcd462;
      }

      .cls-2 {
        fill: #f6c358;
      }
    </style>
  </defs>
  <g id="contrast" transform="translate(4015 2263)">
    <ellipse id="Ellipse_3" data-name="Ellipse 3" class="cls-1" cx="12.109" cy="12.109" rx="12.109" ry="12.109" transform="translate(560.961 626.309)"/>
    <g id="Group_385" data-name="Group 385" transform="translate(552.01 617.359)">
      <path id="Path_865" data-name="Path 865" class="cls-2" d="M201.055,118.664a19.765,19.765,0,0,1,.948,5.318c.316,7.318-4.633,13.794-11.056,16.637a12.108,12.108,0,0,0,10.109-21.955Z" transform="translate(-174.256 -108.292)"/>
      <path id="Path_866" data-name="Path 866" class="cls-2" d="M222.251,0a1.775,1.775,0,0,0-1.79,1.79V4.738a1.79,1.79,0,0,0,3.58,0V1.79A1.775,1.775,0,0,0,222.251,0Z" transform="translate(-201.192)"/>
      <path id="Path_867" data-name="Path 867" class="cls-2" d="M222.251,407.191a1.775,1.775,0,0,0-1.79,1.79v2.948a1.79,1.79,0,1,0,3.58,0v-2.948A1.775,1.775,0,0,0,222.251,407.191Z" transform="translate(-201.192 -371.6)"/>
      <path id="Path_868" data-name="Path 868" class="cls-2" d="M413.718,222.251a1.775,1.775,0,0,0-1.79-1.79H408.98a1.79,1.79,0,0,0,0,3.58h2.948A1.775,1.775,0,0,0,413.718,222.251Z" transform="translate(-371.599 -201.192)"/>
      <path id="Path_869" data-name="Path 869" class="cls-2" d="M6.528,222.251a1.775,1.775,0,0,0-1.79-1.79H1.79a1.79,1.79,0,1,0,0,3.58H4.738A1.775,1.775,0,0,0,6.528,222.251Z" transform="translate(0 -201.192)"/>
      <path id="Path_870" data-name="Path 870" class="cls-2" d="M357.673,65.115a1.812,1.812,0,0,0-2.527,0l-2.106,2.106a1.787,1.787,0,0,0,2.527,2.527l2.106-2.106A1.812,1.812,0,0,0,357.673,65.115Z" transform="translate(-321.714 -58.955)"/>
      <path id="Path_871" data-name="Path 871" class="cls-2" d="M69.748,353.04a1.812,1.812,0,0,0-2.527,0l-2.106,2.106a1.787,1.787,0,0,0,2.527,2.527l2.106-2.106A1.812,1.812,0,0,0,69.748,353.04Z" transform="translate(-58.955 -321.714)"/>
      <path id="Path_872" data-name="Path 872" class="cls-2" d="M357.673,357.673a1.812,1.812,0,0,0,0-2.527l-2.106-2.106a1.787,1.787,0,0,0-2.527,2.527l2.106,2.106A1.812,1.812,0,0,0,357.673,357.673Z" transform="translate(-321.714 -321.714)"/>
      <path id="Path_873" data-name="Path 873" class="cls-2" d="M69.748,69.748a1.812,1.812,0,0,0,0-2.527l-2.106-2.106a1.787,1.787,0,0,0-2.527,2.527l2.106,2.106A1.811,1.811,0,0,0,69.748,69.748Z" transform="translate(-58.955 -58.955)"/>
    </g>
  </g>
</svg>
