<svg xmlns="http://www.w3.org/2000/svg" viewBox="4575.072 2822.417 26.26 44.771">
  <defs>
    <style>
      .cls-1 {
        fill: #efc75e;
      }

      .cls-2 {
        fill: #b7b7b7;
      }

      .cls-3 {
        fill: #f2f1ef;
      }

      .cls-4 {
        fill: #d67246;
      }

      .cls-5 {
        fill: #e5925e;
      }

      .cls-6 {
        fill: #cb4e44;
      }
    </style>
  </defs>
  <g id="thermometer" transform="translate(4015 2263)">
    <path id="Path_877" data-name="Path 877" class="cls-1" d="M63.015,91.161v0Z" transform="translate(508.514 512.155)"/>
    <path id="Path_878" data-name="Path 878" class="cls-2" d="M194.99,129.969H169.98c-.375,0-.625.169-.625.422v.844c0,.253.25.422.625.422h25.01c.375,0,.625-.169.625-.422v-.844C195.616,130.18,195.365,129.969,194.99,129.969Zm0,5.91H169.98c-.375,0-.625.169-.625.422v.844c0,.253.25.422.625.422h25.01c.375,0,.625-.169.625-.422V136.3C195.616,136.09,195.365,135.879,194.99,135.879Zm0,6.332H169.98c-.375,0-.625.169-.625.422v.844c0,.253.25.422.625.422h25.01c.375,0,.625-.169.625-.422v-.844C195.616,142.421,195.365,142.21,194.99,142.21Z" transform="translate(390.717 439.598)"/>
    <path id="Path_880" data-name="Path 880" class="cls-3" d="M173.361,76.273V56.392a5.342,5.342,0,0,1,10.68,0V76.273a4.194,4.194,0,0,0,1.424,2.955,8.464,8.464,0,0,1,2.581,6.078,9.356,9.356,0,0,1-18.69.084,8.52,8.52,0,0,1,2.626-6.163A4.525,4.525,0,0,0,173.361,76.273Z" transform="translate(394.528 509.925)"/>
    <path id="Path_881" data-name="Path 881" class="cls-4" d="M200.238,162.75a7.576,7.576,0,0,1-15.13,0,7.114,7.114,0,0,1,4.005-6.332V137.846h7.12v18.573A7.114,7.114,0,0,1,200.238,162.75Z" transform="translate(380.556 432.566)"/>
    <path id="Path_882" data-name="Path 882" class="cls-5" d="M255.621,156.419V137.846h-3.56v32.08a7.372,7.372,0,0,0,7.565-7.176A7.113,7.113,0,0,0,255.621,156.419Z" transform="translate(321.168 432.566)"/>
    <path id="Path_883" data-name="Path 883" class="cls-6" d="M224.115,126.031c1.958,0,3.56.549,3.56,1.266s-1.6,1.266-3.56,1.266-3.56-.549-3.56-1.266C220.555,126.622,222.157,126.031,224.115,126.031Z" transform="translate(349.114 443.114)"/>
  </g>
</svg>
