<?xml version="1.0" encoding="utf-8"?>
<!-- Generator: Adobe Illustrator 22.0.1, SVG Export Plug-In . SVG Version: 6.00 Build 0)  -->
<svg version="1.1" id="Layer_1" xmlns="http://www.w3.org/2000/svg" xmlns:xlink="http://www.w3.org/1999/xlink" x="0px" y="0px"
	 viewBox="0 0 1920 390" style="enable-background:new 0 0 1920 390;" xml:space="preserve">
<style type="text/css">
	.st0{fill:#FFFFFF;}
</style>
<g>
	<path class="st0" d="M212.8,198.4h111.5v140.7c-40.9,17.8-81.5,26.6-121.7,26.6c-55,0-98.9-16-131.8-48.1
		c-32.9-32.1-49.3-71.7-49.3-118.7c0-49.6,17-90.9,51.1-123.9c34.1-33,76.8-49.4,128.1-49.4c18.7,0,36.5,2,53.2,6.1
		c16.8,4,38,11.5,63.7,22.2v48.5c-39.6-23-78.9-34.5-117.9-34.5c-36.3,0-66.9,12.4-91.8,37.1c-24.9,24.7-37.3,55.1-37.3,91
		c0,37.7,12.4,68.5,37.3,92.5c24.9,23.9,56.9,35.9,96,35.9c19,0,41.8-4.4,68.2-13.1l4.5-1.4v-69.2h-63.9V198.4z"/>
	<path class="st0" d="M657.6,29.8h45.2v332.1h-40.9l-222-255.8v255.8h-44.7V29.8h38.5l223.9,257.9V29.8z"/>
	<path class="st0" d="M936.8,25.1c51.3,0,94,16.2,128.2,48.7c34.1,32.5,51.2,73.2,51.2,122.2c0,49-17.2,89.5-51.7,121.6
		c-34.4,32.1-77.9,48.1-130.3,48.1c-50,0-91.7-16-125.1-48.1c-33.3-32.1-50-72.3-50-120.6c0-49.6,16.8-90.6,50.4-123.1
		C843.1,41.3,885.5,25.1,936.8,25.1z M938.7,70.3c-38,0-69.2,11.9-93.7,35.7c-24.5,23.8-36.7,54.1-36.7,91
		c0,35.8,12.3,65.6,36.8,89.4c24.5,23.8,55.3,35.7,92.1,35.7c37,0,68-12.1,92.7-36.4c24.8-24.2,37.2-54.4,37.2-90.6
		c0-35.2-12.4-64.8-37.2-88.8C1005.3,82.3,974.8,70.3,938.7,70.3z"/>
	<path class="st0" d="M1438.8,29.8h44.5v332.1h-47.8V103.5l-102.1,128.4h-8.8l-103.3-128.4v258.4h-47.5V29.8h45l110.4,136.4
		L1438.8,29.8z"/>
	<path class="st0" d="M1554.8,29.8H1743v42.3h-140.7v101.3h136V216h-136v103.2h145.2v42.3h-192.8V29.8z"/>
	<path class="st0" d="M1820.9,20.5v10.4h-20v52.2h-12.4V30.8h-20V20.5H1820.9z M1888.6,83.1l-2.3-36.8c-0.2-4.8-0.2-10.8-0.5-17.5
		h-0.7c-1.6,5.5-3.5,12.9-5.3,18.6l-11.3,34.7h-12.9l-11.3-35.7c-1.2-4.8-3-12.2-4.4-17.7h-0.7c0,5.8-0.2,11.7-0.5,17.5l-2.3,36.8
		h-12l4.6-62.6h18.6l10.8,30.6c1.4,4.8,2.5,9.4,4.1,15.9h0.2c1.6-5.8,3-11,4.4-15.6l10.8-30.8h17.9l4.8,62.6H1888.6z"/>
</g>
</svg>
