<?xml version="1.0" standalone="no"?>
<!DOCTYPE svg PUBLIC "-//W3C//DTD SVG 20010904//EN"
 "http://www.w3.org/TR/2001/REC-SVG-20010904/DTD/svg10.dtd">
<svg version="1.0" xmlns="http://www.w3.org/2000/svg"
 width="700.000000pt" height="700.000000pt" viewBox="0 0 700.000000 700.000000"
 preserveAspectRatio="xMidYMid meet">
<metadata>
Created by potrace 1.11, written by Peter Selinger 2001-2013
</metadata>
<g transform="translate(0.000000,700.000000) scale(0.100000,-0.100000)"
fill="#000000" stroke="none">
<path d="M3507 6479 c-14 -30 -64 -151 -111 -269 -48 -118 -91 -224 -96 -235
-5 -11 -21 -49 -35 -85 -14 -36 -30 -74 -35 -85 -4 -11 -22 -56 -40 -100 -17
-44 -40 -99 -51 -122 -10 -24 -19 -46 -19 -49 0 -3 -6 -20 -14 -37 -12 -28
-64 -157 -86 -212 -4 -11 -15 -36 -23 -55 -8 -19 -59 -143 -112 -275 -53 -132
-106 -259 -116 -282 -10 -23 -19 -48 -19 -55 0 -8 -4 -18 -9 -24 -11 -12 -84
-201 -109 -286 -51 -165 -46 -266 15 -308 87 -59 112 -117 114 -265 1 -66 -4
-111 -21 -169 -29 -104 -31 -320 -4 -491 17 -111 16 -131 -8 -171 -51 -82
-101 -206 -133 -334 -21 -81 -20 -76 -41 -212 -26 -168 -25 -607 1 -708 2 -8
7 -37 10 -65 4 -27 9 -61 11 -75 10 -59 12 -270 3 -310 -21 -94 -33 -211 -26
-242 18 -70 109 -113 277 -133 109 -12 361 -19 687 -18 379 1 648 11 798 29
28 3 64 8 80 10 50 6 159 44 183 64 28 23 49 75 47 115 -1 17 -11 82 -23 145
-12 63 -23 135 -25 160 -4 52 9 205 29 335 24 161 24 500 -1 635 -1 8 -6 40
-10 70 -28 210 -102 421 -202 577 -20 32 -36 62 -36 68 1 5 4 55 9 110 8 100
9 281 4 470 -3 85 4 158 26 285 2 14 13 66 23 115 21 100 26 269 9 350 -5 28
-11 68 -13 90 -3 31 -95 258 -214 530 -30 69 -48 110 -124 290 -47 110 -99
234 -117 275 -42 96 -46 106 -120 280 -34 79 -67 158 -75 175 -7 16 -63 147
-123 289 l-111 260 -24 -55z"/>
</g>
</svg>
